{"glyphs":{"0":{"ha":914,"x_min":97,"x_max":817,"o":"m 457 -21 q 269 25 351 -21 q 143 151 188 70 q 97 339 97 233 l 97 661 q 143 849 97 767 q 269 975 188 930 q 457 1021 351 1021 q 644 975 563 1021 q 771 849 725 930 q 817 661 817 767 l 817 339 q 771 151 817 233 q 644 25 725 70 q 457 -21 563 -21 m 457 138 q 553 164 510 138 q 621 232 596 189 q 646 327 646 274 l 646 674 q 621 770 646 727 q 553 838 596 813 q 457 863 510 863 q 361 838 404 863 q 293 770 318 813 q 268 674 268 727 l 268 327 q 293 232 268 274 q 361 164 318 189 q 457 138 404 138 z "},"1":{"ha":608,"x_min":83,"x_max":442,"o":"m 271 0 l 271 817 l 83 703 l 83 888 l 271 1000 l 442 1000 l 442 0 l 271 0 z "},"2":{"ha":827,"x_min":69,"x_max":758,"o":"m 69 1 l 69 147 l 497 528 q 567 613 547 573 q 586 689 586 652 q 565 778 586 739 q 505 840 543 817 q 418 863 467 863 q 326 839 366 863 q 264 776 286 815 q 243 690 242 736 l 71 690 q 116 865 71 790 q 239 980 160 939 q 422 1021 318 1021 q 594 978 517 1021 q 714 860 670 935 q 758 687 758 785 q 738 567 758 615 q 680 477 719 518 q 585 386 642 436 l 281 117 l 266 159 l 758 159 l 758 1 l 69 1 z "},"3":{"ha":808,"x_min":56,"x_max":724,"o":"m 383 -19 q 242 10 308 -19 q 126 93 175 40 q 56 219 77 147 l 217 263 q 281 171 235 203 q 383 140 327 139 q 471 163 432 140 q 532 225 510 185 q 554 313 554 264 q 506 437 554 387 q 383 487 458 487 q 338 481 360 487 q 296 463 316 474 l 219 595 l 556 883 l 570 842 l 94 842 l 94 1000 l 708 1000 l 708 842 l 438 582 l 436 631 q 591 581 527 625 q 690 466 656 536 q 724 313 724 396 q 678 143 724 218 q 555 25 632 68 q 383 -19 477 -19 z "},"4":{"ha":845,"x_min":69,"x_max":776,"o":"m 513 0 l 513 165 l 69 165 l 69 322 l 390 1000 l 581 1000 l 260 322 l 513 322 l 513 582 l 682 582 l 682 322 l 776 322 l 776 165 l 682 165 l 682 0 l 513 0 z "},"5":{"ha":814,"x_min":69,"x_max":744,"o":"m 394 -21 q 251 11 317 -21 q 138 98 185 42 q 69 227 90 153 l 231 270 q 266 201 240 230 q 327 156 292 172 q 400 140 363 140 q 489 163 449 140 q 553 227 529 187 q 576 315 576 267 q 552 404 576 364 q 488 467 528 444 q 400 490 448 490 q 305 469 342 490 q 247 425 267 449 l 103 471 l 134 1000 l 677 1000 l 677 843 l 224 843 l 286 902 l 264 534 l 233 572 q 324 624 272 607 q 423 642 375 642 q 589 599 517 642 q 703 483 662 556 q 744 315 744 409 q 696 145 744 222 q 568 24 647 69 q 394 -21 488 -21 z "},"6":{"ha":863,"x_min":97,"x_max":790,"o":"m 443 -21 q 267 25 345 -21 q 143 153 189 72 q 97 342 97 235 l 97 646 q 143 844 97 760 q 270 974 188 928 q 462 1019 353 1019 q 606 994 538 1019 q 726 913 674 969 l 606 796 q 541 845 579 827 q 462 863 503 863 q 360 836 403 863 q 292 764 316 808 q 268 669 268 719 l 268 503 l 238 536 q 341 614 281 586 q 467 642 401 642 q 634 600 562 642 q 748 483 706 557 q 790 315 790 409 q 742 145 790 221 q 616 24 694 69 q 443 -21 538 -21 m 443 140 q 532 163 492 140 q 596 226 572 186 q 620 315 620 266 q 597 403 620 363 q 533 468 573 444 q 444 492 493 492 q 356 468 396 492 q 292 403 315 444 q 268 315 268 363 q 291 227 268 267 q 355 164 315 188 q 443 140 394 140 z "},"7":{"ha":741,"x_min":56,"x_max":672,"o":"m 148 0 l 492 842 l 56 842 l 56 1000 l 672 1000 l 672 842 l 328 0 l 148 0 z "},"8":{"ha":851,"x_min":83,"x_max":767,"o":"m 424 -21 q 248 19 325 -21 q 127 131 171 60 q 83 295 83 203 q 122 449 83 378 q 233 562 160 519 l 230 508 q 141 609 172 552 q 109 738 109 667 q 150 888 109 824 q 261 986 190 951 q 424 1021 332 1021 q 588 986 517 1021 q 700 888 659 951 q 740 738 740 824 q 710 610 740 667 q 619 507 680 553 l 618 561 q 729 449 690 520 q 767 295 767 378 q 723 131 767 203 q 602 19 679 60 q 424 -21 524 -21 m 424 137 q 544 177 498 137 q 590 295 590 217 q 544 414 590 373 q 424 454 499 454 q 306 414 351 454 q 260 295 260 373 q 306 177 260 217 q 424 137 351 137 m 424 613 q 525 644 486 613 q 563 738 563 675 q 525 832 563 801 q 424 863 486 863 q 325 832 363 863 q 286 738 286 801 q 325 644 286 675 q 424 613 363 613 z "},"9":{"ha":863,"x_min":74,"x_max":766,"o":"m 420 1019 q 597 973 518 1019 q 720 845 675 927 q 766 658 766 764 l 766 353 q 720 155 766 240 q 593 25 675 71 q 401 -21 511 -21 q 258 5 326 -21 q 138 85 191 31 l 258 203 q 323 154 285 172 q 401 136 360 136 q 503 164 460 136 q 572 235 547 191 q 596 330 596 279 l 596 496 l 626 463 q 523 384 583 413 q 396 356 463 356 q 230 399 302 356 q 116 516 157 442 q 74 684 74 590 q 122 854 74 778 q 248 975 169 930 q 420 1019 326 1019 m 420 860 q 331 836 372 860 q 267 773 291 813 q 244 684 244 733 q 267 595 244 635 q 330 531 290 555 q 419 508 370 508 q 508 531 467 508 q 572 595 548 555 q 596 684 596 635 q 572 771 596 731 q 509 835 549 811 q 420 860 469 860 z "},"A":{"ha":931,"x_min":28,"x_max":903,"o":"m 28 0 l 343 1000 l 588 1000 l 903 0 l 731 0 l 445 897 l 483 897 l 200 0 l 28 0 m 203 217 l 203 373 l 728 373 l 728 217 l 203 217 z "},"Á":{"ha":931,"x_min":28,"x_max":903,"o":"m 547 1108 l 419 1108 l 526 1365 l 653 1365 l 547 1108 m 28 0 l 343 1000 l 588 1000 l 903 0 l 731 0 l 445 897 l 483 897 l 200 0 l 28 0 m 203 217 l 203 373 l 728 373 l 728 217 l 203 217 z "},"Ă":{"ha":931,"x_min":28,"x_max":903,"o":"m 467 1085 q 360 1113 408 1085 q 284 1189 313 1142 q 256 1295 256 1237 l 387 1295 q 410 1239 387 1262 q 467 1215 433 1215 q 523 1239 500 1215 q 547 1295 547 1262 l 677 1295 q 649 1189 677 1237 q 572 1113 620 1142 q 467 1085 524 1085 m 28 0 l 343 1000 l 588 1000 l 903 0 l 731 0 l 445 897 l 483 897 l 200 0 l 28 0 m 203 217 l 203 373 l 728 373 l 728 217 l 203 217 z "},"Ắ":{"ha":931,"x_min":28,"x_max":903,"o":"m 466 1085 q 360 1113 408 1085 q 284 1189 312 1142 q 256 1295 256 1237 l 386 1295 q 409 1239 386 1262 q 466 1215 433 1215 q 523 1239 499 1215 q 546 1295 546 1262 l 676 1295 q 648 1189 676 1237 q 572 1113 619 1142 q 466 1085 524 1085 m 532 1358 l 405 1358 l 512 1615 l 639 1615 l 532 1358 m 28 0 l 343 1000 l 588 1000 l 903 0 l 731 0 l 445 897 l 483 897 l 200 0 l 28 0 m 203 217 l 203 373 l 728 373 l 728 217 l 203 217 z "},"Ặ":{"ha":931,"x_min":28,"x_max":903,"o":"m 380 -269 l 380 -116 l 551 -116 l 551 -269 l 380 -269 m 467 1085 q 360 1113 408 1085 q 284 1189 313 1142 q 256 1295 256 1237 l 387 1295 q 410 1239 387 1262 q 467 1215 433 1215 q 523 1239 500 1215 q 547 1295 547 1262 l 677 1295 q 649 1189 677 1237 q 572 1113 620 1142 q 467 1085 524 1085 m 28 0 l 343 1000 l 588 1000 l 903 0 l 731 0 l 445 897 l 483 897 l 200 0 l 28 0 m 203 217 l 203 373 l 728 373 l 728 217 l 203 217 z "},"Ằ":{"ha":931,"x_min":28,"x_max":903,"o":"m 466 1085 q 360 1113 408 1085 q 284 1189 312 1142 q 256 1295 256 1237 l 386 1295 q 409 1239 386 1262 q 466 1215 433 1215 q 522 1239 499 1215 q 546 1295 546 1262 l 676 1295 q 648 1189 676 1237 q 572 1113 619 1142 q 466 1085 524 1085 m 399 1358 l 292 1615 l 419 1615 l 526 1358 l 399 1358 m 28 0 l 343 1000 l 588 1000 l 903 0 l 731 0 l 445 897 l 483 897 l 200 0 l 28 0 m 203 217 l 203 373 l 728 373 l 728 217 l 203 217 z "},"Ẳ":{"ha":931,"x_min":28,"x_max":903,"o":"m 466 1085 q 360 1113 408 1085 q 284 1189 312 1142 q 256 1295 256 1237 l 386 1295 q 409 1239 386 1262 q 466 1215 433 1215 q 523 1239 499 1215 q 546 1295 546 1262 l 676 1295 q 648 1189 676 1237 q 572 1113 619 1142 q 466 1085 524 1085 m 349 1533 l 306 1615 q 398 1660 346 1650 q 497 1649 450 1669 q 567 1572 544 1629 q 579 1488 585 1526 q 550 1420 573 1449 q 494 1373 526 1390 q 428 1350 462 1355 l 397 1419 q 460 1459 436 1431 q 467 1525 485 1487 q 434 1555 455 1550 q 391 1553 413 1560 q 349 1533 368 1546 m 28 0 l 343 1000 l 588 1000 l 903 0 l 731 0 l 445 897 l 483 897 l 200 0 l 28 0 m 203 217 l 203 373 l 728 373 l 728 217 l 203 217 z "},"Ẵ":{"ha":931,"x_min":28,"x_max":903,"o":"m 569 1342 q 506 1357 535 1342 q 448 1391 476 1372 q 396 1425 420 1410 q 352 1440 372 1440 q 322 1417 329 1440 q 322 1361 314 1394 l 217 1361 q 227 1503 197 1445 q 337 1561 256 1561 q 400 1546 370 1561 q 458 1513 431 1531 q 509 1479 485 1494 q 554 1464 533 1464 q 584 1486 576 1464 q 583 1543 593 1509 l 689 1543 q 680 1401 710 1460 q 569 1342 650 1342 m 450 1085 q 344 1113 392 1085 q 268 1189 297 1142 q 240 1295 240 1237 l 370 1295 q 394 1239 370 1262 q 450 1215 417 1215 q 507 1239 483 1215 q 530 1295 530 1262 l 660 1295 q 632 1189 660 1237 q 556 1113 604 1142 q 450 1085 508 1085 m 28 0 l 343 1000 l 588 1000 l 903 0 l 731 0 l 445 897 l 483 897 l 200 0 l 28 0 m 203 217 l 203 373 l 728 373 l 728 217 l 203 217 z "},"Â":{"ha":931,"x_min":28,"x_max":903,"o":"m 204 1108 l 394 1326 l 534 1326 l 724 1108 l 568 1108 l 464 1231 l 360 1108 l 204 1108 m 28 0 l 343 1000 l 588 1000 l 903 0 l 731 0 l 445 897 l 483 897 l 200 0 l 28 0 m 203 217 l 203 373 l 728 373 l 728 217 l 203 217 z "},"Ấ":{"ha":931,"x_min":28,"x_max":926,"o":"m 203 1108 l 393 1326 l 533 1326 l 724 1108 l 567 1108 l 463 1231 l 360 1108 l 203 1108 m 819 1253 l 692 1253 l 799 1510 l 926 1510 l 819 1253 m 28 0 l 343 1000 l 588 1000 l 903 0 l 731 0 l 445 897 l 483 897 l 200 0 l 28 0 m 203 217 l 203 373 l 728 373 l 728 217 l 203 217 z "},"Ậ":{"ha":931,"x_min":28,"x_max":903,"o":"m 380 -269 l 380 -116 l 551 -116 l 551 -269 l 380 -269 m 204 1108 l 394 1326 l 534 1326 l 724 1108 l 568 1108 l 464 1231 l 360 1108 l 204 1108 m 28 0 l 343 1000 l 588 1000 l 903 0 l 731 0 l 445 897 l 483 897 l 200 0 l 28 0 m 203 217 l 203 373 l 728 373 l 728 217 l 203 217 z "},"Ầ":{"ha":931,"x_min":28,"x_max":903,"o":"m 203 1108 l 393 1326 l 533 1326 l 724 1108 l 567 1108 l 463 1231 l 360 1108 l 203 1108 m 701 1253 l 594 1510 l 722 1510 l 828 1253 l 701 1253 m 28 0 l 343 1000 l 588 1000 l 903 0 l 731 0 l 445 897 l 483 897 l 200 0 l 28 0 m 203 217 l 203 373 l 728 373 l 728 217 l 203 217 z "},"Ẩ":{"ha":931,"x_min":28,"x_max":934,"o":"m 204 1108 l 394 1326 l 534 1326 l 724 1108 l 568 1108 l 464 1231 l 360 1108 l 204 1108 m 699 1301 l 655 1383 q 747 1428 694 1419 q 845 1418 799 1438 q 915 1340 892 1397 q 928 1256 934 1294 q 899 1188 922 1217 q 843 1141 876 1159 q 776 1119 810 1124 l 747 1188 q 809 1227 785 1199 q 815 1293 834 1255 q 783 1324 803 1319 q 740 1321 763 1328 q 699 1301 717 1314 m 28 0 l 343 1000 l 588 1000 l 903 0 l 731 0 l 445 897 l 483 897 l 200 0 l 28 0 m 203 217 l 203 373 l 728 373 l 728 217 l 203 217 z "},"Ẫ":{"ha":931,"x_min":28,"x_max":903,"o":"m 203 1108 l 393 1326 l 533 1326 l 723 1108 l 567 1108 l 463 1231 l 359 1108 l 203 1108 m 586 1361 q 523 1376 553 1361 q 466 1409 493 1390 q 414 1443 438 1428 q 369 1458 390 1458 q 339 1435 347 1458 q 340 1380 331 1413 l 235 1380 q 244 1521 215 1463 q 355 1579 274 1579 q 418 1565 388 1579 q 476 1531 448 1550 q 527 1497 503 1512 q 572 1483 551 1483 q 602 1505 593 1483 q 601 1561 610 1528 l 706 1561 q 697 1420 727 1478 q 586 1361 667 1361 m 28 0 l 343 1000 l 588 1000 l 903 0 l 731 0 l 445 897 l 483 897 l 200 0 l 28 0 m 203 217 l 203 373 l 728 373 l 728 217 l 203 217 z "},"Ä":{"ha":931,"x_min":28,"x_max":903,"o":"m 533 1116 l 533 1269 l 686 1269 l 686 1116 l 533 1116 m 247 1116 l 247 1269 l 399 1269 l 399 1116 l 247 1116 m 28 0 l 343 1000 l 588 1000 l 903 0 l 731 0 l 445 897 l 483 897 l 200 0 l 28 0 m 203 217 l 203 373 l 728 373 l 728 217 l 203 217 z "},"Ạ":{"ha":931,"x_min":28,"x_max":903,"o":"m 380 -269 l 380 -116 l 551 -116 l 551 -269 l 380 -269 m 28 0 l 343 1000 l 588 1000 l 903 0 l 731 0 l 445 897 l 483 897 l 200 0 l 28 0 m 203 217 l 203 373 l 728 373 l 728 217 l 203 217 z "},"À":{"ha":931,"x_min":28,"x_max":903,"o":"m 385 1108 l 278 1365 l 405 1365 l 513 1108 l 385 1108 m 903 0 l 731 0 l 449 897 l 486 897 l 200 0 l 28 0 l 343 1000 l 588 1000 l 903 0 m 728 217 l 203 217 l 203 373 l 728 373 l 728 217 z "},"Ả":{"ha":931,"x_min":28,"x_max":903,"o":"m 365 1301 l 322 1383 q 413 1428 361 1419 q 512 1418 465 1438 q 582 1340 559 1397 q 594 1256 601 1294 q 565 1188 588 1217 q 509 1141 542 1159 q 443 1119 477 1124 l 413 1188 q 476 1227 451 1199 q 482 1293 500 1255 q 449 1324 470 1319 q 406 1321 428 1328 q 365 1301 383 1314 m 28 0 l 343 1000 l 588 1000 l 903 0 l 731 0 l 445 897 l 483 897 l 200 0 l 28 0 m 203 217 l 203 373 l 728 373 l 728 217 l 203 217 z "},"Ā":{"ha":931,"x_min":28,"x_max":903,"o":"m 281 1167 l 281 1297 l 651 1297 l 651 1167 l 281 1167 m 28 0 l 343 1000 l 588 1000 l 903 0 l 731 0 l 445 897 l 483 897 l 200 0 l 28 0 m 203 217 l 203 373 l 728 373 l 728 217 l 203 217 z "},"Ą":{"ha":931,"x_min":28,"x_max":903,"o":"m 768 -333 q 691 -311 724 -333 q 638 -255 657 -290 q 619 -181 619 -221 q 647 -81 619 -131 q 723 13 675 -31 q 831 84 771 56 l 903 0 q 826 -53 861 -23 q 770 -114 791 -83 q 750 -168 750 -144 q 762 -197 750 -185 q 790 -209 774 -209 q 815 -203 802 -209 q 842 -185 828 -197 l 901 -263 q 841 -315 877 -297 q 768 -333 806 -333 m 28 0 l 343 1000 l 588 1000 l 903 0 l 731 0 l 445 897 l 483 897 l 200 0 l 28 0 m 203 217 l 203 373 l 728 373 l 728 217 l 203 217 z "},"Å":{"ha":931,"x_min":28,"x_max":903,"o":"m 466 1078 q 377 1102 417 1078 q 312 1166 336 1126 q 288 1256 288 1207 q 312 1346 288 1306 q 377 1411 336 1387 q 466 1435 417 1435 q 556 1411 516 1435 q 621 1346 597 1387 q 645 1256 645 1306 q 621 1166 645 1207 q 556 1102 597 1126 q 466 1078 516 1078 m 467 1180 q 521 1202 499 1180 q 543 1256 543 1225 q 521 1310 543 1288 q 467 1333 499 1333 q 413 1310 435 1333 q 390 1256 390 1288 q 413 1202 390 1225 q 467 1180 435 1180 m 28 0 l 343 1000 l 588 1000 l 903 0 l 731 0 l 445 897 l 483 897 l 200 0 l 28 0 m 203 217 l 203 373 l 728 373 l 728 217 l 203 217 z "},"Ã":{"ha":931,"x_min":28,"x_max":903,"o":"m 582 1146 q 519 1160 549 1146 q 461 1194 489 1175 q 409 1228 433 1213 q 365 1242 385 1242 q 335 1220 343 1242 q 336 1165 327 1197 l 231 1165 q 240 1306 210 1248 q 351 1364 269 1364 q 414 1349 383 1364 q 471 1316 444 1335 q 523 1282 499 1297 q 567 1267 547 1267 q 598 1290 589 1267 q 597 1346 606 1313 l 702 1346 q 693 1205 723 1263 q 582 1146 663 1146 m 28 0 l 343 1000 l 588 1000 l 903 0 l 731 0 l 445 897 l 483 897 l 200 0 l 28 0 m 203 217 l 203 373 l 728 373 l 728 217 l 203 217 z "},"Æ":{"ha":1303,"x_min":28,"x_max":1234,"o":"m 28 0 l 343 1000 l 644 1000 l 644 843 l 408 843 l 482 898 l 200 0 l 28 0 m 203 217 l 203 373 l 717 373 l 717 217 l 203 217 m 588 0 l 588 1000 l 1234 1000 l 1234 843 l 755 843 l 755 597 l 1151 597 l 1151 440 l 755 440 l 755 157 l 1234 157 l 1234 0 l 588 0 z "},"B":{"ha":876,"x_min":97,"x_max":835,"o":"m 97 0 l 97 1000 l 494 1000 q 660 959 595 1000 q 757 856 725 919 q 788 725 788 792 q 749 585 788 642 q 642 507 710 527 l 642 542 q 786 452 737 520 q 835 297 835 384 q 801 142 835 208 q 700 38 767 75 q 534 0 633 0 l 97 0 m 267 158 l 513 158 q 592 175 557 158 q 646 225 626 193 q 666 302 666 258 q 649 374 666 342 q 598 425 631 406 q 518 444 565 444 l 267 444 l 267 158 m 267 601 l 492 601 q 556 615 528 601 q 601 656 585 628 q 618 722 618 683 q 585 809 618 774 q 492 844 551 844 l 267 844 l 267 601 z "},"C":{"ha":1026,"x_min":42,"x_max":970,"o":"m 520 -21 q 263 45 370 -21 q 99 228 156 110 q 42 500 42 345 q 99 772 42 655 q 263 955 156 890 q 520 1021 370 1021 q 808 934 693 1021 q 970 701 924 848 l 801 655 q 702 808 772 753 q 520 863 632 863 q 352 818 419 863 q 252 691 285 773 q 217 500 218 610 q 251 309 217 390 q 352 182 285 227 q 520 137 419 137 q 702 192 632 137 q 801 345 772 248 l 970 299 q 808 66 924 152 q 520 -21 693 -21 z "},"Ć":{"ha":1026,"x_min":42,"x_max":970,"o":"m 600 1108 l 473 1108 l 580 1365 l 707 1365 l 600 1108 m 520 -21 q 263 45 370 -21 q 99 228 156 110 q 42 500 42 345 q 99 772 42 655 q 263 955 156 890 q 520 1021 370 1021 q 808 934 693 1021 q 970 701 924 848 l 801 655 q 702 808 772 753 q 520 863 632 863 q 352 818 419 863 q 252 691 285 773 q 217 500 218 610 q 251 309 217 390 q 352 182 285 227 q 520 137 419 137 q 702 192 632 137 q 801 345 772 248 l 970 299 q 808 66 924 152 q 520 -21 693 -21 z "},"Č":{"ha":1026,"x_min":42,"x_max":970,"o":"m 260 1326 l 417 1326 l 521 1203 l 624 1326 l 781 1326 l 591 1108 l 451 1108 l 260 1326 m 520 -21 q 263 45 370 -21 q 99 228 156 110 q 42 500 42 345 q 99 772 42 655 q 263 955 156 890 q 520 1021 370 1021 q 808 934 693 1021 q 970 701 924 848 l 801 655 q 702 808 772 753 q 520 863 632 863 q 352 818 419 863 q 252 691 285 773 q 217 500 218 610 q 251 309 217 390 q 352 182 285 227 q 520 137 419 137 q 702 192 632 137 q 801 345 772 248 l 970 299 q 808 66 924 152 q 520 -21 693 -21 z "},"Ç":{"ha":1026,"x_min":42,"x_max":970,"o":"m 506 -335 q 453 -328 477 -335 q 409 -310 430 -321 l 446 -211 q 491 -221 474 -221 q 523 -209 512 -221 q 534 -183 534 -197 q 507 -144 534 -156 q 443 -121 480 -131 l 492 22 l 594 22 l 566 -58 q 628 -110 606 -78 q 651 -187 651 -142 q 607 -294 651 -253 q 506 -335 564 -335 m 520 -21 q 263 45 370 -21 q 99 228 156 110 q 42 500 42 345 q 99 772 42 655 q 263 955 156 890 q 520 1021 370 1021 q 808 934 693 1021 q 970 701 924 848 l 801 655 q 702 808 772 753 q 520 863 632 863 q 352 818 419 863 q 252 691 285 773 q 217 500 218 610 q 251 309 217 390 q 352 182 285 227 q 520 137 419 137 q 702 192 632 137 q 801 345 772 248 l 970 299 q 808 66 924 152 q 520 -21 693 -21 z "},"Ĉ":{"ha":1026,"x_min":42,"x_max":970,"o":"m 258 1108 l 448 1326 l 588 1326 l 778 1108 l 622 1108 l 518 1231 l 415 1108 l 258 1108 m 520 -21 q 263 45 370 -21 q 99 228 156 110 q 42 500 42 345 q 99 772 42 655 q 263 955 156 890 q 520 1021 370 1021 q 808 934 693 1021 q 970 701 924 848 l 801 655 q 702 808 772 753 q 520 863 632 863 q 352 818 419 863 q 252 691 285 773 q 217 500 218 610 q 251 309 217 390 q 352 182 285 227 q 520 137 419 137 q 702 192 632 137 q 801 345 772 248 l 970 299 q 808 66 924 152 q 520 -21 693 -21 z "},"Ċ":{"ha":1026,"x_min":42,"x_max":970,"o":"m 442 1148 l 442 1319 l 613 1319 l 613 1148 l 442 1148 m 520 -21 q 263 45 370 -21 q 99 228 156 110 q 42 500 42 345 q 99 772 42 655 q 263 955 156 890 q 520 1021 370 1021 q 808 934 693 1021 q 970 701 924 848 l 801 655 q 702 808 772 753 q 520 863 632 863 q 352 818 419 863 q 252 691 285 773 q 217 500 218 610 q 251 309 217 390 q 352 182 285 227 q 520 137 419 137 q 702 192 632 137 q 801 345 772 248 l 970 299 q 808 66 924 152 q 520 -21 693 -21 z "},"D":{"ha":973,"x_min":97,"x_max":906,"o":"m 97 0 l 97 1000 l 416 1000 q 466 999 428 1000 q 538 994 503 999 q 739 910 656 979 q 863 734 821 841 q 906 500 906 627 q 863 266 906 373 q 739 90 821 159 q 538 6 656 21 q 466 1 503 1 q 416 0 428 0 l 97 0 m 267 158 l 416 158 q 469 159 437 158 q 526 165 501 160 q 642 228 597 178 q 707 350 686 278 q 728 500 728 422 q 707 653 728 581 q 641 773 685 724 q 526 835 596 822 q 469 841 501 840 q 416 842 437 842 l 267 842 l 267 158 z "},"Ð":{"ha":975,"x_min":14,"x_max":908,"o":"m 14 435 l 14 566 l 483 566 l 483 435 l 14 435 m 99 0 l 99 1000 l 418 1000 q 468 999 431 1000 q 540 994 505 999 q 741 910 658 979 q 865 734 823 841 q 908 500 908 627 q 865 266 908 373 q 741 90 823 159 q 540 6 658 21 q 468 1 506 1 q 418 0 431 0 l 99 0 m 269 158 l 418 158 q 471 159 439 158 q 528 165 503 160 q 644 228 599 178 q 709 350 688 278 q 731 500 731 422 q 709 653 731 581 q 643 773 688 724 q 528 835 598 822 q 471 841 503 840 q 418 842 439 842 l 269 842 l 269 158 z "},"Ď":{"ha":973,"x_min":97,"x_max":906,"o":"m 172 1326 l 328 1326 l 431 1203 l 535 1326 l 692 1326 l 501 1108 l 361 1108 l 172 1326 m 97 0 l 97 1000 l 416 1000 q 466 999 428 1000 q 538 994 503 999 q 739 910 656 979 q 863 734 821 841 q 906 500 906 627 q 863 266 906 373 q 739 90 821 159 q 538 6 656 21 q 466 1 503 1 q 416 0 428 0 l 97 0 m 267 158 l 416 158 q 469 159 437 158 q 526 165 501 160 q 642 228 597 178 q 707 350 686 278 q 728 500 728 422 q 707 653 728 581 q 641 773 685 724 q 526 835 596 822 q 469 841 501 840 q 416 842 437 842 l 267 842 l 267 158 z "},"Đ":{"ha":975,"x_min":14,"x_max":908,"o":"m 14 435 l 14 566 l 483 566 l 483 435 l 14 435 m 99 0 l 99 1000 l 418 1000 q 468 999 431 1000 q 540 994 505 999 q 741 910 658 979 q 865 734 823 841 q 908 500 908 627 q 865 266 908 373 q 741 90 823 159 q 540 6 658 21 q 468 1 506 1 q 418 0 431 0 l 99 0 m 269 158 l 418 158 q 471 159 439 158 q 528 165 503 160 q 644 228 599 178 q 709 350 688 278 q 731 500 731 422 q 709 653 731 581 q 643 773 688 724 q 528 835 598 822 q 471 841 503 840 q 418 842 439 842 l 269 842 l 269 158 z "},"E":{"ha":813,"x_min":97,"x_max":743,"o":"m 97 0 l 97 1000 l 743 1000 l 743 843 l 265 843 l 265 597 l 660 597 l 660 440 l 265 440 l 265 157 l 743 157 l 743 0 l 97 0 z "},"É":{"ha":813,"x_min":97,"x_max":743,"o":"m 502 1108 l 376 1108 l 483 1365 l 610 1365 l 502 1108 m 97 0 l 97 1000 l 743 1000 l 743 843 l 265 843 l 265 597 l 660 597 l 660 440 l 265 440 l 265 157 l 743 157 l 743 0 l 97 0 z "},"Ě":{"ha":813,"x_min":97,"x_max":743,"o":"m 165 1326 l 321 1326 l 424 1203 l 528 1326 l 684 1326 l 494 1108 l 354 1108 l 165 1326 m 97 0 l 97 1000 l 743 1000 l 743 843 l 265 843 l 265 597 l 660 597 l 660 440 l 265 440 l 265 157 l 743 157 l 743 0 l 97 0 z "},"Ê":{"ha":813,"x_min":97,"x_max":743,"o":"m 151 1108 l 341 1326 l 481 1326 l 671 1108 l 515 1108 l 411 1231 l 307 1108 l 151 1108 m 97 0 l 97 1000 l 743 1000 l 743 843 l 265 843 l 265 597 l 660 597 l 660 440 l 265 440 l 265 157 l 743 157 l 743 0 l 97 0 z "},"Ế":{"ha":813,"x_min":97,"x_max":884,"o":"m 161 1108 l 351 1326 l 492 1326 l 681 1108 l 525 1108 l 422 1231 l 317 1108 l 161 1108 m 777 1253 l 650 1253 l 757 1510 l 884 1510 l 777 1253 m 97 0 l 97 1000 l 743 1000 l 743 843 l 265 843 l 265 597 l 660 597 l 660 440 l 265 440 l 265 157 l 743 157 l 743 0 l 97 0 z "},"Ệ":{"ha":813,"x_min":97,"x_max":743,"o":"m 335 -269 l 335 -116 l 506 -116 l 506 -269 l 335 -269 m 151 1108 l 341 1326 l 481 1326 l 671 1108 l 515 1108 l 411 1231 l 307 1108 l 151 1108 m 97 0 l 97 1000 l 743 1000 l 743 843 l 265 843 l 265 597 l 660 597 l 660 440 l 265 440 l 265 157 l 743 157 l 743 0 l 97 0 z "},"Ề":{"ha":813,"x_min":97,"x_max":805,"o":"m 180 1108 l 370 1326 l 510 1326 l 700 1108 l 544 1108 l 440 1231 l 336 1108 l 180 1108 m 678 1253 l 571 1510 l 698 1510 l 805 1253 l 678 1253 m 97 0 l 97 1000 l 743 1000 l 743 843 l 265 843 l 265 597 l 660 597 l 660 440 l 265 440 l 265 157 l 743 157 l 743 0 l 97 0 z "},"Ể":{"ha":833,"x_min":97,"x_max":895,"o":"m 165 1108 l 355 1326 l 495 1326 l 685 1108 l 528 1108 l 425 1231 l 322 1108 l 165 1108 m 659 1301 l 616 1383 q 708 1428 656 1419 q 807 1418 760 1438 q 876 1340 853 1397 q 889 1256 895 1294 q 859 1188 883 1217 q 804 1141 836 1159 q 738 1119 772 1124 l 707 1188 q 770 1227 746 1199 q 776 1293 794 1255 q 744 1324 765 1319 q 700 1321 723 1328 q 659 1301 678 1314 m 97 0 l 97 1000 l 743 1000 l 743 843 l 265 843 l 265 597 l 660 597 l 660 440 l 265 440 l 265 157 l 743 157 l 743 0 l 97 0 z "},"Ễ":{"ha":813,"x_min":97,"x_max":743,"o":"m 158 1108 l 347 1326 l 488 1326 l 677 1108 l 521 1108 l 417 1231 l 313 1108 l 158 1108 m 540 1361 q 477 1376 508 1361 q 420 1409 447 1390 q 368 1443 392 1428 q 324 1458 344 1458 q 293 1435 301 1458 q 294 1380 285 1413 l 189 1380 q 198 1521 169 1463 q 309 1579 228 1579 q 372 1565 342 1579 q 430 1531 402 1550 q 482 1497 458 1512 q 526 1483 506 1483 q 556 1505 547 1483 q 555 1561 565 1528 l 660 1561 q 651 1420 681 1478 q 540 1361 622 1361 m 97 0 l 97 1000 l 743 1000 l 743 843 l 265 843 l 265 597 l 660 597 l 660 440 l 265 440 l 265 157 l 743 157 l 743 0 l 97 0 z "},"Ë":{"ha":813,"x_min":97,"x_max":743,"o":"m 483 1116 l 483 1269 l 635 1269 l 635 1116 l 483 1116 m 196 1116 l 196 1269 l 349 1269 l 349 1116 l 196 1116 m 97 0 l 97 1000 l 743 1000 l 743 843 l 265 843 l 265 597 l 660 597 l 660 440 l 265 440 l 265 157 l 743 157 l 743 0 l 97 0 z "},"Ė":{"ha":813,"x_min":97,"x_max":743,"o":"m 335 1148 l 335 1319 l 506 1319 l 506 1148 l 335 1148 m 97 0 l 97 1000 l 743 1000 l 743 843 l 265 843 l 265 597 l 660 597 l 660 440 l 265 440 l 265 157 l 743 157 l 743 0 l 97 0 z "},"Ẹ":{"ha":833,"x_min":97,"x_max":743,"o":"m 335 -269 l 335 -116 l 506 -116 l 506 -269 l 335 -269 m 97 0 l 97 1000 l 743 1000 l 743 843 l 265 843 l 265 597 l 660 597 l 660 440 l 265 440 l 265 157 l 743 157 l 743 0 l 97 0 z "},"È":{"ha":813,"x_min":97,"x_max":743,"o":"m 371 1108 l 264 1365 l 391 1365 l 498 1108 l 371 1108 m 97 0 l 97 1000 l 743 1000 l 743 843 l 265 843 l 265 597 l 660 597 l 660 440 l 265 440 l 265 157 l 743 157 l 743 0 l 97 0 z "},"Ẻ":{"ha":813,"x_min":97,"x_max":743,"o":"m 338 1301 l 295 1383 q 387 1428 335 1419 q 486 1418 439 1438 q 556 1340 533 1397 q 568 1256 574 1294 q 539 1188 562 1217 q 483 1141 515 1159 q 417 1119 450 1124 l 386 1188 q 449 1227 425 1199 q 456 1293 474 1255 q 423 1324 444 1319 q 380 1321 402 1328 q 338 1301 357 1314 m 97 0 l 97 1000 l 743 1000 l 743 843 l 265 843 l 265 597 l 660 597 l 660 440 l 265 440 l 265 157 l 743 157 l 743 0 l 97 0 z "},"Ē":{"ha":813,"x_min":97,"x_max":743,"o":"m 241 1167 l 241 1297 l 611 1297 l 611 1167 l 241 1167 m 97 0 l 97 1000 l 743 1000 l 743 843 l 265 843 l 265 597 l 660 597 l 660 440 l 265 440 l 265 157 l 743 157 l 743 0 l 97 0 z "},"Ę":{"ha":813,"x_min":97,"x_max":743,"o":"m 608 -333 q 530 -311 564 -333 q 477 -255 497 -290 q 458 -181 458 -221 q 486 -81 458 -131 q 563 13 515 -31 q 670 84 610 56 l 743 0 q 666 -53 701 -23 q 610 -114 631 -83 q 589 -168 589 -144 q 601 -197 589 -185 q 629 -209 613 -209 q 655 -203 641 -209 q 681 -185 668 -197 l 741 -263 q 681 -315 716 -297 q 608 -333 645 -333 m 97 0 l 97 1000 l 743 1000 l 743 843 l 265 843 l 265 597 l 660 597 l 660 440 l 265 440 l 265 157 l 743 157 l 743 0 l 97 0 z "},"Ẽ":{"ha":813,"x_min":97,"x_max":743,"o":"m 524 1111 q 461 1126 491 1111 q 403 1159 431 1140 q 352 1193 376 1178 q 308 1208 328 1208 q 277 1185 285 1208 q 278 1130 269 1163 l 173 1130 q 182 1271 153 1213 q 293 1329 212 1329 q 356 1315 326 1329 q 414 1281 386 1300 q 465 1247 441 1262 q 510 1233 490 1233 q 540 1255 531 1233 q 539 1311 549 1278 l 644 1311 q 635 1170 665 1228 q 524 1111 606 1111 m 97 0 l 97 1000 l 743 1000 l 743 843 l 265 843 l 265 597 l 660 597 l 660 440 l 265 440 l 265 157 l 743 157 l 743 0 l 97 0 z "},"F":{"ha":727,"x_min":97,"x_max":699,"o":"m 97 0 l 97 1000 l 699 1000 l 699 833 l 265 833 l 265 583 l 616 583 l 616 417 l 265 417 l 265 0 l 97 0 z "},"G":{"ha":1017,"x_min":42,"x_max":975,"o":"m 510 -21 q 327 14 413 -21 q 178 115 242 48 q 78 278 114 181 q 42 500 42 375 q 103 780 42 664 q 270 959 164 897 q 510 1021 376 1021 q 802 935 694 1021 q 949 694 910 849 l 778 667 q 685 809 749 756 q 520 863 620 863 q 353 819 419 864 q 252 692 286 774 q 219 500 219 610 q 252 309 219 390 q 352 183 285 228 q 520 137 419 138 q 653 164 596 136 q 746 250 710 192 q 794 393 782 307 l 618 393 l 618 524 l 972 524 q 974 492 974 513 q 975 466 975 470 q 919 214 975 324 q 759 42 863 104 q 510 -21 655 -21 z "},"Ğ":{"ha":1017,"x_min":42,"x_max":975,"o":"m 514 1085 q 408 1113 456 1085 q 332 1189 360 1142 q 303 1295 303 1237 l 434 1295 q 457 1239 434 1262 q 514 1215 481 1215 q 570 1239 547 1215 q 594 1295 594 1262 l 724 1295 q 696 1189 724 1237 q 620 1113 667 1142 q 514 1085 572 1085 m 510 -21 q 327 14 413 -21 q 178 115 242 48 q 78 278 114 181 q 42 500 42 375 q 103 780 42 664 q 270 959 164 897 q 510 1021 376 1021 q 802 935 694 1021 q 949 694 910 849 l 778 667 q 685 809 749 756 q 520 863 620 863 q 353 819 419 864 q 252 692 286 774 q 219 500 219 610 q 252 309 219 390 q 352 183 285 228 q 520 137 419 138 q 653 164 596 136 q 746 250 710 192 q 794 393 782 307 l 618 393 l 618 524 l 972 524 q 974 492 974 513 q 975 466 975 470 q 919 214 975 324 q 759 42 863 104 q 510 -21 655 -21 z "},"Ĝ":{"ha":1017,"x_min":42,"x_max":975,"o":"m 243 1108 l 433 1326 l 573 1326 l 763 1108 l 607 1108 l 503 1231 l 399 1108 l 243 1108 m 510 -21 q 327 14 413 -21 q 178 115 242 48 q 78 278 114 181 q 42 500 42 375 q 103 780 42 664 q 270 959 164 897 q 510 1021 376 1021 q 802 935 694 1021 q 949 694 910 849 l 778 667 q 685 809 749 756 q 520 863 620 863 q 353 819 419 864 q 252 692 286 774 q 219 500 219 610 q 252 309 219 390 q 352 183 285 228 q 520 137 419 138 q 653 164 596 136 q 746 250 710 192 q 794 393 782 307 l 618 393 l 618 524 l 972 524 q 974 492 974 513 q 975 466 975 470 q 919 214 975 324 q 759 42 863 104 q 510 -21 655 -21 z "},"Ģ":{"ha":1017,"x_min":42,"x_max":975,"o":"m 452 -424 l 452 -351 q 484 -346 463 -351 q 524 -326 506 -342 q 542 -278 542 -310 l 452 -278 l 452 -116 l 615 -116 l 615 -278 q 568 -384 615 -344 q 452 -424 522 -424 m 510 -21 q 327 14 413 -21 q 178 115 242 48 q 78 278 114 181 q 42 500 42 375 q 103 780 42 664 q 270 959 164 897 q 510 1021 376 1021 q 802 935 694 1021 q 949 694 910 849 l 778 667 q 685 809 749 756 q 520 863 620 863 q 353 819 419 864 q 252 692 286 774 q 219 500 219 610 q 252 309 219 390 q 352 183 285 228 q 520 137 419 138 q 653 164 596 136 q 746 250 710 192 q 794 393 782 307 l 618 393 l 618 524 l 972 524 q 974 492 974 513 q 975 466 975 470 q 919 214 975 324 q 759 42 863 104 q 510 -21 655 -21 z "},"Ġ":{"ha":1017,"x_min":42,"x_max":975,"o":"m 440 1148 l 440 1319 l 610 1319 l 610 1148 l 440 1148 m 510 -21 q 327 14 413 -21 q 178 115 242 48 q 78 278 114 181 q 42 500 42 375 q 103 780 42 664 q 270 959 164 897 q 510 1021 376 1021 q 802 935 694 1021 q 949 694 910 849 l 778 667 q 685 809 749 756 q 520 863 620 863 q 353 819 419 864 q 252 692 286 774 q 219 500 219 610 q 252 309 219 390 q 352 183 285 228 q 520 137 419 138 q 653 164 596 136 q 746 250 710 192 q 794 393 782 307 l 618 393 l 618 524 l 972 524 q 974 492 974 513 q 975 466 975 470 q 919 214 975 324 q 759 42 863 104 q 510 -21 655 -21 z "},"H":{"ha":1002,"x_min":97,"x_max":905,"o":"m 97 0 l 97 1000 l 265 1000 l 265 579 l 738 579 l 738 1000 l 905 1000 l 905 0 l 738 0 l 738 422 l 265 422 l 265 0 l 97 0 z "},"Ħ":{"ha":1030,"x_min":14,"x_max":1016,"o":"m 111 0 l 111 1000 l 278 1000 l 278 579 l 752 579 l 752 1000 l 919 1000 l 919 0 l 752 0 l 752 422 l 278 422 l 278 0 l 111 0 m 14 687 l 14 844 l 1016 844 l 1016 687 l 14 687 z "},"Ĥ":{"ha":1002,"x_min":97,"x_max":905,"o":"m 239 1108 l 428 1326 l 569 1326 l 759 1108 l 603 1108 l 499 1231 l 395 1108 l 239 1108 m 97 0 l 97 1000 l 265 1000 l 265 579 l 738 579 l 738 1000 l 905 1000 l 905 0 l 738 0 l 738 422 l 265 422 l 265 0 l 97 0 z "},"I":{"ha":390,"x_min":111,"x_max":278,"o":"m 111 0 l 111 1000 l 278 1000 l 278 0 l 111 0 z "},"Í":{"ha":390,"x_min":111,"x_max":368,"o":"m 260 1108 l 133 1108 l 241 1365 l 368 1365 l 260 1108 m 111 0 l 111 1000 l 278 1000 l 278 0 l 111 0 z "},"Î":{"ha":390,"x_min":-67,"x_max":452,"o":"m -67 1108 l 122 1326 l 263 1326 l 452 1108 l 296 1108 l 192 1231 l 89 1108 l -67 1108 m 111 0 l 111 1000 l 278 1000 l 278 0 l 111 0 z "},"Ï":{"ha":390,"x_min":-25,"x_max":415,"o":"m 262 1116 l 262 1269 l 415 1269 l 415 1116 l 262 1116 m -25 1116 l -25 1269 l 128 1269 l 128 1116 l -25 1116 m 111 0 l 111 1000 l 278 1000 l 278 0 l 111 0 z "},"İ":{"ha":390,"x_min":109,"x_max":281,"o":"m 109 1148 l 109 1319 l 281 1319 l 281 1148 l 109 1148 m 111 0 l 111 1000 l 278 1000 l 278 0 l 111 0 z "},"Ị":{"ha":390,"x_min":109,"x_max":281,"o":"m 109 -269 l 109 -116 l 281 -116 l 281 -269 l 109 -269 m 111 0 l 111 1000 l 278 1000 l 278 0 l 111 0 z "},"Ì":{"ha":390,"x_min":22,"x_max":278,"o":"m 128 1108 l 22 1365 l 149 1365 l 256 1108 l 128 1108 m 111 0 l 111 1000 l 278 1000 l 278 0 l 111 0 z "},"Ỉ":{"ha":390,"x_min":42,"x_max":321,"o":"m 85 1301 l 42 1383 q 133 1428 81 1419 q 232 1418 185 1438 q 302 1340 279 1397 q 315 1256 321 1294 q 285 1188 308 1217 q 230 1141 263 1159 q 163 1119 197 1124 l 133 1188 q 196 1227 172 1199 q 202 1293 221 1255 q 170 1324 190 1319 q 126 1321 149 1328 q 85 1301 103 1314 m 111 0 l 111 1000 l 278 1000 l 278 0 l 111 0 z "},"Ī":{"ha":390,"x_min":10,"x_max":380,"o":"m 10 1167 l 10 1297 l 380 1297 l 380 1167 l 10 1167 m 111 0 l 111 1000 l 278 1000 l 278 0 l 111 0 z "},"Į":{"ha":390,"x_min":-6,"x_max":278,"o":"m 142 -333 q 65 -311 99 -333 q 13 -255 32 -290 q -6 -181 -6 -221 q 22 -81 -6 -131 q 98 13 50 -31 q 205 84 145 56 l 278 0 q 201 -53 236 -23 q 145 -114 166 -83 q 124 -168 124 -144 q 136 -197 124 -185 q 165 -209 148 -209 q 190 -203 176 -209 q 216 -185 203 -197 l 276 -263 q 216 -315 251 -297 q 142 -333 181 -333 m 111 0 l 111 1000 l 278 1000 l 278 0 l 111 0 z "},"Ĩ":{"ha":390,"x_min":-61,"x_max":451,"o":"m 310 1111 q 247 1126 277 1111 q 190 1159 217 1140 q 138 1193 162 1178 q 94 1208 114 1208 q 64 1185 72 1208 q 64 1130 56 1163 l -42 1130 q -32 1271 -61 1213 q 78 1329 -2 1329 q 142 1315 112 1329 q 200 1281 172 1300 q 251 1247 227 1262 q 296 1233 276 1233 q 326 1255 317 1233 q 325 1311 335 1278 l 431 1311 q 422 1170 451 1228 q 310 1111 392 1111 m 111 0 l 111 1000 l 278 1000 l 278 0 l 111 0 z "},"J":{"ha":695,"x_min":0,"x_max":584,"o":"m 297 -21 q 107 39 183 -21 q 0 200 31 99 l 165 240 q 210 167 173 197 q 291 136 247 136 q 353 152 320 136 q 401 202 385 167 q 413 255 411 224 q 415 327 415 286 l 415 1000 l 584 1000 l 584 327 q 584 245 584 281 q 577 180 583 210 q 551 116 570 149 q 444 12 510 45 q 297 -21 378 -21 z "},"Ĵ":{"ha":695,"x_min":0,"x_max":757,"o":"m 237 1108 l 427 1326 l 567 1326 l 757 1108 l 601 1108 l 497 1231 l 393 1108 l 237 1108 m 297 -21 q 107 39 183 -21 q 0 200 31 99 l 165 240 q 210 167 173 197 q 291 136 247 136 q 353 152 320 136 q 401 202 385 167 q 413 255 411 224 q 415 327 415 286 l 415 1000 l 584 1000 l 584 327 q 584 245 584 281 q 577 180 583 210 q 551 116 570 149 q 444 12 510 45 q 297 -21 378 -21 z "},"K":{"ha":899,"x_min":97,"x_max":899,"o":"m 97 0 l 97 1000 l 265 1000 l 265 536 l 664 1000 l 869 1000 l 440 510 l 899 0 l 686 0 l 265 467 l 265 0 l 97 0 z "},"Ķ":{"ha":899,"x_min":97,"x_max":899,"o":"m 400 -424 l 400 -351 q 432 -346 410 -351 q 472 -326 453 -342 q 489 -278 490 -310 l 400 -278 l 400 -116 l 562 -116 l 562 -278 q 516 -384 562 -344 q 400 -424 470 -424 m 97 0 l 97 1000 l 265 1000 l 265 536 l 664 1000 l 869 1000 l 440 510 l 899 0 l 686 0 l 265 467 l 265 0 l 97 0 z "},"L":{"ha":741,"x_min":111,"x_max":720,"o":"m 111 0 l 111 1000 l 278 1000 l 278 157 l 720 157 l 720 0 l 111 0 z "},"Ĺ":{"ha":741,"x_min":111,"x_max":720,"o":"m 260 1108 l 133 1108 l 241 1365 l 368 1365 l 260 1108 m 111 0 l 111 1000 l 278 1000 l 278 157 l 720 157 l 720 0 l 111 0 z "},"Ľ":{"ha":741,"x_min":111,"x_max":720,"o":"m 111 0 l 111 1000 l 278 1000 l 278 157 l 720 157 l 720 0 l 111 0 m 453 647 l 463 719 q 513 730 494 717 q 539 768 532 744 q 542 824 545 793 l 453 824 l 453 1003 l 624 1003 l 624 817 q 581 680 624 726 q 453 647 538 633 z "},"Ļ":{"ha":741,"x_min":111,"x_max":720,"o":"m 335 -424 l 335 -351 q 367 -346 345 -351 q 406 -326 388 -342 q 424 -278 424 -310 l 335 -278 l 335 -116 l 497 -116 l 497 -278 q 451 -384 497 -344 q 335 -424 405 -424 m 111 0 l 111 1000 l 278 1000 l 278 157 l 720 157 l 720 0 l 111 0 z "},"Ł":{"ha":764,"x_min":44,"x_max":743,"o":"m 44 238 l 44 419 l 522 694 l 522 512 l 44 238 m 134 0 l 134 1000 l 301 1000 l 301 157 l 743 157 l 743 0 l 134 0 z "},"M":{"ha":1188,"x_min":97,"x_max":1090,"o":"m 97 0 l 97 1000 l 248 1000 l 594 292 l 940 1000 l 1090 1000 l 1090 0 l 934 0 l 934 641 l 627 0 l 560 0 l 254 641 l 254 0 l 97 0 z "},"N":{"ha":997,"x_min":97,"x_max":900,"o":"m 97 0 l 97 1000 l 267 1000 l 731 295 l 731 1000 l 900 1000 l 900 0 l 731 0 l 267 705 l 267 0 l 97 0 z "},"Ń":{"ha":997,"x_min":97,"x_max":900,"o":"m 572 1108 l 445 1108 l 552 1365 l 679 1365 l 572 1108 m 97 0 l 97 1000 l 267 1000 l 731 295 l 731 1000 l 900 1000 l 900 0 l 731 0 l 267 705 l 267 0 l 97 0 z "},"Ň":{"ha":997,"x_min":97,"x_max":900,"o":"m 251 1326 l 408 1326 l 512 1203 l 615 1326 l 772 1326 l 582 1108 l 442 1108 l 251 1326 m 97 0 l 97 1000 l 267 1000 l 731 295 l 731 1000 l 900 1000 l 900 0 l 731 0 l 267 705 l 267 0 l 97 0 z "},"Ņ":{"ha":997,"x_min":97,"x_max":900,"o":"m 432 -424 l 432 -351 q 464 -346 442 -351 q 503 -326 485 -342 q 522 -278 522 -310 l 432 -278 l 432 -116 l 594 -116 l 594 -278 q 548 -384 594 -344 q 432 -424 502 -424 m 97 0 l 97 1000 l 267 1000 l 731 295 l 731 1000 l 900 1000 l 900 0 l 731 0 l 267 705 l 267 0 l 97 0 z "},"Ŋ":{"ha":997,"x_min":97,"x_max":900,"o":"m 731 1000 l 900 1000 l 900 -124 q 853 -270 900 -222 q 708 -318 806 -318 q 657 -315 683 -318 q 606 -306 631 -312 l 606 -180 q 641 -183 631 -182 q 662 -184 652 -184 q 736 -165 712 -184 q 760 -104 760 -145 q 745 -36 760 -72 q 688 66 730 -1 l 267 705 l 267 0 l 97 0 l 97 1000 l 267 1000 l 731 295 l 731 1000 z "},"Ñ":{"ha":997,"x_min":97,"x_max":900,"o":"m 630 1111 q 567 1126 597 1111 q 509 1159 537 1140 q 457 1193 481 1178 q 413 1208 433 1208 q 383 1185 390 1208 q 383 1130 375 1163 l 278 1130 q 288 1271 258 1213 q 398 1329 317 1329 q 461 1315 431 1329 q 519 1281 492 1300 q 570 1247 547 1262 q 615 1233 594 1233 q 645 1255 637 1233 q 644 1311 654 1278 l 750 1311 q 741 1170 771 1228 q 630 1111 711 1111 m 97 0 l 97 1000 l 267 1000 l 731 295 l 731 1000 l 900 1000 l 900 0 l 731 0 l 267 705 l 267 0 l 97 0 z "},"O":{"ha":1041,"x_min":42,"x_max":999,"o":"m 520 -21 q 263 45 370 -21 q 99 228 156 110 q 42 500 42 345 q 99 772 42 655 q 263 955 156 890 q 520 1021 370 1021 q 777 955 670 1021 q 942 772 885 890 q 999 500 999 655 q 942 228 999 345 q 777 45 885 110 q 520 -21 670 -21 m 520 137 q 688 181 621 136 q 789 308 755 226 q 822 500 822 390 q 789 691 822 610 q 688 817 755 772 q 520 863 621 862 q 353 819 419 864 q 252 692 286 774 q 219 500 219 610 q 252 309 219 390 q 352 183 285 228 q 520 137 419 138 z "},"Ó":{"ha":1041,"x_min":42,"x_max":999,"o":"m 591 1108 l 464 1108 l 571 1365 l 698 1365 l 591 1108 m 520 -21 q 263 45 370 -21 q 99 228 156 110 q 42 500 42 345 q 99 772 42 655 q 263 955 156 890 q 520 1021 370 1021 q 777 955 670 1021 q 942 772 885 890 q 999 500 999 655 q 942 228 999 345 q 777 45 885 110 q 520 -21 670 -21 m 520 137 q 688 181 621 136 q 789 308 755 226 q 822 500 822 390 q 789 691 822 610 q 688 817 755 772 q 520 863 621 862 q 353 819 419 864 q 252 692 286 774 q 219 500 219 610 q 252 309 219 390 q 352 183 285 228 q 520 137 419 138 z "},"Ô":{"ha":1041,"x_min":42,"x_max":999,"o":"m 258 1108 l 448 1326 l 588 1326 l 778 1108 l 622 1108 l 518 1231 l 415 1108 l 258 1108 m 520 -21 q 263 45 370 -21 q 99 228 156 110 q 42 500 42 345 q 99 772 42 655 q 263 955 156 890 q 520 1021 370 1021 q 777 955 670 1021 q 942 772 885 890 q 999 500 999 655 q 942 228 999 345 q 777 45 885 110 q 520 -21 670 -21 m 520 137 q 688 181 621 136 q 789 308 755 226 q 822 500 822 390 q 789 691 822 610 q 688 817 755 772 q 520 863 621 862 q 353 819 419 864 q 252 692 286 774 q 219 500 219 610 q 252 309 219 390 q 352 183 285 228 q 520 137 419 138 z "},"Ố":{"ha":1041,"x_min":42,"x_max":999,"o":"m 272 1108 l 461 1326 l 601 1326 l 791 1108 l 635 1108 l 531 1231 l 428 1108 l 272 1108 m 887 1253 l 760 1253 l 867 1510 l 994 1510 l 887 1253 m 520 -21 q 263 45 370 -21 q 99 228 156 110 q 42 500 42 345 q 99 772 42 655 q 263 955 156 890 q 520 1021 370 1021 q 777 955 670 1021 q 942 772 885 890 q 999 500 999 655 q 942 228 999 345 q 777 45 885 110 q 520 -21 670 -21 m 520 137 q 688 181 621 136 q 789 308 755 226 q 822 500 822 390 q 789 691 822 610 q 688 817 755 772 q 520 863 621 862 q 353 819 419 864 q 252 692 286 774 q 219 500 219 610 q 252 309 219 390 q 352 183 285 228 q 520 137 419 138 z "},"Ộ":{"ha":1041,"x_min":42,"x_max":999,"o":"m 258 1108 l 448 1326 l 588 1326 l 778 1108 l 622 1108 l 518 1231 l 415 1108 l 258 1108 m 435 -269 l 435 -116 l 606 -116 l 606 -269 l 435 -269 m 520 -21 q 263 45 370 -21 q 99 228 156 110 q 42 500 42 345 q 99 772 42 655 q 263 955 156 890 q 520 1021 370 1021 q 777 955 670 1021 q 942 772 885 890 q 999 500 999 655 q 942 228 999 345 q 777 45 885 110 q 520 -21 670 -21 m 520 137 q 688 181 621 136 q 789 308 755 226 q 822 500 822 390 q 789 691 822 610 q 688 817 755 772 q 520 863 621 862 q 353 819 419 864 q 252 692 286 774 q 219 500 219 610 q 252 309 219 390 q 352 183 285 228 q 520 137 419 138 z "},"Ồ":{"ha":1041,"x_min":42,"x_max":999,"o":"m 258 1108 l 448 1326 l 588 1326 l 778 1108 l 622 1108 l 518 1231 l 415 1108 l 258 1108 m 756 1253 l 649 1510 l 776 1510 l 883 1253 l 756 1253 m 520 -21 q 263 45 370 -21 q 99 228 156 110 q 42 500 42 345 q 99 772 42 655 q 263 955 156 890 q 520 1021 370 1021 q 777 955 670 1021 q 942 772 885 890 q 999 500 999 655 q 942 228 999 345 q 777 45 885 110 q 520 -21 670 -21 m 520 137 q 688 181 621 136 q 789 308 755 226 q 822 500 822 390 q 789 691 822 610 q 688 817 755 772 q 520 863 621 862 q 353 819 419 864 q 252 692 286 774 q 219 500 219 610 q 252 309 219 390 q 352 183 285 228 q 520 137 419 138 z "},"Ổ":{"ha":1041,"x_min":42,"x_max":999,"o":"m 262 1108 l 451 1326 l 592 1326 l 782 1108 l 626 1108 l 522 1231 l 418 1108 l 262 1108 m 756 1301 l 713 1383 q 804 1428 752 1419 q 903 1418 856 1438 q 973 1340 950 1397 q 985 1256 992 1294 q 956 1188 979 1217 q 901 1141 933 1159 q 834 1119 868 1124 l 804 1188 q 867 1227 842 1199 q 873 1293 892 1255 q 841 1324 861 1319 q 797 1321 820 1328 q 756 1301 774 1314 m 520 -21 q 263 45 370 -21 q 99 228 156 110 q 42 500 42 345 q 99 772 42 655 q 263 955 156 890 q 520 1021 370 1021 q 777 955 670 1021 q 942 772 885 890 q 999 500 999 655 q 942 228 999 345 q 777 45 885 110 q 520 -21 670 -21 m 520 137 q 688 181 621 136 q 789 308 755 226 q 822 500 822 390 q 789 691 822 610 q 688 817 755 772 q 520 863 621 862 q 353 819 419 864 q 252 692 286 774 q 219 500 219 610 q 252 309 219 390 q 352 183 285 228 q 520 137 419 138 z "},"Ỗ":{"ha":1041,"x_min":42,"x_max":999,"o":"m 253 1108 l 443 1326 l 583 1326 l 773 1108 l 617 1108 l 513 1231 l 409 1108 l 253 1108 m 636 1361 q 573 1376 603 1361 q 515 1409 543 1390 q 464 1443 488 1428 q 419 1458 440 1458 q 389 1435 397 1458 q 390 1380 381 1413 l 285 1380 q 294 1521 265 1463 q 404 1579 324 1579 q 468 1565 438 1579 q 525 1531 498 1550 q 577 1497 553 1512 q 622 1483 601 1483 q 652 1505 643 1483 q 651 1561 660 1528 l 756 1561 q 747 1420 777 1478 q 636 1361 717 1361 m 520 -21 q 263 45 370 -21 q 99 228 156 110 q 42 500 42 345 q 99 772 42 655 q 263 955 156 890 q 520 1021 370 1021 q 777 955 670 1021 q 942 772 885 890 q 999 500 999 655 q 942 228 999 345 q 777 45 885 110 q 520 -21 670 -21 m 520 137 q 688 181 621 136 q 789 308 755 226 q 822 500 822 390 q 789 691 822 610 q 688 817 755 772 q 520 863 621 862 q 353 819 419 864 q 252 692 286 774 q 219 500 219 610 q 252 309 219 390 q 352 183 285 228 q 520 137 419 138 z "},"Ö":{"ha":1041,"x_min":42,"x_max":999,"o":"m 588 1116 l 588 1269 l 740 1269 l 740 1116 l 588 1116 m 301 1116 l 301 1269 l 453 1269 l 453 1116 l 301 1116 m 520 -21 q 263 45 370 -21 q 99 228 156 110 q 42 500 42 345 q 99 772 42 655 q 263 955 156 890 q 520 1021 370 1021 q 777 955 670 1021 q 942 772 885 890 q 999 500 999 655 q 942 228 999 345 q 777 45 885 110 q 520 -21 670 -21 m 520 137 q 688 181 621 136 q 789 308 755 226 q 822 500 822 390 q 789 691 822 610 q 688 817 755 772 q 520 863 621 862 q 353 819 419 864 q 252 692 286 774 q 219 500 219 610 q 252 309 219 390 q 352 183 285 228 q 520 137 419 138 z "},"Ọ":{"ha":1041,"x_min":42,"x_max":999,"o":"m 432 -269 l 432 -116 l 603 -116 l 603 -269 l 432 -269 m 520 -21 q 263 45 370 -21 q 99 228 156 110 q 42 500 42 345 q 99 772 42 655 q 263 955 156 890 q 520 1021 370 1021 q 777 955 670 1021 q 942 772 885 890 q 999 500 999 655 q 942 228 999 345 q 777 45 885 110 q 520 -21 670 -21 m 520 137 q 688 181 621 136 q 789 308 755 226 q 822 500 822 390 q 789 691 822 610 q 688 817 755 772 q 520 863 621 862 q 353 819 419 864 q 252 692 286 774 q 219 500 219 610 q 252 309 219 390 q 352 183 285 228 q 520 137 419 138 z "},"Ò":{"ha":1041,"x_min":42,"x_max":999,"o":"m 442 1108 l 335 1365 l 461 1365 l 569 1108 l 442 1108 m 520 -21 q 263 45 370 -21 q 99 228 156 110 q 42 500 42 345 q 99 772 42 655 q 263 955 156 890 q 520 1021 370 1021 q 777 955 670 1021 q 942 772 885 890 q 999 500 999 655 q 942 228 999 345 q 777 45 885 110 q 520 -21 670 -21 m 520 137 q 688 181 621 136 q 789 308 755 226 q 822 500 822 390 q 789 691 822 610 q 688 817 755 772 q 520 863 621 862 q 353 819 419 864 q 252 692 286 774 q 219 500 219 610 q 252 309 219 390 q 352 183 285 228 q 520 137 419 138 z "},"Ỏ":{"ha":1041,"x_min":42,"x_max":999,"o":"m 452 1301 l 409 1383 q 501 1428 449 1419 q 600 1418 553 1438 q 669 1340 647 1397 q 682 1256 688 1294 q 652 1188 676 1217 q 597 1141 629 1159 q 531 1119 565 1124 l 500 1188 q 563 1227 539 1199 q 569 1293 588 1255 q 537 1324 558 1319 q 493 1321 516 1328 q 452 1301 471 1314 m 520 -21 q 263 45 370 -21 q 99 228 156 110 q 42 500 42 345 q 99 772 42 655 q 263 955 156 890 q 520 1021 370 1021 q 777 955 670 1021 q 942 772 885 890 q 999 500 999 655 q 942 228 999 345 q 777 45 885 110 q 520 -21 670 -21 m 520 137 q 688 181 621 136 q 789 308 755 226 q 822 500 822 390 q 789 691 822 610 q 688 817 755 772 q 520 863 621 862 q 353 819 419 864 q 252 692 286 774 q 219 500 219 610 q 252 309 219 390 q 352 183 285 228 q 520 137 419 138 z "},"Ơ":{"ha":1041,"x_min":42,"x_max":999,"o":"m 786 1124 l 913 1124 q 906 999 923 1049 q 842 925 889 949 q 743 907 799 904 q 645 935 686 910 l 645 1008 q 699 997 677 999 q 741 1004 722 995 q 782 1054 776 1021 q 786 1124 787 1087 m 520 -21 q 263 45 370 -21 q 99 228 156 110 q 42 500 42 345 q 99 772 42 655 q 263 955 156 890 q 520 1021 370 1021 q 777 955 670 1021 q 942 772 885 890 q 999 500 999 655 q 942 228 999 345 q 777 45 885 110 q 520 -21 670 -21 m 520 137 q 688 181 621 136 q 789 308 755 226 q 822 500 822 390 q 789 691 822 610 q 688 817 755 772 q 520 863 621 862 q 353 819 419 864 q 252 692 286 774 q 219 500 219 610 q 252 309 219 390 q 352 183 285 228 q 520 137 419 138 z "},"Ớ":{"ha":1041,"x_min":42,"x_max":999,"o":"m 786 1124 l 913 1124 q 906 999 923 1049 q 842 925 889 949 q 743 907 799 904 q 645 935 686 910 l 645 1008 q 699 997 677 999 q 741 1004 722 995 q 782 1054 776 1021 q 786 1124 787 1087 m 591 1108 l 464 1108 l 571 1365 l 698 1365 l 591 1108 m 520 -21 q 263 45 370 -21 q 99 228 156 110 q 42 500 42 345 q 99 772 42 655 q 263 955 156 890 q 520 1021 370 1021 q 777 955 670 1021 q 942 772 885 890 q 999 500 999 655 q 942 228 999 345 q 777 45 885 110 q 520 -21 670 -21 m 520 137 q 688 181 621 136 q 789 308 755 226 q 822 500 822 390 q 789 691 822 610 q 688 817 755 772 q 520 863 621 862 q 353 819 419 864 q 252 692 286 774 q 219 500 219 610 q 252 309 219 390 q 352 183 285 228 q 520 137 419 138 z "},"Ợ":{"ha":1041,"x_min":42,"x_max":999,"o":"m 449 -269 l 449 -116 l 620 -116 l 620 -269 l 449 -269 m 786 1124 l 913 1124 q 906 999 923 1049 q 842 925 889 949 q 743 907 799 904 q 645 935 686 910 l 645 1008 q 699 997 677 999 q 741 1004 722 995 q 782 1054 776 1021 q 786 1124 787 1087 m 520 -21 q 263 45 370 -21 q 99 228 156 110 q 42 500 42 345 q 99 772 42 655 q 263 955 156 890 q 520 1021 370 1021 q 777 955 670 1021 q 942 772 885 890 q 999 500 999 655 q 942 228 999 345 q 777 45 885 110 q 520 -21 670 -21 m 520 137 q 688 181 621 136 q 789 308 755 226 q 822 500 822 390 q 789 691 822 610 q 688 817 755 772 q 520 863 621 862 q 353 819 419 864 q 252 692 286 774 q 219 500 219 610 q 252 309 219 390 q 352 183 285 228 q 520 137 419 138 z "},"Ờ":{"ha":1041,"x_min":42,"x_max":999,"o":"m 786 1124 l 913 1124 q 906 999 923 1049 q 842 925 889 949 q 743 907 799 904 q 645 935 686 910 l 645 1008 q 699 997 677 999 q 741 1004 722 995 q 782 1054 776 1021 q 786 1124 787 1087 m 442 1108 l 335 1365 l 461 1365 l 569 1108 l 442 1108 m 520 -21 q 263 45 370 -21 q 99 228 156 110 q 42 500 42 345 q 99 772 42 655 q 263 955 156 890 q 520 1021 370 1021 q 777 955 670 1021 q 942 772 885 890 q 999 500 999 655 q 942 228 999 345 q 777 45 885 110 q 520 -21 670 -21 m 520 137 q 688 181 621 136 q 789 308 755 226 q 822 500 822 390 q 789 691 822 610 q 688 817 755 772 q 520 863 621 862 q 353 819 419 864 q 252 692 286 774 q 219 500 219 610 q 252 309 219 390 q 352 183 285 228 q 520 137 419 138 z "},"Ở":{"ha":1041,"x_min":42,"x_max":999,"o":"m 786 1124 l 913 1124 q 906 999 923 1049 q 842 925 889 949 q 743 907 799 904 q 645 935 686 910 l 645 1008 q 699 997 677 999 q 741 1004 722 995 q 782 1054 776 1021 q 786 1124 787 1087 m 452 1301 l 409 1383 q 501 1428 449 1419 q 600 1418 553 1438 q 669 1340 647 1397 q 682 1256 688 1294 q 652 1188 676 1217 q 597 1141 629 1159 q 531 1119 565 1124 l 500 1188 q 563 1227 539 1199 q 569 1293 588 1255 q 537 1324 558 1319 q 493 1321 516 1328 q 452 1301 471 1314 m 520 -21 q 263 45 370 -21 q 99 228 156 110 q 42 500 42 345 q 99 772 42 655 q 263 955 156 890 q 520 1021 370 1021 q 777 955 670 1021 q 942 772 885 890 q 999 500 999 655 q 942 228 999 345 q 777 45 885 110 q 520 -21 670 -21 m 520 137 q 688 181 621 136 q 789 308 755 226 q 822 500 822 390 q 789 691 822 610 q 688 817 755 772 q 520 863 621 862 q 353 819 419 864 q 252 692 286 774 q 219 500 219 610 q 252 309 219 390 q 352 183 285 228 q 520 137 419 138 z "},"Ỡ":{"ha":1041,"x_min":42,"x_max":999,"o":"m 786 1124 l 913 1124 q 906 999 923 1049 q 842 925 889 949 q 743 907 799 904 q 645 935 686 910 l 645 1008 q 699 997 677 999 q 741 1004 722 995 q 782 1054 776 1021 q 786 1124 787 1087 m 520 -21 q 263 45 370 -21 q 99 228 156 110 q 42 500 42 345 q 99 772 42 655 q 263 955 156 890 q 520 1021 370 1021 q 777 955 670 1021 q 942 772 885 890 q 999 500 999 655 q 942 228 999 345 q 777 45 885 110 q 520 -21 670 -21 m 520 137 q 688 181 621 136 q 789 308 755 226 q 822 500 822 390 q 789 691 822 610 q 688 817 755 772 q 520 863 621 862 q 353 819 419 864 q 252 692 286 774 q 219 500 219 610 q 252 309 219 390 q 352 183 285 228 q 520 137 419 138 m 635 1111 q 572 1126 602 1111 q 514 1159 542 1140 q 463 1193 487 1178 q 418 1208 438 1208 q 388 1185 396 1208 q 389 1130 380 1163 l 283 1130 q 293 1271 263 1213 q 403 1329 322 1329 q 466 1315 436 1329 q 524 1281 497 1300 q 576 1247 552 1262 q 620 1233 600 1233 q 650 1255 642 1233 q 649 1311 659 1278 l 755 1311 q 746 1170 776 1228 q 635 1111 716 1111 z "},"Ő":{"ha":1041,"x_min":42,"x_max":999,"o":"m 716 1108 l 589 1108 l 696 1365 l 823 1365 l 716 1108 m 430 1108 l 303 1108 l 410 1365 l 538 1365 l 430 1108 m 520 -21 q 263 45 370 -21 q 99 228 156 110 q 42 500 42 345 q 99 772 42 655 q 263 955 156 890 q 520 1021 370 1021 q 777 955 670 1021 q 942 772 885 890 q 999 500 999 655 q 942 228 999 345 q 777 45 885 110 q 520 -21 670 -21 m 520 137 q 688 181 621 136 q 789 308 755 226 q 822 500 822 390 q 789 691 822 610 q 688 817 755 772 q 520 863 621 862 q 353 819 419 864 q 252 692 286 774 q 219 500 219 610 q 252 309 219 390 q 352 183 285 228 q 520 137 419 138 z "},"Ō":{"ha":1041,"x_min":42,"x_max":999,"o":"m 335 1167 l 335 1297 l 706 1297 l 706 1167 l 335 1167 m 520 -21 q 263 45 370 -21 q 99 228 156 110 q 42 500 42 345 q 99 772 42 655 q 263 955 156 890 q 520 1021 370 1021 q 777 955 670 1021 q 942 772 885 890 q 999 500 999 655 q 942 228 999 345 q 777 45 885 110 q 520 -21 670 -21 m 520 137 q 688 181 621 136 q 789 308 755 226 q 822 500 822 390 q 789 691 822 610 q 688 817 755 772 q 520 863 621 862 q 353 819 419 864 q 252 692 286 774 q 219 500 219 610 q 252 309 219 390 q 352 183 285 228 q 520 137 419 138 z "},"Ø":{"ha":1041,"x_min":42,"x_max":1006,"o":"m 174 -18 l 56 87 l 170 216 l 192 236 l 748 857 l 757 872 l 888 1017 l 1006 911 l 863 752 l 847 740 l 290 117 l 279 100 l 174 -18 m 520 -21 q 263 45 370 -21 q 99 228 156 110 q 42 500 42 345 q 99 772 42 655 q 263 955 156 890 q 520 1021 370 1021 q 777 955 670 1021 q 942 772 885 890 q 999 500 999 655 q 942 228 999 345 q 777 45 885 110 q 520 -21 670 -21 m 520 137 q 688 181 621 136 q 789 308 755 226 q 822 500 822 390 q 789 691 822 610 q 688 817 755 772 q 520 863 621 862 q 353 819 419 864 q 252 692 286 774 q 219 500 219 610 q 252 309 219 390 q 352 183 285 228 q 520 137 419 138 z "},"Õ":{"ha":1041,"x_min":42,"x_max":999,"o":"m 520 -21 q 263 45 370 -21 q 99 228 156 110 q 42 500 42 345 q 99 772 42 655 q 263 955 156 890 q 520 1021 370 1021 q 777 955 670 1021 q 942 772 885 890 q 999 500 999 655 q 942 228 999 345 q 777 45 885 110 q 520 -21 670 -21 m 520 137 q 688 181 621 136 q 789 308 755 226 q 822 500 822 390 q 789 691 822 610 q 688 817 755 772 q 520 863 621 862 q 353 819 419 864 q 252 692 286 774 q 219 500 219 610 q 252 309 219 390 q 352 183 285 228 q 520 137 419 138 m 645 1111 q 582 1126 613 1111 q 524 1159 552 1140 q 473 1193 497 1178 q 428 1208 449 1208 q 398 1185 406 1208 q 399 1130 390 1163 l 294 1130 q 303 1271 274 1213 q 414 1329 333 1329 q 477 1315 447 1329 q 534 1281 507 1300 q 586 1247 562 1262 q 631 1233 610 1233 q 661 1255 652 1233 q 660 1311 669 1278 l 765 1311 q 756 1170 786 1228 q 645 1111 726 1111 z "},"Œ":{"ha":1546,"x_min":42,"x_max":1476,"o":"m 520 -21 q 263 45 370 -21 q 99 228 156 110 q 42 500 42 345 q 99 772 42 655 q 263 955 156 890 q 520 1021 370 1021 q 777 955 670 1021 q 942 772 885 890 q 999 500 999 655 q 942 228 999 345 q 777 45 885 110 q 520 -21 670 -21 m 520 137 q 688 181 621 136 q 789 308 755 226 q 822 500 822 390 q 789 691 822 610 q 688 817 755 772 q 520 863 621 862 q 353 819 419 864 q 252 692 286 774 q 219 500 219 610 q 252 309 219 390 q 352 183 285 228 q 520 137 419 138 m 831 0 l 831 1000 l 1476 1000 l 1476 843 l 998 843 l 998 597 l 1393 597 l 1393 440 l 998 440 l 998 157 l 1476 157 l 1476 0 l 831 0 z "},"P":{"ha":887,"x_min":97,"x_max":845,"o":"m 97 0 l 97 1000 l 510 1000 q 548 999 525 1000 q 590 994 571 998 q 734 937 677 981 q 818 825 790 892 q 845 674 845 757 q 817 525 845 592 q 733 413 790 457 q 590 355 676 368 q 548 351 571 352 q 510 349 524 349 l 265 349 l 265 0 l 97 0 m 265 506 l 503 506 q 535 507 517 506 q 567 513 552 508 q 632 549 608 523 q 666 609 656 576 q 676 674 676 642 q 666 740 676 706 q 632 800 656 774 q 567 837 608 826 q 535 842 552 841 q 503 843 517 843 l 265 843 l 265 506 z "},"Þ":{"ha":875,"x_min":97,"x_max":835,"o":"m 97 0 l 97 1000 l 267 1000 l 267 826 l 505 826 q 607 809 556 826 q 693 767 653 794 q 763 699 734 739 q 814 606 796 658 q 833 500 833 553 q 816 396 835 447 q 765 303 797 344 q 653 210 722 245 q 505 176 584 176 l 267 176 l 267 0 l 97 0 m 267 333 l 503 333 q 570 350 535 333 q 628 398 605 367 q 655 446 645 420 q 663 500 665 472 q 652 560 663 531 q 621 611 642 590 q 567 651 599 635 q 503 667 535 667 l 267 667 l 267 333 z "},"Q":{"ha":1041,"x_min":42,"x_max":999,"o":"m 880 -21 l 594 263 l 699 368 l 983 84 l 880 -21 m 520 -21 q 263 45 370 -21 q 99 228 156 110 q 42 500 42 345 q 99 772 42 655 q 263 955 156 890 q 520 1021 370 1021 q 777 955 670 1021 q 942 772 885 890 q 999 500 999 655 q 942 228 999 345 q 777 45 885 110 q 520 -21 670 -21 m 520 137 q 688 181 621 136 q 789 308 755 226 q 822 500 822 390 q 789 691 822 610 q 688 817 755 772 q 520 863 621 862 q 353 819 419 864 q 252 692 286 774 q 219 500 219 610 q 252 309 219 390 q 352 183 285 228 q 520 137 419 138 z "},"R":{"ha":917,"x_min":97,"x_max":861,"o":"m 97 0 l 97 1000 l 510 1000 q 548 999 525 1000 q 590 994 571 998 q 734 937 677 981 q 818 825 790 892 q 845 674 845 757 q 783 464 845 552 q 594 356 722 376 l 522 349 l 265 349 l 265 0 l 97 0 m 672 0 l 474 407 l 644 444 l 861 0 l 672 0 m 265 506 l 503 506 q 535 507 517 506 q 567 513 552 508 q 632 549 608 523 q 666 609 656 576 q 676 674 676 642 q 666 740 676 706 q 632 800 656 774 q 567 837 608 826 q 535 842 552 841 q 503 843 517 843 l 265 843 l 265 506 z "},"Ŕ":{"ha":917,"x_min":97,"x_max":861,"o":"m 501 1108 l 374 1108 l 481 1365 l 608 1365 l 501 1108 m 97 0 l 97 1000 l 510 1000 q 548 999 525 1000 q 590 994 571 998 q 734 937 677 981 q 818 825 790 892 q 845 674 845 757 q 783 464 845 552 q 594 356 722 376 l 522 349 l 265 349 l 265 0 l 97 0 m 672 0 l 474 407 l 644 444 l 861 0 l 672 0 m 265 506 l 503 506 q 535 507 517 506 q 567 513 552 508 q 632 549 608 523 q 666 609 656 576 q 676 674 676 642 q 666 740 676 706 q 632 800 656 774 q 567 837 608 826 q 535 842 552 841 q 503 843 517 843 l 265 843 l 265 506 z "},"Ř":{"ha":917,"x_min":97,"x_max":861,"o":"m 164 1326 l 320 1326 l 424 1203 l 528 1326 l 684 1326 l 494 1108 l 353 1108 l 164 1326 m 97 0 l 97 1000 l 510 1000 q 548 999 525 1000 q 590 994 571 998 q 734 937 677 981 q 818 825 790 892 q 845 674 845 757 q 783 464 845 552 q 594 356 722 376 l 522 349 l 265 349 l 265 0 l 97 0 m 672 0 l 474 407 l 644 444 l 861 0 l 672 0 m 265 506 l 503 506 q 535 507 517 506 q 567 513 552 508 q 632 549 608 523 q 666 609 656 576 q 676 674 676 642 q 666 740 676 706 q 632 800 656 774 q 567 837 608 826 q 535 842 552 841 q 503 843 517 843 l 265 843 l 265 506 z "},"Ŗ":{"ha":917,"x_min":97,"x_max":861,"o":"m 375 -424 l 375 -351 q 407 -346 385 -351 q 447 -326 428 -342 q 465 -278 465 -310 l 375 -278 l 375 -116 l 537 -116 l 537 -278 q 491 -384 537 -344 q 375 -424 445 -424 m 97 0 l 97 1000 l 510 1000 q 548 999 525 1000 q 590 994 571 998 q 734 937 677 981 q 818 825 790 892 q 845 674 845 757 q 783 464 845 552 q 594 356 722 376 l 522 349 l 265 349 l 265 0 l 97 0 m 672 0 l 474 407 l 644 444 l 861 0 l 672 0 m 265 506 l 503 506 q 535 507 517 506 q 567 513 552 508 q 632 549 608 523 q 666 609 656 576 q 676 674 676 642 q 666 740 676 706 q 632 800 656 774 q 567 837 608 826 q 535 842 552 841 q 503 843 517 843 l 265 843 l 265 506 z "},"S":{"ha":913,"x_min":53,"x_max":860,"o":"m 467 -21 q 270 17 358 -21 q 125 127 182 56 q 53 296 69 198 l 227 322 q 318 185 249 233 q 478 136 388 136 q 578 153 531 136 q 655 201 626 169 q 685 280 685 233 q 678 318 685 301 q 657 350 671 336 q 623 375 644 364 q 574 395 601 387 l 315 472 q 243 498 282 481 q 170 543 205 514 q 114 616 136 572 q 92 727 92 661 q 141 889 92 824 q 273 988 190 955 q 458 1019 356 1020 q 641 984 560 1019 q 776 885 722 950 q 852 727 830 819 l 672 696 q 630 786 661 749 q 552 842 598 823 q 456 863 507 862 q 363 848 406 864 q 294 803 320 833 q 268 735 268 774 q 290 675 268 699 q 345 639 313 652 q 413 616 378 625 l 592 566 q 674 540 628 556 q 763 493 720 523 q 832 415 805 463 q 860 291 860 366 q 827 155 860 213 q 740 57 795 96 q 615 -1 685 18 q 467 -21 544 -21 z "},"Ś":{"ha":913,"x_min":53,"x_max":860,"o":"m 528 1108 l 401 1108 l 508 1365 l 635 1365 l 528 1108 m 467 -21 q 270 17 358 -21 q 125 127 182 56 q 53 296 69 198 l 227 322 q 318 185 249 233 q 478 136 388 136 q 578 153 531 136 q 655 201 626 169 q 685 280 685 233 q 678 318 685 301 q 657 350 671 336 q 623 375 644 364 q 574 395 601 387 l 315 472 q 243 498 282 481 q 170 543 205 514 q 114 616 136 572 q 92 727 92 661 q 141 889 92 824 q 273 988 190 955 q 458 1019 356 1020 q 641 984 560 1019 q 776 885 722 950 q 852 727 830 819 l 672 696 q 630 786 661 749 q 552 842 598 823 q 456 863 507 862 q 363 848 406 864 q 294 803 320 833 q 268 735 268 774 q 290 675 268 699 q 345 639 313 652 q 413 616 378 625 l 592 566 q 674 540 628 556 q 763 493 720 523 q 832 415 805 463 q 860 291 860 366 q 827 155 860 213 q 740 57 795 96 q 615 -1 685 18 q 467 -21 544 -21 z "},"Š":{"ha":913,"x_min":53,"x_max":860,"o":"m 213 1326 l 369 1326 l 473 1203 l 576 1326 l 733 1326 l 543 1108 l 403 1108 l 213 1326 m 467 -21 q 270 17 358 -21 q 125 127 182 56 q 53 296 69 198 l 227 322 q 318 185 249 233 q 478 136 388 136 q 578 153 531 136 q 655 201 626 169 q 685 280 685 233 q 678 318 685 301 q 657 350 671 336 q 623 375 644 364 q 574 395 601 387 l 315 472 q 243 498 282 481 q 170 543 205 514 q 114 616 136 572 q 92 727 92 661 q 141 889 92 824 q 273 988 190 955 q 458 1019 356 1020 q 641 984 560 1019 q 776 885 722 950 q 852 727 830 819 l 672 696 q 630 786 661 749 q 552 842 598 823 q 456 863 507 862 q 363 848 406 864 q 294 803 320 833 q 268 735 268 774 q 290 675 268 699 q 345 639 313 652 q 413 616 378 625 l 592 566 q 674 540 628 556 q 763 493 720 523 q 832 415 805 463 q 860 291 860 366 q 827 155 860 213 q 740 57 795 96 q 615 -1 685 18 q 467 -21 544 -21 z "},"Ş":{"ha":913,"x_min":53,"x_max":860,"o":"m 467 -335 q 416 -328 440 -335 q 372 -310 392 -321 l 408 -211 q 453 -221 437 -221 q 485 -209 474 -221 q 497 -183 497 -197 q 469 -144 497 -156 q 406 -121 442 -131 l 455 22 l 556 22 l 528 -58 q 591 -110 569 -78 q 613 -187 613 -142 q 570 -294 613 -253 q 467 -335 526 -335 m 467 -21 q 270 17 358 -21 q 125 127 182 56 q 53 296 69 198 l 227 322 q 318 185 249 233 q 478 136 388 136 q 578 153 531 136 q 655 201 626 169 q 685 280 685 233 q 678 318 685 301 q 657 350 671 336 q 623 375 644 364 q 574 395 601 387 l 315 472 q 243 498 282 481 q 170 543 205 514 q 114 616 136 572 q 92 727 92 661 q 141 889 92 824 q 273 988 190 955 q 458 1019 356 1020 q 641 984 560 1019 q 776 885 722 950 q 852 727 830 819 l 672 696 q 630 786 661 749 q 552 842 598 823 q 456 863 507 862 q 363 848 406 864 q 294 803 320 833 q 268 735 268 774 q 290 675 268 699 q 345 639 313 652 q 413 616 378 625 l 592 566 q 674 540 628 556 q 763 493 720 523 q 832 415 805 463 q 860 291 860 366 q 827 155 860 213 q 740 57 795 96 q 615 -1 685 18 q 467 -21 544 -21 z "},"Ŝ":{"ha":913,"x_min":53,"x_max":860,"o":"m 208 1108 l 397 1326 l 538 1326 l 727 1108 l 571 1108 l 467 1231 l 364 1108 l 208 1108 m 467 -21 q 270 17 358 -21 q 125 127 182 56 q 53 296 69 198 l 227 322 q 318 185 249 233 q 478 136 388 136 q 578 153 531 136 q 655 201 626 169 q 685 280 685 233 q 678 318 685 301 q 657 350 671 336 q 623 375 644 364 q 574 395 601 387 l 315 472 q 243 498 282 481 q 170 543 205 514 q 114 616 136 572 q 92 727 92 661 q 141 889 92 824 q 273 988 190 955 q 458 1019 356 1020 q 641 984 560 1019 q 776 885 722 950 q 852 727 830 819 l 672 696 q 630 786 661 749 q 552 842 598 823 q 456 863 507 862 q 363 848 406 864 q 294 803 320 833 q 268 735 268 774 q 290 675 268 699 q 345 639 313 652 q 413 616 378 625 l 592 566 q 674 540 628 556 q 763 493 720 523 q 832 415 805 463 q 860 291 860 366 q 827 155 860 213 q 740 57 795 96 q 615 -1 685 18 q 467 -21 544 -21 z "},"Ș":{"ha":913,"x_min":53,"x_max":860,"o":"m 406 -424 l 406 -351 q 438 -346 417 -351 q 478 -326 460 -342 q 496 -278 496 -310 l 406 -278 l 406 -116 l 569 -116 l 569 -278 q 523 -384 569 -344 q 406 -424 476 -424 m 467 -21 q 270 17 358 -21 q 125 127 182 56 q 53 296 69 198 l 227 322 q 318 185 249 233 q 478 136 388 136 q 578 153 531 136 q 655 201 626 169 q 685 280 685 233 q 678 318 685 301 q 657 350 671 336 q 623 375 644 364 q 574 395 601 387 l 315 472 q 243 498 282 481 q 170 543 205 514 q 114 616 136 572 q 92 727 92 661 q 141 889 92 824 q 273 988 190 955 q 458 1019 356 1020 q 641 984 560 1019 q 776 885 722 950 q 852 727 830 819 l 672 696 q 630 786 661 749 q 552 842 598 823 q 456 863 507 862 q 363 848 406 864 q 294 803 320 833 q 268 735 268 774 q 290 675 268 699 q 345 639 313 652 q 413 616 378 625 l 592 566 q 674 540 628 556 q 763 493 720 523 q 832 415 805 463 q 860 291 860 366 q 827 155 860 213 q 740 57 795 96 q 615 -1 685 18 q 467 -21 544 -21 z "},"ẞ":{"ha":1042,"x_min":96,"x_max":958,"o":"m 640 -21 q 558 -15 596 -21 q 495 0 520 -10 l 495 164 q 555 148 524 153 q 618 143 585 143 q 708 160 668 143 q 772 211 749 176 q 795 299 796 245 q 763 398 795 360 q 678 451 730 435 q 567 469 626 468 l 538 575 l 696 831 q 624 856 662 847 q 543 864 585 864 q 376 819 445 864 q 283 688 308 774 q 269 612 274 655 q 265 526 265 569 l 265 0 l 96 0 l 96 567 q 102 680 96 631 q 122 765 109 728 q 215 911 153 855 q 358 994 277 968 q 528 1021 439 1021 q 691 1002 622 1021 q 811 957 760 984 q 904 903 863 930 l 718 583 q 838 533 783 569 q 925 436 892 496 q 958 294 958 376 q 876 65 958 151 q 640 -21 794 -21 z "},"T":{"ha":842,"x_min":14,"x_max":828,"o":"m 338 0 l 338 843 l 14 843 l 14 1000 l 828 1000 l 828 843 l 505 843 l 505 0 l 338 0 z "},"Ŧ":{"ha":842,"x_min":14,"x_max":828,"o":"m 95 417 l 95 583 l 748 583 l 748 417 l 95 417 m 338 0 l 338 843 l 14 843 l 14 1000 l 828 1000 l 828 843 l 505 843 l 505 0 l 338 0 z "},"Ť":{"ha":842,"x_min":14,"x_max":828,"o":"m 159 1326 l 315 1326 l 419 1203 l 523 1326 l 679 1326 l 489 1108 l 349 1108 l 159 1326 m 338 0 l 338 843 l 14 843 l 14 1000 l 828 1000 l 828 843 l 505 843 l 505 0 l 338 0 z "},"Ţ":{"ha":842,"x_min":14,"x_max":828,"o":"m 338 0 l 338 843 l 14 843 l 14 1000 l 828 1000 l 828 843 l 505 843 l 505 0 l 338 0 m 388 -337 q 336 -330 360 -337 q 292 -312 312 -322 l 328 -212 q 373 -222 357 -222 q 405 -210 394 -222 q 417 -185 417 -198 q 390 -145 417 -158 q 326 -122 363 -133 l 375 20 l 476 21 l 449 -60 q 511 -111 489 -79 q 533 -188 533 -143 q 490 -295 533 -254 q 388 -337 447 -337 z "},"Ț":{"ha":842,"x_min":14,"x_max":828,"o":"m 340 -424 l 340 -351 q 372 -346 351 -351 q 412 -326 394 -342 q 430 -278 430 -310 l 340 -278 l 340 -116 l 502 -116 l 502 -278 q 456 -384 502 -344 q 340 -424 410 -424 m 338 0 l 338 843 l 14 843 l 14 1000 l 828 1000 l 828 843 l 505 843 l 505 0 l 338 0 z "},"U":{"ha":1000,"x_min":97,"x_max":903,"o":"m 500 -21 q 290 28 381 -21 q 148 165 199 76 q 97 372 97 253 l 97 999 l 267 1000 l 267 376 q 286 275 267 319 q 338 200 305 231 q 413 153 370 169 q 500 137 455 137 q 589 153 547 137 q 663 200 631 169 q 715 276 696 231 q 733 376 733 320 l 733 1000 l 903 1000 l 903 372 q 852 165 903 253 q 710 28 801 76 q 500 -21 619 -21 z "},"Ú":{"ha":1000,"x_min":97,"x_max":903,"o":"m 560 1108 l 433 1108 l 540 1365 l 667 1365 l 560 1108 m 500 -21 q 290 28 381 -21 q 148 165 199 76 q 97 372 97 253 l 97 999 l 267 1000 l 267 376 q 286 275 267 319 q 338 200 305 231 q 413 153 370 169 q 500 137 455 137 q 589 153 547 137 q 663 200 631 169 q 715 276 696 231 q 733 376 733 320 l 733 1000 l 903 1000 l 903 372 q 852 165 903 253 q 710 28 801 76 q 500 -21 619 -21 z "},"Ŭ":{"ha":1000,"x_min":97,"x_max":903,"o":"m 500 1085 q 394 1113 442 1085 q 318 1189 347 1142 q 290 1295 290 1237 l 420 1295 q 443 1239 420 1262 q 500 1215 467 1215 q 557 1239 533 1215 q 580 1295 580 1262 l 710 1295 q 682 1189 710 1237 q 606 1113 653 1142 q 500 1085 558 1085 m 500 -21 q 290 28 381 -21 q 148 165 199 76 q 97 372 97 253 l 97 999 l 267 1000 l 267 376 q 286 275 267 319 q 338 200 305 231 q 413 153 370 169 q 500 137 455 137 q 589 153 547 137 q 663 200 631 169 q 715 276 696 231 q 733 376 733 320 l 733 1000 l 903 1000 l 903 372 q 852 165 903 253 q 710 28 801 76 q 500 -21 619 -21 z "},"Û":{"ha":1000,"x_min":97,"x_max":903,"o":"m 238 1108 l 428 1326 l 568 1326 l 758 1108 l 601 1108 l 498 1231 l 394 1108 l 238 1108 m 500 -21 q 290 28 381 -21 q 148 165 199 76 q 97 372 97 253 l 97 999 l 267 1000 l 267 376 q 286 275 267 319 q 338 200 305 231 q 413 153 370 169 q 500 137 455 137 q 589 153 547 137 q 663 200 631 169 q 715 276 696 231 q 733 376 733 320 l 733 1000 l 903 1000 l 903 372 q 852 165 903 253 q 710 28 801 76 q 500 -21 619 -21 z "},"Ü":{"ha":1000,"x_min":97,"x_max":903,"o":"m 567 1116 l 567 1269 l 720 1269 l 720 1116 l 567 1116 m 280 1116 l 280 1269 l 433 1269 l 433 1116 l 280 1116 m 500 -21 q 290 28 381 -21 q 148 165 199 76 q 97 372 97 253 l 97 999 l 267 1000 l 267 376 q 286 275 267 319 q 338 200 305 231 q 413 153 370 169 q 500 137 455 137 q 589 153 547 137 q 663 200 631 169 q 715 276 696 231 q 733 376 733 320 l 733 1000 l 903 1000 l 903 372 q 852 165 903 253 q 710 28 801 76 q 500 -21 619 -21 z "},"Ụ":{"ha":1000,"x_min":97,"x_max":903,"o":"m 438 -269 l 438 -116 l 609 -116 l 609 -269 l 438 -269 m 500 -21 q 290 28 381 -21 q 148 165 199 76 q 97 372 97 253 l 97 999 l 267 1000 l 267 376 q 286 275 267 319 q 338 200 305 231 q 413 153 370 169 q 500 137 455 137 q 589 153 547 137 q 663 200 631 169 q 715 276 696 231 q 733 376 733 320 l 733 1000 l 903 1000 l 903 372 q 852 165 903 253 q 710 28 801 76 q 500 -21 619 -21 z "},"Ù":{"ha":1000,"x_min":97,"x_max":903,"o":"m 449 1108 l 342 1365 l 469 1365 l 576 1108 l 449 1108 m 500 -21 q 290 28 381 -21 q 148 165 199 76 q 97 372 97 253 l 97 999 l 267 1000 l 267 376 q 286 275 267 319 q 338 200 305 231 q 413 153 370 169 q 500 137 455 137 q 589 153 547 137 q 663 200 631 169 q 715 276 696 231 q 733 376 733 320 l 733 1000 l 903 1000 l 903 372 q 852 165 903 253 q 710 28 801 76 q 500 -21 619 -21 z "},"Ủ":{"ha":1000,"x_min":97,"x_max":903,"o":"m 424 1301 l 381 1383 q 472 1428 420 1419 q 571 1418 524 1438 q 642 1340 618 1397 q 654 1256 660 1294 q 625 1188 648 1217 q 569 1141 601 1159 q 503 1119 536 1124 l 472 1188 q 535 1227 511 1199 q 541 1293 560 1255 q 509 1324 529 1319 q 465 1321 488 1328 q 424 1301 442 1314 m 500 -21 q 290 28 381 -21 q 148 165 199 76 q 97 372 97 253 l 97 999 l 267 1000 l 267 376 q 286 275 267 319 q 338 200 305 231 q 413 153 370 169 q 500 137 455 137 q 589 153 547 137 q 663 200 631 169 q 715 276 696 231 q 733 376 733 320 l 733 1000 l 903 1000 l 903 372 q 852 165 903 253 q 710 28 801 76 q 500 -21 619 -21 z "},"Ư":{"ha":1000,"x_min":97,"x_max":1081,"o":"m 944 1124 l 1071 1125 q 1063 1002 1081 1049 q 1001 929 1045 954 q 907 904 960 905 q 811 908 855 903 l 811 1000 q 840 1000 826 1000 q 868 1003 854 1001 q 933 1048 921 1013 q 944 1124 945 1084 m 500 -21 q 290 28 381 -21 q 148 165 199 76 q 97 372 97 253 l 97 999 l 267 1000 l 267 376 q 286 275 267 319 q 338 200 305 231 q 413 153 370 169 q 500 137 455 137 q 589 153 547 137 q 663 200 631 169 q 715 276 696 231 q 733 376 733 320 l 733 1000 l 903 1000 l 903 372 q 852 165 903 253 q 710 28 801 76 q 500 -21 619 -21 z "},"Ứ":{"ha":1000,"x_min":97,"x_max":1081,"o":"m 944 1124 l 1071 1125 q 1063 1002 1081 1049 q 1001 929 1045 954 q 907 904 960 905 q 811 908 855 903 l 811 1000 q 840 1000 826 1000 q 868 1003 854 1001 q 933 1048 921 1013 q 944 1124 945 1084 m 560 1108 l 433 1108 l 540 1365 l 667 1365 l 560 1108 m 500 -21 q 290 28 381 -21 q 148 165 199 76 q 97 372 97 253 l 97 999 l 267 1000 l 267 376 q 286 275 267 319 q 338 200 305 231 q 413 153 370 169 q 500 137 455 137 q 589 153 547 137 q 663 200 631 169 q 715 276 696 231 q 733 376 733 320 l 733 1000 l 903 1000 l 903 372 q 852 165 903 253 q 710 28 801 76 q 500 -21 619 -21 z "},"Ự":{"ha":1000,"x_min":97,"x_max":1081,"o":"m 416 -269 l 416 -116 l 588 -116 l 588 -269 l 416 -269 m 944 1124 l 1071 1125 q 1063 1002 1081 1049 q 1001 929 1045 954 q 907 904 960 905 q 811 908 855 903 l 811 1000 q 840 1000 826 1000 q 868 1003 854 1001 q 933 1048 921 1013 q 944 1124 945 1084 m 500 -21 q 290 28 381 -21 q 148 165 199 76 q 97 372 97 253 l 97 999 l 267 1000 l 267 376 q 286 275 267 319 q 338 200 305 231 q 413 153 370 169 q 500 137 455 137 q 589 153 547 137 q 663 200 631 169 q 715 276 696 231 q 733 376 733 320 l 733 1000 l 903 1000 l 903 372 q 852 165 903 253 q 710 28 801 76 q 500 -21 619 -21 z "},"Ừ":{"ha":1000,"x_min":97,"x_max":1081,"o":"m 944 1124 l 1071 1125 q 1063 1002 1081 1049 q 1001 929 1045 954 q 907 904 960 905 q 811 908 855 903 l 811 1000 q 840 1000 826 1000 q 868 1003 854 1001 q 933 1048 921 1013 q 944 1124 945 1084 m 449 1108 l 342 1365 l 469 1365 l 576 1108 l 449 1108 m 500 -21 q 290 28 381 -21 q 148 165 199 76 q 97 372 97 253 l 97 999 l 267 1000 l 267 376 q 286 275 267 319 q 338 200 305 231 q 413 153 370 169 q 500 137 455 137 q 589 153 547 137 q 663 200 631 169 q 715 276 696 231 q 733 376 733 320 l 733 1000 l 903 1000 l 903 372 q 852 165 903 253 q 710 28 801 76 q 500 -21 619 -21 z "},"Ử":{"ha":1000,"x_min":97,"x_max":1081,"o":"m 944 1124 l 1071 1125 q 1063 1002 1081 1049 q 1001 929 1045 954 q 907 904 960 905 q 811 908 855 903 l 811 1000 q 840 1000 826 1000 q 868 1003 854 1001 q 933 1048 921 1013 q 944 1124 945 1084 m 424 1301 l 381 1383 q 472 1428 420 1419 q 571 1418 524 1438 q 642 1340 618 1397 q 654 1256 660 1294 q 625 1188 648 1217 q 569 1141 601 1159 q 503 1119 536 1124 l 472 1188 q 535 1227 511 1199 q 541 1293 560 1255 q 509 1324 529 1319 q 465 1321 488 1328 q 424 1301 442 1314 m 500 -21 q 290 28 381 -21 q 148 165 199 76 q 97 372 97 253 l 97 999 l 267 1000 l 267 376 q 286 275 267 319 q 338 200 305 231 q 413 153 370 169 q 500 137 455 137 q 589 153 547 137 q 663 200 631 169 q 715 276 696 231 q 733 376 733 320 l 733 1000 l 903 1000 l 903 372 q 852 165 903 253 q 710 28 801 76 q 500 -21 619 -21 z "},"Ữ":{"ha":1000,"x_min":97,"x_max":1081,"o":"m 944 1124 l 1071 1125 q 1063 1002 1081 1049 q 1001 929 1045 954 q 907 904 960 905 q 811 908 855 903 l 811 1000 q 840 1000 826 1000 q 868 1003 854 1001 q 933 1048 921 1013 q 944 1124 945 1084 m 500 -21 q 290 28 381 -21 q 148 165 199 76 q 97 372 97 253 l 97 999 l 267 1000 l 267 376 q 286 275 267 319 q 338 200 305 231 q 413 153 370 169 q 500 137 455 137 q 589 153 547 137 q 663 200 631 169 q 715 276 696 231 q 733 376 733 320 l 733 1000 l 903 1000 l 903 372 q 852 165 903 253 q 710 28 801 76 q 500 -21 619 -21 m 633 1111 q 570 1126 600 1111 q 512 1159 540 1140 q 461 1193 485 1178 q 416 1208 437 1208 q 386 1185 394 1208 q 387 1130 378 1163 l 281 1130 q 291 1271 261 1213 q 401 1329 321 1329 q 465 1315 435 1329 q 522 1281 494 1300 q 574 1247 550 1262 q 618 1233 598 1233 q 649 1255 640 1233 q 648 1311 657 1278 l 753 1311 q 744 1170 774 1228 q 633 1111 714 1111 z "},"Ű":{"ha":1000,"x_min":97,"x_max":903,"o":"m 691 1108 l 564 1108 l 671 1365 l 798 1365 l 691 1108 m 405 1108 l 278 1108 l 385 1365 l 513 1365 l 405 1108 m 500 -21 q 290 28 381 -21 q 148 165 199 76 q 97 372 97 253 l 97 999 l 267 1000 l 267 376 q 286 275 267 319 q 338 200 305 231 q 413 153 370 169 q 500 137 455 137 q 589 153 547 137 q 663 200 631 169 q 715 276 696 231 q 733 376 733 320 l 733 1000 l 903 1000 l 903 372 q 852 165 903 253 q 710 28 801 76 q 500 -21 619 -21 z "},"Ū":{"ha":1000,"x_min":97,"x_max":903,"o":"m 315 1167 l 315 1297 l 685 1297 l 685 1167 l 315 1167 m 500 -21 q 290 28 381 -21 q 148 165 199 76 q 97 372 97 253 l 97 999 l 267 1000 l 267 376 q 286 275 267 319 q 338 200 305 231 q 413 153 370 169 q 500 137 455 137 q 589 153 547 137 q 663 200 631 169 q 715 276 696 231 q 733 376 733 320 l 733 1000 l 903 1000 l 903 372 q 852 165 903 253 q 710 28 801 76 q 500 -21 619 -21 z "},"Ų":{"ha":1000,"x_min":97,"x_max":903,"o":"m 500 -21 q 290 28 381 -21 q 148 165 199 76 q 97 372 97 253 l 97 999 l 267 1000 l 267 376 q 286 275 267 319 q 338 200 305 231 q 413 153 370 169 q 500 137 455 137 q 589 153 547 137 q 663 200 631 169 q 715 276 696 231 q 733 376 733 320 l 733 1000 l 903 1000 l 903 372 q 852 165 903 253 q 710 28 801 76 q 500 -21 619 -21 m 600 -289 q 523 -267 556 -289 q 470 -211 489 -246 q 451 -137 451 -177 q 479 -37 451 -87 q 555 56 507 13 q 663 128 603 99 l 735 44 q 658 -9 693 21 q 602 -70 623 -40 q 581 -124 581 -101 q 593 -153 581 -142 q 622 -165 605 -165 q 647 -159 633 -165 q 673 -141 660 -153 l 733 -219 q 673 -271 708 -253 q 600 -289 638 -289 z "},"Ů":{"ha":1000,"x_min":97,"x_max":903,"o":"m 505 1078 q 415 1102 456 1078 q 350 1166 374 1126 q 326 1256 326 1207 q 350 1346 326 1306 q 415 1411 374 1387 q 505 1435 456 1435 q 594 1411 554 1435 q 659 1346 635 1387 q 683 1256 683 1306 q 659 1166 683 1207 q 594 1102 635 1126 q 505 1078 554 1078 m 505 1180 q 559 1202 537 1180 q 581 1256 581 1225 q 559 1310 581 1288 q 505 1333 537 1333 q 451 1310 474 1333 q 428 1256 428 1288 q 451 1202 428 1225 q 505 1180 474 1180 m 500 -21 q 290 28 381 -21 q 148 165 199 76 q 97 372 97 253 l 97 999 l 267 1000 l 267 376 q 286 275 267 319 q 338 200 305 231 q 413 153 370 169 q 500 137 455 137 q 589 153 547 137 q 663 200 631 169 q 715 276 696 231 q 733 376 733 320 l 733 1000 l 903 1000 l 903 372 q 852 165 903 253 q 710 28 801 76 q 500 -21 619 -21 z "},"Ũ":{"ha":1000,"x_min":97,"x_max":903,"o":"m 500 -21 q 290 28 381 -21 q 148 165 199 76 q 97 372 97 253 l 97 999 l 267 1000 l 267 376 q 286 275 267 319 q 338 200 305 231 q 413 153 370 169 q 500 137 455 137 q 589 153 547 137 q 663 200 631 169 q 715 276 696 231 q 733 376 733 320 l 733 1000 l 903 1000 l 903 372 q 852 165 903 253 q 710 28 801 76 q 500 -21 619 -21 m 627 1111 q 564 1126 594 1111 q 506 1159 534 1140 q 455 1193 478 1178 q 410 1208 431 1208 q 380 1185 388 1208 q 381 1130 372 1163 l 276 1130 q 285 1271 256 1213 q 396 1329 315 1329 q 459 1315 428 1329 q 516 1281 489 1300 q 568 1247 544 1262 q 613 1233 592 1233 q 643 1255 634 1233 q 642 1311 651 1278 l 747 1311 q 738 1170 768 1228 q 627 1111 708 1111 z "},"V":{"ha":890,"x_min":7,"x_max":883,"o":"m 322 0 l 7 1000 l 179 1000 l 443 163 l 710 1000 l 883 1000 l 567 0 l 322 0 z "},"W":{"ha":1355,"x_min":16,"x_max":1339,"o":"m 308 0 l 16 1000 l 192 1000 l 391 278 l 590 999 l 765 1000 l 965 278 l 1163 1000 l 1339 1000 l 1047 0 l 882 0 l 677 711 l 474 0 l 308 0 z "},"Ẃ":{"ha":1355,"x_min":16,"x_max":1339,"o":"m 749 1108 l 622 1108 l 729 1365 l 856 1365 l 749 1108 m 308 0 l 16 1000 l 192 1000 l 391 278 l 590 999 l 765 1000 l 965 278 l 1163 1000 l 1339 1000 l 1047 0 l 882 0 l 677 711 l 474 0 l 308 0 z "},"Ŵ":{"ha":1355,"x_min":16,"x_max":1339,"o":"m 416 1108 l 606 1326 l 746 1326 l 936 1108 l 780 1108 l 676 1231 l 572 1108 l 416 1108 m 308 0 l 16 1000 l 192 1000 l 391 278 l 590 999 l 765 1000 l 965 278 l 1163 1000 l 1339 1000 l 1047 0 l 882 0 l 677 711 l 474 0 l 308 0 z "},"Ẅ":{"ha":1355,"x_min":16,"x_max":1339,"o":"m 745 1116 l 745 1269 l 898 1269 l 898 1116 l 745 1116 m 458 1116 l 458 1269 l 611 1269 l 611 1116 l 458 1116 m 308 0 l 16 1000 l 192 1000 l 391 278 l 590 999 l 765 1000 l 965 278 l 1163 1000 l 1339 1000 l 1047 0 l 882 0 l 677 711 l 474 0 l 308 0 z "},"Ẁ":{"ha":1355,"x_min":16,"x_max":1339,"o":"m 606 1108 l 499 1365 l 626 1365 l 733 1108 l 606 1108 m 308 0 l 16 1000 l 192 1000 l 391 278 l 590 999 l 765 1000 l 965 278 l 1163 1000 l 1339 1000 l 1047 0 l 882 0 l 677 711 l 474 0 l 308 0 z "},"X":{"ha":910,"x_min":14,"x_max":897,"o":"m 14 0 l 353 506 l 24 1000 l 228 1000 l 456 648 l 682 1000 l 888 1000 l 559 506 l 897 0 l 692 0 l 456 363 l 220 0 l 14 0 z "},"Y":{"ha":849,"x_min":0,"x_max":849,"o":"m 340 0 l 340 410 l 0 1000 l 195 1000 l 425 601 l 654 1000 l 849 1000 l 510 410 l 510 0 l 340 0 z "},"Ý":{"ha":849,"x_min":0,"x_max":849,"o":"m 484 1108 l 357 1108 l 465 1365 l 592 1365 l 484 1108 m 340 0 l 340 410 l 0 1000 l 195 1000 l 425 601 l 654 1000 l 849 1000 l 510 410 l 510 0 l 340 0 z "},"Ŷ":{"ha":849,"x_min":0,"x_max":849,"o":"m 163 1108 l 352 1326 l 492 1326 l 683 1108 l 526 1108 l 422 1231 l 319 1108 l 163 1108 m 340 0 l 340 410 l 0 1000 l 195 1000 l 425 601 l 654 1000 l 849 1000 l 510 410 l 510 0 l 340 0 z "},"Ÿ":{"ha":849,"x_min":0,"x_max":849,"o":"m 492 1116 l 492 1269 l 644 1269 l 644 1116 l 492 1116 m 205 1116 l 205 1269 l 358 1269 l 358 1116 l 205 1116 m 340 0 l 340 410 l 0 1000 l 195 1000 l 425 601 l 654 1000 l 849 1000 l 510 410 l 510 0 l 340 0 z "},"Ỵ":{"ha":849,"x_min":0,"x_max":849,"o":"m 339 -269 l 339 -116 l 510 -116 l 510 -269 l 339 -269 m 340 0 l 340 410 l 0 1000 l 195 1000 l 425 601 l 654 1000 l 849 1000 l 510 410 l 510 0 l 340 0 z "},"Ỳ":{"ha":849,"x_min":0,"x_max":849,"o":"m 363 1108 l 256 1365 l 383 1365 l 490 1108 l 363 1108 m 340 0 l 340 410 l 0 1000 l 195 1000 l 425 601 l 654 1000 l 849 1000 l 510 410 l 510 0 l 340 0 z "},"Ỷ":{"ha":849,"x_min":0,"x_max":849,"o":"m 331 1301 l 288 1383 q 380 1428 327 1419 q 478 1418 432 1438 q 549 1340 525 1397 q 561 1256 567 1294 q 532 1188 555 1217 q 476 1141 508 1159 q 410 1119 443 1124 l 379 1188 q 442 1227 418 1199 q 448 1293 467 1255 q 416 1324 436 1319 q 372 1321 395 1328 q 331 1301 349 1314 m 340 0 l 340 410 l 0 1000 l 195 1000 l 425 601 l 654 1000 l 849 1000 l 510 410 l 510 0 l 340 0 z "},"Ỹ":{"ha":849,"x_min":0,"x_max":849,"o":"m 545 1111 q 482 1126 512 1111 q 424 1159 452 1140 q 373 1193 397 1178 q 328 1208 349 1208 q 298 1185 306 1208 q 299 1130 290 1163 l 193 1130 q 203 1271 174 1213 q 313 1329 233 1329 q 377 1315 347 1329 q 434 1281 407 1300 q 486 1247 462 1262 q 531 1233 510 1233 q 561 1255 552 1233 q 560 1311 569 1278 l 665 1311 q 656 1170 686 1228 q 545 1111 626 1111 m 340 0 l 340 410 l 0 1000 l 195 1000 l 425 601 l 654 1000 l 849 1000 l 510 410 l 510 0 l 340 0 z "},"Z":{"ha":922,"x_min":69,"x_max":852,"o":"m 69 0 l 69 23 l 563 843 l 104 843 l 104 1000 l 852 1000 l 852 976 l 362 158 l 840 158 l 840 0 l 69 0 z "},"Ź":{"ha":922,"x_min":69,"x_max":852,"o":"m 530 1108 l 403 1108 l 510 1365 l 637 1365 l 530 1108 m 69 0 l 69 23 l 563 843 l 104 843 l 104 1000 l 852 1000 l 852 976 l 362 158 l 840 158 l 840 0 l 69 0 z "},"Ž":{"ha":922,"x_min":69,"x_max":852,"o":"m 210 1326 l 367 1326 l 470 1203 l 574 1326 l 730 1326 l 540 1108 l 400 1108 l 210 1326 m 69 0 l 69 23 l 563 843 l 104 843 l 104 1000 l 852 1000 l 852 976 l 362 158 l 840 158 l 840 0 l 69 0 z "},"Ż":{"ha":922,"x_min":69,"x_max":852,"o":"m 399 1148 l 399 1319 l 570 1319 l 570 1148 l 399 1148 m 69 0 l 69 23 l 563 843 l 104 843 l 104 1000 l 852 1000 l 852 976 l 362 158 l 840 158 l 840 0 l 69 0 z "},"a":{"ha":800,"x_min":56,"x_max":717,"o":"m 307 -21 q 169 10 226 -21 q 84 92 113 41 q 56 206 56 144 q 74 303 56 260 q 129 378 92 347 q 226 430 167 410 q 332 456 272 444 q 464 478 393 468 q 613 500 535 488 l 553 466 q 519 581 554 544 q 399 617 483 617 q 301 594 349 617 q 235 513 254 570 l 83 560 q 189 713 110 656 q 399 771 267 771 q 575 738 499 771 q 688 631 651 706 q 713 550 708 592 q 717 460 717 509 l 717 0 l 570 0 l 570 163 l 594 136 q 476 17 544 55 q 307 -21 408 -21 m 340 113 q 438 133 397 113 q 502 182 478 153 q 534 237 526 211 q 549 310 547 269 q 551 377 551 351 l 602 362 q 472 341 526 350 q 379 324 418 332 q 310 306 340 316 q 261 282 281 296 q 230 250 241 268 q 219 208 219 232 q 233 159 219 180 q 274 125 247 138 q 340 113 301 113 z "},"á":{"ha":800,"x_min":56,"x_max":717,"o":"m 476 858 l 349 858 l 457 1115 l 584 1115 l 476 858 m 307 -21 q 169 10 226 -21 q 84 92 113 41 q 56 206 56 144 q 74 303 56 260 q 129 378 92 347 q 226 430 167 410 q 332 456 272 444 q 464 478 393 468 q 613 500 535 488 l 553 466 q 519 581 554 544 q 399 617 483 617 q 301 594 349 617 q 235 513 254 570 l 83 560 q 189 713 110 656 q 399 771 267 771 q 575 738 499 771 q 688 631 651 706 q 713 550 708 592 q 717 460 717 509 l 717 0 l 570 0 l 570 163 l 594 136 q 476 17 544 55 q 307 -21 408 -21 m 340 113 q 438 133 397 113 q 502 182 478 153 q 534 237 526 211 q 549 310 547 269 q 551 377 551 351 l 602 362 q 472 341 526 350 q 379 324 418 332 q 310 306 340 316 q 261 282 281 296 q 230 250 241 268 q 219 208 219 232 q 233 159 219 180 q 274 125 247 138 q 340 113 301 113 z "},"ă":{"ha":800,"x_min":56,"x_max":717,"o":"m 408 835 q 302 863 349 835 q 226 939 254 892 q 197 1045 197 987 l 328 1045 q 351 989 328 1012 q 408 965 374 965 q 464 989 441 965 q 488 1045 488 1012 l 618 1045 q 590 939 618 987 q 513 863 561 892 q 408 835 465 835 m 307 -21 q 169 10 226 -21 q 84 92 113 41 q 56 206 56 144 q 74 303 56 260 q 129 378 92 347 q 226 430 167 410 q 332 456 272 444 q 464 478 393 468 q 613 500 535 488 l 553 466 q 519 581 554 544 q 399 617 483 617 q 301 594 349 617 q 235 513 254 570 l 83 560 q 189 713 110 656 q 399 771 267 771 q 575 738 499 771 q 688 631 651 706 q 713 550 708 592 q 717 460 717 509 l 717 0 l 570 0 l 570 163 l 594 136 q 476 17 544 55 q 307 -21 408 -21 m 340 113 q 438 133 397 113 q 502 182 478 153 q 534 237 526 211 q 549 310 547 269 q 551 377 551 351 l 602 362 q 472 341 526 350 q 379 324 418 332 q 310 306 340 316 q 261 282 281 296 q 230 250 241 268 q 219 208 219 232 q 233 159 219 180 q 274 125 247 138 q 340 113 301 113 z "},"ắ":{"ha":800,"x_min":56,"x_max":717,"o":"m 406 835 q 300 863 347 835 q 224 939 252 892 q 195 1045 195 987 l 326 1045 q 349 989 326 1012 q 406 965 372 965 q 462 989 439 965 q 485 1045 485 1012 l 616 1045 q 588 939 616 987 q 511 863 559 892 q 406 835 464 835 m 472 1108 l 345 1108 l 452 1365 l 579 1365 l 472 1108 m 307 -21 q 169 10 226 -21 q 84 92 113 41 q 56 206 56 144 q 74 303 56 260 q 129 378 92 347 q 226 430 167 410 q 332 456 272 444 q 464 478 393 468 q 613 500 535 488 l 553 466 q 519 581 554 544 q 399 617 483 617 q 301 594 349 617 q 235 513 254 570 l 83 560 q 189 713 110 656 q 399 771 267 771 q 575 738 499 771 q 688 631 651 706 q 713 550 708 592 q 717 460 717 509 l 717 0 l 570 0 l 570 163 l 594 136 q 476 17 544 55 q 307 -21 408 -21 m 340 113 q 438 133 397 113 q 502 182 478 153 q 534 237 526 211 q 549 310 547 269 q 551 377 551 351 l 602 362 q 472 341 526 350 q 379 324 418 332 q 310 306 340 316 q 261 282 281 296 q 230 250 241 268 q 219 208 219 232 q 233 159 219 180 q 274 125 247 138 q 340 113 301 113 z "},"ặ":{"ha":800,"x_min":56,"x_max":717,"o":"m 321 -269 l 321 -116 l 492 -116 l 492 -269 l 321 -269 m 408 835 q 302 863 349 835 q 226 939 254 892 q 197 1045 197 987 l 328 1045 q 351 989 328 1012 q 408 965 374 965 q 464 989 441 965 q 488 1045 488 1012 l 618 1045 q 590 939 618 987 q 513 863 561 892 q 408 835 465 835 m 307 -21 q 169 10 226 -21 q 84 92 113 41 q 56 206 56 144 q 74 303 56 260 q 129 378 92 347 q 226 430 167 410 q 332 456 272 444 q 464 478 393 468 q 613 500 535 488 l 553 466 q 519 581 554 544 q 399 617 483 617 q 301 594 349 617 q 235 513 254 570 l 83 560 q 189 713 110 656 q 399 771 267 771 q 575 738 499 771 q 688 631 651 706 q 713 550 708 592 q 717 460 717 509 l 717 0 l 570 0 l 570 163 l 594 136 q 476 17 544 55 q 307 -21 408 -21 m 340 113 q 438 133 397 113 q 502 182 478 153 q 534 237 526 211 q 549 310 547 269 q 551 377 551 351 l 602 362 q 472 341 526 350 q 379 324 418 332 q 310 306 340 316 q 261 282 281 296 q 230 250 241 268 q 219 208 219 232 q 233 159 219 180 q 274 125 247 138 q 340 113 301 113 z "},"ằ":{"ha":800,"x_min":56,"x_max":717,"o":"m 409 835 q 303 863 351 835 q 227 939 256 892 q 199 1045 199 987 l 329 1045 q 352 989 329 1012 q 409 965 376 965 q 465 989 442 965 q 489 1045 489 1012 l 619 1045 q 591 939 619 987 q 515 863 563 892 q 409 835 467 835 m 342 1108 l 235 1365 l 363 1365 l 469 1108 l 342 1108 m 307 -21 q 169 10 226 -21 q 84 92 113 41 q 56 206 56 144 q 74 303 56 260 q 129 378 92 347 q 226 430 167 410 q 332 456 272 444 q 464 478 393 468 q 613 500 535 488 l 553 466 q 519 581 554 544 q 399 617 483 617 q 301 594 349 617 q 235 513 254 570 l 83 560 q 189 713 110 656 q 399 771 267 771 q 575 738 499 771 q 688 631 651 706 q 713 550 708 592 q 717 460 717 509 l 717 0 l 570 0 l 570 163 l 594 136 q 476 17 544 55 q 307 -21 408 -21 m 340 113 q 438 133 397 113 q 502 182 478 153 q 534 237 526 211 q 549 310 547 269 q 551 377 551 351 l 602 362 q 472 341 526 350 q 379 324 418 332 q 310 306 340 316 q 261 282 281 296 q 230 250 241 268 q 219 208 219 232 q 233 159 219 180 q 274 125 247 138 q 340 113 301 113 z "},"ẳ":{"ha":800,"x_min":56,"x_max":717,"o":"m 427 835 q 321 863 369 835 q 245 939 274 892 q 217 1045 217 987 l 347 1045 q 370 989 347 1012 q 427 965 394 965 q 484 989 460 965 q 507 1045 507 1012 l 638 1045 q 609 939 638 987 q 533 863 581 892 q 427 835 485 835 m 310 1283 l 267 1365 q 359 1410 307 1400 q 458 1399 411 1419 q 528 1322 505 1379 q 540 1238 547 1276 q 511 1170 534 1199 q 455 1123 488 1140 q 389 1100 423 1105 l 359 1169 q 422 1209 397 1181 q 428 1275 446 1237 q 395 1305 416 1300 q 352 1303 374 1310 q 310 1283 329 1296 m 307 -21 q 169 10 226 -21 q 84 92 113 41 q 56 206 56 144 q 74 303 56 260 q 129 378 92 347 q 226 430 167 410 q 332 456 272 444 q 464 478 393 468 q 613 500 535 488 l 553 466 q 519 581 554 544 q 399 617 483 617 q 301 594 349 617 q 235 513 254 570 l 83 560 q 189 713 110 656 q 399 771 267 771 q 575 738 499 771 q 688 631 651 706 q 713 550 708 592 q 717 460 717 509 l 717 0 l 570 0 l 570 163 l 594 136 q 476 17 544 55 q 307 -21 408 -21 m 340 113 q 438 133 397 113 q 502 182 478 153 q 534 237 526 211 q 549 310 547 269 q 551 377 551 351 l 602 362 q 472 341 526 350 q 379 324 418 332 q 310 306 340 316 q 261 282 281 296 q 230 250 241 268 q 219 208 219 232 q 233 159 219 180 q 274 125 247 138 q 340 113 301 113 z "},"ẵ":{"ha":800,"x_min":56,"x_max":717,"o":"m 522 1092 q 459 1107 489 1092 q 401 1141 428 1122 q 349 1175 374 1160 q 305 1190 325 1190 q 275 1167 283 1190 q 276 1111 267 1144 l 170 1111 q 180 1253 150 1195 q 290 1311 209 1311 q 353 1296 323 1311 q 411 1263 383 1281 q 463 1229 439 1244 q 507 1214 487 1214 q 537 1236 528 1214 q 536 1293 546 1259 l 642 1293 q 633 1151 663 1210 q 522 1092 603 1092 m 403 835 q 298 863 345 835 q 222 939 250 892 q 193 1045 193 987 l 324 1045 q 347 989 324 1012 q 403 965 370 965 q 460 989 437 965 q 483 1045 483 1012 l 614 1045 q 585 939 614 987 q 509 863 557 892 q 403 835 462 835 m 307 -21 q 169 10 226 -21 q 84 92 113 41 q 56 206 56 144 q 74 303 56 260 q 129 378 92 347 q 226 430 167 410 q 332 456 272 444 q 464 478 393 468 q 613 500 535 488 l 553 466 q 519 581 554 544 q 399 617 483 617 q 301 594 349 617 q 235 513 254 570 l 83 560 q 189 713 110 656 q 399 771 267 771 q 575 738 499 771 q 688 631 651 706 q 713 550 708 592 q 717 460 717 509 l 717 0 l 570 0 l 570 163 l 594 136 q 476 17 544 55 q 307 -21 408 -21 m 340 113 q 438 133 397 113 q 502 182 478 153 q 534 237 526 211 q 549 310 547 269 q 551 377 551 351 l 602 362 q 472 341 526 350 q 379 324 418 332 q 310 306 340 316 q 261 282 281 296 q 230 250 241 268 q 219 208 219 232 q 233 159 219 180 q 274 125 247 138 q 340 113 301 113 z "},"â":{"ha":800,"x_min":56,"x_max":717,"o":"m 149 858 l 340 1076 l 480 1076 l 669 858 l 513 858 l 410 981 l 306 858 l 149 858 m 307 -21 q 169 10 226 -21 q 84 92 113 41 q 56 206 56 144 q 74 303 56 260 q 129 378 92 347 q 226 430 167 410 q 332 456 272 444 q 464 478 393 468 q 613 500 535 488 l 553 466 q 519 581 554 544 q 399 617 483 617 q 301 594 349 617 q 235 513 254 570 l 83 560 q 189 713 110 656 q 399 771 267 771 q 575 738 499 771 q 688 631 651 706 q 713 550 708 592 q 717 460 717 509 l 717 0 l 570 0 l 570 163 l 594 136 q 476 17 544 55 q 307 -21 408 -21 m 340 113 q 438 133 397 113 q 502 182 478 153 q 534 237 526 211 q 549 310 547 269 q 551 377 551 351 l 602 362 q 472 341 526 350 q 379 324 418 332 q 310 306 340 316 q 261 282 281 296 q 230 250 241 268 q 219 208 219 232 q 233 159 219 180 q 274 125 247 138 q 340 113 301 113 z "},"ấ":{"ha":800,"x_min":56,"x_max":878,"o":"m 156 858 l 345 1076 l 485 1076 l 676 858 l 519 858 l 415 981 l 312 858 l 156 858 m 771 1003 l 644 1003 l 751 1260 l 878 1260 l 771 1003 m 307 -21 q 169 10 226 -21 q 84 92 113 41 q 56 206 56 144 q 74 303 56 260 q 129 378 92 347 q 226 430 167 410 q 332 456 272 444 q 464 478 393 468 q 613 500 535 488 l 553 466 q 519 581 554 544 q 399 617 483 617 q 301 594 349 617 q 235 513 254 570 l 83 560 q 189 713 110 656 q 399 771 267 771 q 575 738 499 771 q 688 631 651 706 q 713 550 708 592 q 717 460 717 509 l 717 0 l 570 0 l 570 163 l 594 136 q 476 17 544 55 q 307 -21 408 -21 m 340 113 q 438 133 397 113 q 502 182 478 153 q 534 237 526 211 q 549 310 547 269 q 551 377 551 351 l 602 362 q 472 341 526 350 q 379 324 418 332 q 310 306 340 316 q 261 282 281 296 q 230 250 241 268 q 219 208 219 232 q 233 159 219 180 q 274 125 247 138 q 340 113 301 113 z "},"ậ":{"ha":800,"x_min":56,"x_max":717,"o":"m 321 -269 l 321 -116 l 492 -116 l 492 -269 l 321 -269 m 149 858 l 340 1076 l 480 1076 l 669 858 l 513 858 l 410 981 l 306 858 l 149 858 m 307 -21 q 169 10 226 -21 q 84 92 113 41 q 56 206 56 144 q 74 303 56 260 q 129 378 92 347 q 226 430 167 410 q 332 456 272 444 q 464 478 393 468 q 613 500 535 488 l 553 466 q 519 581 554 544 q 399 617 483 617 q 301 594 349 617 q 235 513 254 570 l 83 560 q 189 713 110 656 q 399 771 267 771 q 575 738 499 771 q 688 631 651 706 q 713 550 708 592 q 717 460 717 509 l 717 0 l 570 0 l 570 163 l 594 136 q 476 17 544 55 q 307 -21 408 -21 m 340 113 q 438 133 397 113 q 502 182 478 153 q 534 237 526 211 q 549 310 547 269 q 551 377 551 351 l 602 362 q 472 341 526 350 q 379 324 418 332 q 310 306 340 316 q 261 282 281 296 q 230 250 241 268 q 219 208 219 232 q 233 159 219 180 q 274 125 247 138 q 340 113 301 113 z "},"ầ":{"ha":800,"x_min":56,"x_max":776,"o":"m 152 858 l 342 1076 l 482 1076 l 672 858 l 515 858 l 412 981 l 308 858 l 152 858 m 649 1003 l 542 1260 l 669 1260 l 776 1003 l 649 1003 m 307 -21 q 169 10 226 -21 q 84 92 113 41 q 56 206 56 144 q 74 303 56 260 q 129 378 92 347 q 226 430 167 410 q 332 456 272 444 q 464 478 393 468 q 613 500 535 488 l 553 466 q 519 581 554 544 q 399 617 483 617 q 301 594 349 617 q 235 513 254 570 l 83 560 q 189 713 110 656 q 399 771 267 771 q 575 738 499 771 q 688 631 651 706 q 713 550 708 592 q 717 460 717 509 l 717 0 l 570 0 l 570 163 l 594 136 q 476 17 544 55 q 307 -21 408 -21 m 340 113 q 438 133 397 113 q 502 182 478 153 q 534 237 526 211 q 549 310 547 269 q 551 377 551 351 l 602 362 q 472 341 526 350 q 379 324 418 332 q 310 306 340 316 q 261 282 281 296 q 230 250 241 268 q 219 208 219 232 q 233 159 219 180 q 274 125 247 138 q 340 113 301 113 z "},"ẩ":{"ha":800,"x_min":56,"x_max":875,"o":"m 145 858 l 335 1076 l 476 1076 l 665 858 l 509 858 l 406 981 l 301 858 l 145 858 m 640 1051 l 597 1133 q 688 1178 635 1169 q 787 1168 740 1188 q 857 1090 833 1147 q 869 1006 875 1044 q 840 938 863 967 q 784 891 817 909 q 718 869 751 874 l 688 938 q 751 977 726 949 q 756 1043 775 1005 q 724 1074 744 1069 q 681 1071 703 1078 q 640 1051 658 1064 m 307 -21 q 169 10 226 -21 q 84 92 113 41 q 56 206 56 144 q 74 303 56 260 q 129 378 92 347 q 226 430 167 410 q 332 456 272 444 q 464 478 393 468 q 613 500 535 488 l 553 466 q 519 581 554 544 q 399 617 483 617 q 301 594 349 617 q 235 513 254 570 l 83 560 q 189 713 110 656 q 399 771 267 771 q 575 738 499 771 q 688 631 651 706 q 713 550 708 592 q 717 460 717 509 l 717 0 l 570 0 l 570 163 l 594 136 q 476 17 544 55 q 307 -21 408 -21 m 340 113 q 438 133 397 113 q 502 182 478 153 q 534 237 526 211 q 549 310 547 269 q 551 377 551 351 l 602 362 q 472 341 526 350 q 379 324 418 332 q 310 306 340 316 q 261 282 281 296 q 230 250 241 268 q 219 208 219 232 q 233 159 219 180 q 274 125 247 138 q 340 113 301 113 z "},"ẫ":{"ha":800,"x_min":56,"x_max":717,"o":"m 141 858 l 331 1076 l 471 1076 l 660 858 l 504 858 l 401 981 l 297 858 l 141 858 m 524 1111 q 461 1126 491 1111 q 403 1159 431 1140 q 351 1193 376 1178 q 307 1208 327 1208 q 277 1185 285 1208 q 278 1130 269 1163 l 172 1130 q 182 1271 152 1213 q 292 1329 212 1329 q 355 1315 325 1329 q 413 1281 385 1300 q 465 1247 441 1262 q 509 1233 489 1233 q 540 1255 531 1233 q 539 1311 548 1278 l 644 1311 q 635 1170 665 1228 q 524 1111 605 1111 m 307 -21 q 169 10 226 -21 q 84 92 113 41 q 56 206 56 144 q 74 303 56 260 q 129 378 92 347 q 226 430 167 410 q 332 456 272 444 q 464 478 393 468 q 613 500 535 488 l 553 466 q 519 581 554 544 q 399 617 483 617 q 301 594 349 617 q 235 513 254 570 l 83 560 q 189 713 110 656 q 399 771 267 771 q 575 738 499 771 q 688 631 651 706 q 713 550 708 592 q 717 460 717 509 l 717 0 l 570 0 l 570 163 l 594 136 q 476 17 544 55 q 307 -21 408 -21 m 340 113 q 438 133 397 113 q 502 182 478 153 q 534 237 526 211 q 549 310 547 269 q 551 377 551 351 l 602 362 q 472 341 526 350 q 379 324 418 332 q 310 306 340 316 q 261 282 281 296 q 230 250 241 268 q 219 208 219 232 q 233 159 219 180 q 274 125 247 138 q 340 113 301 113 z "},"ä":{"ha":800,"x_min":56,"x_max":717,"o":"m 480 866 l 480 1019 l 633 1019 l 633 866 l 480 866 m 193 866 l 193 1019 l 346 1019 l 346 866 l 193 866 m 307 -21 q 169 10 226 -21 q 84 92 113 41 q 56 206 56 144 q 74 303 56 260 q 129 378 92 347 q 226 430 167 410 q 332 456 272 444 q 464 478 393 468 q 613 500 535 488 l 553 466 q 519 581 554 544 q 399 617 483 617 q 301 594 349 617 q 235 513 254 570 l 83 560 q 189 713 110 656 q 399 771 267 771 q 575 738 499 771 q 688 631 651 706 q 713 550 708 592 q 717 460 717 509 l 717 0 l 570 0 l 570 163 l 594 136 q 476 17 544 55 q 307 -21 408 -21 m 340 113 q 438 133 397 113 q 502 182 478 153 q 534 237 526 211 q 549 310 547 269 q 551 377 551 351 l 602 362 q 472 341 526 350 q 379 324 418 332 q 310 306 340 316 q 261 282 281 296 q 230 250 241 268 q 219 208 219 232 q 233 159 219 180 q 274 125 247 138 q 340 113 301 113 z "},"ạ":{"ha":800,"x_min":56,"x_max":717,"o":"m 321 -269 l 321 -116 l 492 -116 l 492 -269 l 321 -269 m 307 -21 q 169 10 226 -21 q 84 92 113 41 q 56 206 56 144 q 74 303 56 260 q 129 378 92 347 q 226 430 167 410 q 332 456 272 444 q 464 478 393 468 q 613 500 535 488 l 553 466 q 519 581 554 544 q 399 617 483 617 q 301 594 349 617 q 235 513 254 570 l 83 560 q 189 713 110 656 q 399 771 267 771 q 575 738 499 771 q 688 631 651 706 q 713 550 708 592 q 717 460 717 509 l 717 0 l 570 0 l 570 163 l 594 136 q 476 17 544 55 q 307 -21 408 -21 m 340 113 q 438 133 397 113 q 502 182 478 153 q 534 237 526 211 q 549 310 547 269 q 551 377 551 351 l 602 362 q 472 341 526 350 q 379 324 418 332 q 310 306 340 316 q 261 282 281 296 q 230 250 241 268 q 219 208 219 232 q 233 159 219 180 q 274 125 247 138 q 340 113 301 113 z "},"à":{"ha":800,"x_min":56,"x_max":717,"o":"m 346 858 l 238 1115 l 365 1115 l 473 858 l 346 858 m 307 -21 q 169 10 226 -21 q 84 92 113 41 q 56 206 56 144 q 74 303 56 260 q 129 378 92 347 q 226 430 167 410 q 332 456 272 444 q 464 478 393 468 q 613 500 535 488 l 553 466 q 519 581 554 544 q 399 617 483 617 q 301 594 349 617 q 235 513 254 570 l 83 560 q 189 713 110 656 q 399 771 267 771 q 575 738 499 771 q 688 631 651 706 q 713 550 708 592 q 717 460 717 509 l 717 0 l 570 0 l 570 163 l 594 136 q 476 17 544 55 q 307 -21 408 -21 m 340 113 q 438 133 397 113 q 502 182 478 153 q 534 237 526 211 q 549 310 547 269 q 551 377 551 351 l 602 362 q 472 341 526 350 q 379 324 418 332 q 310 306 340 316 q 261 282 281 296 q 230 250 241 268 q 219 208 219 232 q 233 159 219 180 q 274 125 247 138 q 340 113 301 113 z "},"ả":{"ha":800,"x_min":56,"x_max":717,"o":"m 323 1056 l 280 1138 q 372 1183 319 1173 q 470 1173 424 1193 q 540 1095 517 1152 q 553 1011 559 1049 q 524 943 547 972 q 468 895 501 913 q 401 874 435 878 l 372 942 q 434 982 410 954 q 440 1048 458 1010 q 408 1078 428 1073 q 365 1076 388 1083 q 323 1056 342 1069 m 307 -21 q 169 10 226 -21 q 84 92 113 41 q 56 206 56 144 q 74 303 56 260 q 129 378 92 347 q 226 430 167 410 q 332 456 272 444 q 464 478 393 468 q 613 500 535 488 l 553 466 q 519 581 554 544 q 399 617 483 617 q 301 594 349 617 q 235 513 254 570 l 83 560 q 189 713 110 656 q 399 771 267 771 q 575 738 499 771 q 688 631 651 706 q 713 550 708 592 q 717 460 717 509 l 717 0 l 570 0 l 570 163 l 594 136 q 476 17 544 55 q 307 -21 408 -21 m 340 113 q 438 133 397 113 q 502 182 478 153 q 534 237 526 211 q 549 310 547 269 q 551 377 551 351 l 602 362 q 472 341 526 350 q 379 324 418 332 q 310 306 340 316 q 261 282 281 296 q 230 250 241 268 q 219 208 219 232 q 233 159 219 180 q 274 125 247 138 q 340 113 301 113 z "},"ā":{"ha":800,"x_min":56,"x_max":717,"o":"m 243 917 l 243 1047 l 613 1047 l 613 917 l 243 917 m 307 -21 q 169 10 226 -21 q 84 92 113 41 q 56 206 56 144 q 74 303 56 260 q 129 378 92 347 q 226 430 167 410 q 332 456 272 444 q 464 478 393 468 q 613 500 535 488 l 553 466 q 519 581 554 544 q 399 617 483 617 q 301 594 349 617 q 235 513 254 570 l 83 560 q 189 713 110 656 q 399 771 267 771 q 575 738 499 771 q 688 631 651 706 q 713 550 708 592 q 717 460 717 509 l 717 0 l 570 0 l 570 163 l 594 136 q 476 17 544 55 q 307 -21 408 -21 m 340 113 q 438 133 397 113 q 502 182 478 153 q 534 237 526 211 q 549 310 547 269 q 551 377 551 351 l 602 362 q 472 341 526 350 q 379 324 418 332 q 310 306 340 316 q 261 282 281 296 q 230 250 241 268 q 219 208 219 232 q 233 159 219 180 q 274 125 247 138 q 340 113 301 113 z "},"ą":{"ha":800,"x_min":56,"x_max":717,"o":"m 581 -333 q 504 -311 538 -333 q 452 -255 471 -290 q 433 -181 433 -221 q 461 -81 433 -131 q 536 13 489 -31 q 644 84 584 56 l 717 0 q 639 -53 674 -23 q 584 -114 604 -83 q 563 -168 563 -144 q 575 -197 563 -185 q 603 -209 587 -209 q 628 -203 615 -209 q 655 -185 642 -197 l 715 -263 q 655 -315 690 -297 q 581 -333 619 -333 m 307 -21 q 169 10 226 -21 q 84 92 113 41 q 56 206 56 144 q 74 303 56 260 q 129 378 92 347 q 226 430 167 410 q 332 456 272 444 q 464 478 393 468 q 613 500 535 488 l 553 466 q 519 581 554 544 q 399 617 483 617 q 301 594 349 617 q 235 513 254 570 l 83 560 q 189 713 110 656 q 399 771 267 771 q 575 738 499 771 q 688 631 651 706 q 713 550 708 592 q 717 460 717 509 l 717 0 l 570 0 l 570 163 l 594 136 q 476 17 544 55 q 307 -21 408 -21 m 340 113 q 438 133 397 113 q 502 182 478 153 q 534 237 526 211 q 549 310 547 269 q 551 377 551 351 l 602 362 q 472 341 526 350 q 379 324 418 332 q 310 306 340 316 q 261 282 281 296 q 230 250 241 268 q 219 208 219 232 q 233 159 219 180 q 274 125 247 138 q 340 113 301 113 z "},"å":{"ha":800,"x_min":56,"x_max":717,"o":"m 409 828 q 320 852 360 828 q 255 916 279 876 q 231 1006 231 957 q 255 1096 231 1056 q 320 1161 279 1137 q 409 1185 360 1185 q 499 1161 459 1185 q 564 1096 540 1137 q 588 1006 588 1056 q 564 916 588 957 q 499 852 540 876 q 409 828 459 828 m 409 930 q 464 952 442 930 q 485 1006 485 975 q 464 1060 485 1038 q 409 1083 442 1083 q 355 1060 378 1083 q 333 1006 333 1038 q 355 952 333 975 q 409 930 378 930 m 307 -21 q 169 10 226 -21 q 84 92 113 41 q 56 206 56 144 q 74 303 56 260 q 129 378 92 347 q 226 430 167 410 q 332 456 272 444 q 464 478 393 468 q 613 500 535 488 l 553 466 q 519 581 554 544 q 399 617 483 617 q 301 594 349 617 q 235 513 254 570 l 83 560 q 189 713 110 656 q 399 771 267 771 q 575 738 499 771 q 688 631 651 706 q 713 550 708 592 q 717 460 717 509 l 717 0 l 570 0 l 570 163 l 594 136 q 476 17 544 55 q 307 -21 408 -21 m 340 113 q 438 133 397 113 q 502 182 478 153 q 534 237 526 211 q 549 310 547 269 q 551 377 551 351 l 602 362 q 472 341 526 350 q 379 324 418 332 q 310 306 340 316 q 261 282 281 296 q 230 250 241 268 q 219 208 219 232 q 233 159 219 180 q 274 125 247 138 q 340 113 301 113 z "},"ã":{"ha":800,"x_min":56,"x_max":717,"o":"m 538 861 q 475 876 506 861 q 418 909 445 890 q 366 943 390 928 q 322 958 342 958 q 291 935 299 958 q 292 880 283 913 l 187 880 q 197 1021 167 963 q 307 1079 226 1079 q 370 1065 340 1079 q 428 1031 400 1050 q 480 997 456 1012 q 524 983 503 983 q 554 1005 546 983 q 553 1061 563 1028 l 659 1061 q 649 920 679 978 q 538 861 619 861 m 307 -21 q 169 10 226 -21 q 84 92 113 41 q 56 206 56 144 q 74 303 56 260 q 129 378 92 347 q 226 430 167 410 q 332 456 272 444 q 464 478 393 468 q 613 500 535 488 l 553 466 q 519 581 554 544 q 399 617 483 617 q 301 594 349 617 q 235 513 254 570 l 83 560 q 189 713 110 656 q 399 771 267 771 q 575 738 499 771 q 688 631 651 706 q 713 550 708 592 q 717 460 717 509 l 717 0 l 570 0 l 570 163 l 594 136 q 476 17 544 55 q 307 -21 408 -21 m 340 113 q 438 133 397 113 q 502 182 478 153 q 534 237 526 211 q 549 310 547 269 q 551 377 551 351 l 602 362 q 472 341 526 350 q 379 324 418 332 q 310 306 340 316 q 261 282 281 296 q 230 250 241 268 q 219 208 219 232 q 233 159 219 180 q 274 125 247 138 q 340 113 301 113 z "},"æ":{"ha":1300,"x_min":56,"x_max":1250,"o":"m 921 -21 q 729 30 810 -21 q 603 167 648 80 q 559 367 559 255 q 603 579 559 488 q 726 720 647 670 q 913 771 805 771 q 1103 714 1027 771 q 1215 558 1179 658 q 1242 328 1250 458 l 1085 328 l 1085 390 q 1049 562 1084 500 q 912 624 1013 624 q 803 592 844 624 q 744 503 762 560 q 726 375 726 447 q 773 201 726 266 q 912 136 819 136 q 1010 163 967 136 q 1077 243 1053 190 l 1233 193 q 1159 78 1207 126 q 1049 5 1110 30 q 921 -21 988 -21 m 340 112 q 453 142 403 112 q 524 212 503 172 q 543 261 537 234 q 552 317 550 288 q 552 373 553 345 l 609 349 l 437 332 q 372 324 409 330 q 300 305 335 318 q 242 268 265 292 q 219 207 219 245 q 251 138 219 165 q 340 112 283 112 m 316 -21 q 123 42 191 -21 q 56 201 56 104 q 80 303 56 262 q 142 371 103 345 q 228 412 181 397 q 321 434 275 427 q 404 446 367 442 l 587 464 l 550 433 q 539 541 557 500 q 484 599 520 581 q 400 617 447 617 q 300 593 345 617 q 234 515 254 569 l 83 560 q 150 667 106 619 q 259 743 195 715 q 404 771 323 771 q 600 721 525 771 q 701 583 674 671 q 715 509 713 544 q 717 451 717 473 l 634 158 q 551 54 599 93 q 444 -3 503 15 q 316 -21 385 -21 m 676 328 l 676 460 l 1164 460 l 1164 328 l 676 328 z "},"b":{"ha":856,"x_min":96,"x_max":800,"o":"m 458 -21 q 274 31 348 -21 q 162 173 199 83 q 124 375 124 263 q 162 578 124 488 q 272 719 199 667 q 451 771 344 771 q 636 719 558 771 q 757 578 714 667 q 800 375 800 489 q 758 173 800 263 q 638 31 715 83 q 458 -21 561 -21 m 96 0 l 96 1000 l 265 1000 l 265 526 l 244 526 l 244 0 l 96 0 m 432 129 q 540 162 497 129 q 602 250 582 194 q 623 375 623 306 q 602 499 623 443 q 538 588 581 555 q 426 621 494 621 q 322 590 363 621 q 263 504 282 559 q 244 375 244 449 q 263 247 244 302 q 323 160 282 191 q 432 129 365 129 z "},"c":{"ha":799,"x_min":56,"x_max":757,"o":"m 423 -21 q 225 31 307 -21 q 100 172 143 83 q 56 375 56 262 q 101 580 56 490 q 228 720 146 669 q 425 771 311 771 q 641 707 553 771 q 757 531 730 642 l 590 486 q 526 580 571 547 q 423 614 481 614 q 315 583 358 614 q 253 498 273 552 q 233 375 233 444 q 281 202 233 268 q 423 136 328 136 q 528 167 490 136 q 586 255 567 197 l 757 217 q 635 41 722 102 q 423 -21 549 -21 z "},"ć":{"ha":799,"x_min":56,"x_max":757,"o":"m 490 858 l 363 858 l 469 1115 l 597 1115 l 490 858 m 423 -21 q 225 31 307 -21 q 100 172 143 83 q 56 375 56 262 q 101 580 56 490 q 228 720 146 669 q 425 771 311 771 q 641 707 553 771 q 757 531 730 642 l 590 486 q 526 580 571 547 q 423 614 481 614 q 315 583 358 614 q 253 498 273 552 q 233 375 233 444 q 281 202 233 268 q 423 136 328 136 q 528 167 490 136 q 586 255 567 197 l 757 217 q 635 41 722 102 q 423 -21 549 -21 z "},"č":{"ha":799,"x_min":56,"x_max":757,"o":"m 163 1076 l 319 1076 l 423 953 l 526 1076 l 683 1076 l 493 858 l 353 858 l 163 1076 m 423 -21 q 225 31 307 -21 q 100 172 143 83 q 56 375 56 262 q 101 580 56 490 q 228 720 146 669 q 425 771 311 771 q 641 707 553 771 q 757 531 730 642 l 590 486 q 526 580 571 547 q 423 614 481 614 q 315 583 358 614 q 253 498 273 552 q 233 375 233 444 q 281 202 233 268 q 423 136 328 136 q 528 167 490 136 q 586 255 567 197 l 757 217 q 635 41 722 102 q 423 -21 549 -21 z "},"ç":{"ha":799,"x_min":56,"x_max":757,"o":"m 399 -335 q 347 -328 371 -335 q 303 -310 323 -321 l 340 -211 q 384 -221 368 -221 q 416 -209 405 -221 q 428 -183 428 -197 q 400 -144 428 -156 q 337 -121 373 -131 l 386 22 l 488 22 l 460 -58 q 522 -110 500 -78 q 544 -187 544 -142 q 501 -294 544 -253 q 399 -335 458 -335 m 423 -21 q 225 31 307 -21 q 100 172 143 83 q 56 375 56 262 q 101 580 56 490 q 228 720 146 669 q 425 771 311 771 q 641 707 553 771 q 757 531 730 642 l 590 486 q 526 580 571 547 q 423 614 481 614 q 315 583 358 614 q 253 498 273 552 q 233 375 233 444 q 281 202 233 268 q 423 136 328 136 q 528 167 490 136 q 586 255 567 197 l 757 217 q 635 41 722 102 q 423 -21 549 -21 z "},"ĉ":{"ha":799,"x_min":56,"x_max":757,"o":"m 167 858 l 358 1076 l 498 1076 l 688 858 l 531 858 l 428 981 l 324 858 l 167 858 m 423 -21 q 225 31 307 -21 q 100 172 143 83 q 56 375 56 262 q 101 580 56 490 q 228 720 146 669 q 425 771 311 771 q 641 707 553 771 q 757 531 730 642 l 590 486 q 526 580 571 547 q 423 614 481 614 q 315 583 358 614 q 253 498 273 552 q 233 375 233 444 q 281 202 233 268 q 423 136 328 136 q 528 167 490 136 q 586 255 567 197 l 757 217 q 635 41 722 102 q 423 -21 549 -21 z "},"ċ":{"ha":799,"x_min":56,"x_max":757,"o":"m 359 898 l 359 1069 l 531 1069 l 531 898 l 359 898 m 423 -21 q 225 31 307 -21 q 100 172 143 83 q 56 375 56 262 q 101 580 56 490 q 228 720 146 669 q 425 771 311 771 q 641 707 553 771 q 757 531 730 642 l 590 486 q 526 580 571 547 q 423 614 481 614 q 315 583 358 614 q 253 498 273 552 q 233 375 233 444 q 281 202 233 268 q 423 136 328 136 q 528 167 490 136 q 586 255 567 197 l 757 217 q 635 41 722 102 q 423 -21 549 -21 z "},"d":{"ha":857,"x_min":56,"x_max":760,"o":"m 398 -21 q 217 31 294 -21 q 98 173 140 83 q 56 375 56 263 q 98 578 56 489 q 219 719 141 667 q 404 771 298 771 q 584 719 511 771 q 694 578 656 667 q 731 375 731 488 q 694 173 731 263 q 582 31 656 83 q 398 -21 508 -21 m 424 129 q 532 160 491 129 q 593 247 574 191 q 612 375 612 302 q 593 504 612 449 q 533 590 574 559 q 429 621 493 621 q 318 588 362 621 q 253 499 274 555 q 233 375 233 443 q 253 250 233 306 q 316 162 274 194 q 424 129 358 129 m 612 0 l 612 526 l 591 526 l 591 1000 l 760 1000 l 760 0 l 612 0 z "},"ð":{"ha":828,"x_min":56,"x_max":773,"o":"m 415 -21 q 227 26 308 -21 q 101 156 147 72 q 56 349 56 239 q 101 543 56 459 q 227 673 147 626 q 415 719 308 720 q 514 706 467 720 q 613 658 560 691 q 557 783 604 725 q 439 877 510 840 q 286 921 367 915 l 311 1049 q 505 1005 420 1046 q 645 887 590 963 q 719 754 692 827 q 760 583 747 681 q 773 353 773 485 q 729 155 773 240 q 605 25 685 71 q 415 -21 524 -21 m 415 128 q 555 187 506 128 q 605 350 605 246 q 555 513 605 454 q 415 571 505 572 q 273 514 322 572 q 224 350 224 456 q 273 186 224 244 q 415 128 323 128 m 440 747 l 347 828 l 570 1088 l 664 1005 l 440 747 z "},"ď":{"ha":1091,"x_min":56,"x_max":1044,"o":"m 398 -21 q 217 31 294 -21 q 98 173 140 83 q 56 375 56 263 q 98 578 56 489 q 219 719 141 667 q 404 771 298 771 q 584 719 511 771 q 694 578 656 667 q 731 375 731 488 q 694 173 731 263 q 582 31 656 83 q 398 -21 508 -21 m 424 129 q 532 160 491 129 q 593 247 574 191 q 612 375 612 302 q 593 504 612 449 q 533 590 574 559 q 429 621 493 621 q 318 588 362 621 q 253 499 274 555 q 233 375 233 443 q 253 250 233 306 q 316 162 274 194 q 424 129 358 129 m 612 0 l 612 526 l 591 526 l 591 1000 l 760 1000 l 760 0 l 612 0 m 873 647 l 883 719 q 933 730 915 717 q 959 768 952 744 q 962 824 965 793 l 873 824 l 873 1003 l 1044 1003 l 1044 817 q 1001 680 1044 726 q 873 647 958 633 z "},"đ":{"ha":857,"x_min":56,"x_max":849,"o":"m 478 810 l 478 940 l 849 940 l 849 810 l 478 810 m 398 -21 q 217 31 294 -21 q 98 173 140 83 q 56 375 56 263 q 98 578 56 489 q 219 719 141 667 q 404 771 298 771 q 584 719 511 771 q 694 578 656 667 q 731 375 731 488 q 694 173 731 263 q 582 31 656 83 q 398 -21 508 -21 m 424 129 q 532 160 491 129 q 593 247 574 191 q 612 375 612 302 q 593 504 612 449 q 533 590 574 559 q 429 621 493 621 q 318 588 362 621 q 253 499 274 555 q 233 375 233 443 q 253 250 233 306 q 316 162 274 194 q 424 129 358 129 m 612 0 l 612 526 l 591 526 l 591 1000 l 760 1000 l 760 0 l 612 0 z "},"e":{"ha":836,"x_min":56,"x_max":788,"o":"m 438 -21 q 238 28 324 -21 q 104 165 152 78 q 56 367 56 253 q 103 580 56 490 q 234 721 150 671 q 428 771 318 771 q 627 716 545 771 q 748 563 708 662 q 778 328 788 463 l 612 328 l 612 390 q 569 568 611 512 q 435 624 526 624 q 283 561 333 624 q 233 375 233 497 q 283 199 233 261 q 428 136 333 136 q 535 164 490 136 q 604 243 580 191 l 769 193 q 636 35 726 92 q 438 -21 547 -21 m 180 328 l 180 455 l 696 455 l 696 328 l 180 328 z "},"é":{"ha":836,"x_min":56,"x_max":788,"o":"m 508 858 l 381 858 l 488 1115 l 615 1115 l 508 858 m 438 -21 q 238 28 324 -21 q 104 165 152 78 q 56 367 56 253 q 103 580 56 490 q 234 721 150 671 q 428 771 318 771 q 627 716 545 771 q 748 563 708 662 q 778 328 788 463 l 612 328 l 612 390 q 569 568 611 512 q 435 624 526 624 q 283 561 333 624 q 233 375 233 497 q 283 199 233 261 q 428 136 333 136 q 535 164 490 136 q 604 243 580 191 l 769 193 q 636 35 726 92 q 438 -21 547 -21 m 180 328 l 180 455 l 696 455 l 696 328 l 180 328 z "},"ě":{"ha":836,"x_min":56,"x_max":788,"o":"m 167 1076 l 323 1076 l 426 953 l 530 1076 l 686 1076 l 497 858 l 356 858 l 167 1076 m 438 -21 q 238 28 324 -21 q 104 165 152 78 q 56 367 56 253 q 103 580 56 490 q 234 721 150 671 q 428 771 318 771 q 627 716 545 771 q 748 563 708 662 q 778 328 788 463 l 612 328 l 612 390 q 569 568 611 512 q 435 624 526 624 q 283 561 333 624 q 233 375 233 497 q 283 199 233 261 q 428 136 333 136 q 535 164 490 136 q 604 243 580 191 l 769 193 q 636 35 726 92 q 438 -21 547 -21 m 180 328 l 180 455 l 696 455 l 696 328 l 180 328 z "},"ê":{"ha":836,"x_min":56,"x_max":788,"o":"m 167 858 l 356 1076 l 497 1076 l 686 858 l 530 858 l 426 981 l 323 858 l 167 858 m 438 -21 q 238 28 324 -21 q 104 165 152 78 q 56 367 56 253 q 103 580 56 490 q 234 721 150 671 q 428 771 318 771 q 627 716 545 771 q 748 563 708 662 q 778 328 788 463 l 612 328 l 612 390 q 569 568 611 512 q 435 624 526 624 q 283 561 333 624 q 233 375 233 497 q 283 199 233 261 q 428 136 333 136 q 535 164 490 136 q 604 243 580 191 l 769 193 q 636 35 726 92 q 438 -21 547 -21 m 180 328 l 180 455 l 696 455 l 696 328 l 180 328 z "},"ế":{"ha":836,"x_min":56,"x_max":895,"o":"m 173 858 l 363 1076 l 503 1076 l 692 858 l 536 858 l 433 981 l 329 858 l 173 858 m 788 1003 l 661 1003 l 768 1260 l 895 1260 l 788 1003 m 438 -21 q 238 28 324 -21 q 104 165 152 78 q 56 367 56 253 q 103 580 56 490 q 234 721 150 671 q 428 771 318 771 q 627 716 545 771 q 748 563 708 662 q 778 328 788 463 l 612 328 l 612 390 q 569 568 611 512 q 435 624 526 624 q 283 561 333 624 q 233 375 233 497 q 283 199 233 261 q 428 136 333 136 q 535 164 490 136 q 604 243 580 191 l 769 193 q 636 35 726 92 q 438 -21 547 -21 m 180 328 l 180 455 l 696 455 l 696 328 l 180 328 z "},"ệ":{"ha":836,"x_min":56,"x_max":788,"o":"m 332 -269 l 332 -116 l 503 -116 l 503 -269 l 332 -269 m 167 858 l 356 1076 l 497 1076 l 686 858 l 530 858 l 426 981 l 323 858 l 167 858 m 438 -21 q 238 28 324 -21 q 104 165 152 78 q 56 367 56 253 q 103 580 56 490 q 234 721 150 671 q 428 771 318 771 q 627 716 545 771 q 748 563 708 662 q 778 328 788 463 l 612 328 l 612 390 q 569 568 611 512 q 435 624 526 624 q 283 561 333 624 q 233 375 233 497 q 283 199 233 261 q 428 136 333 136 q 535 164 490 136 q 604 243 580 191 l 769 193 q 636 35 726 92 q 438 -21 547 -21 m 180 328 l 180 455 l 696 455 l 696 328 l 180 328 z "},"ề":{"ha":836,"x_min":56,"x_max":791,"o":"m 167 858 l 356 1076 l 497 1076 l 686 858 l 530 858 l 426 981 l 322 858 l 167 858 m 664 1003 l 557 1260 l 684 1260 l 791 1003 l 664 1003 m 438 -21 q 238 28 324 -21 q 104 165 152 78 q 56 367 56 253 q 103 580 56 490 q 234 721 150 671 q 428 771 318 771 q 627 716 545 771 q 748 563 708 662 q 778 328 788 463 l 612 328 l 612 390 q 569 568 611 512 q 435 624 526 624 q 283 561 333 624 q 233 375 233 497 q 283 199 233 261 q 428 136 333 136 q 535 164 490 136 q 604 243 580 191 l 769 193 q 636 35 726 92 q 438 -21 547 -21 m 180 328 l 180 455 l 696 455 l 696 328 l 180 328 z "},"ể":{"ha":836,"x_min":56,"x_max":899,"o":"m 169 858 l 358 1076 l 499 1076 l 688 858 l 532 858 l 428 981 l 325 858 l 169 858 m 663 1051 l 619 1133 q 711 1178 659 1169 q 810 1168 763 1188 q 880 1090 857 1147 q 892 1006 899 1044 q 863 938 886 967 q 808 891 840 909 q 741 869 775 874 l 711 938 q 774 977 749 949 q 780 1043 798 1005 q 748 1074 768 1069 q 704 1071 727 1078 q 663 1051 681 1064 m 438 -21 q 238 28 324 -21 q 104 165 152 78 q 56 367 56 253 q 103 580 56 490 q 234 721 150 671 q 428 771 318 771 q 627 716 545 771 q 748 563 708 662 q 778 328 788 463 l 612 328 l 612 390 q 569 568 611 512 q 435 624 526 624 q 283 561 333 624 q 233 375 233 497 q 283 199 233 261 q 428 136 333 136 q 535 164 490 136 q 604 243 580 191 l 769 193 q 636 35 726 92 q 438 -21 547 -21 m 180 328 l 180 455 l 696 455 l 696 328 l 180 328 z "},"ễ":{"ha":836,"x_min":56,"x_max":788,"o":"m 167 858 l 358 1076 l 497 1076 l 688 858 l 531 858 l 427 981 l 324 858 l 167 858 m 551 1111 q 488 1126 517 1111 q 430 1159 458 1140 q 378 1193 402 1178 q 334 1208 354 1208 q 304 1185 312 1208 q 304 1130 296 1163 l 199 1130 q 209 1271 179 1213 q 319 1329 238 1329 q 382 1315 352 1329 q 440 1281 413 1300 q 492 1247 467 1262 q 536 1233 516 1233 q 566 1255 558 1233 q 565 1311 575 1278 l 671 1311 q 662 1170 692 1228 q 551 1111 632 1111 m 438 -21 q 238 28 324 -21 q 104 165 152 78 q 56 367 56 253 q 103 580 56 490 q 234 721 150 671 q 428 771 318 771 q 627 716 545 771 q 748 563 708 662 q 778 328 788 463 l 612 328 l 612 390 q 569 568 611 512 q 435 624 526 624 q 283 561 333 624 q 233 375 233 497 q 283 199 233 261 q 428 136 333 136 q 535 164 490 136 q 604 243 580 191 l 769 193 q 636 35 726 92 q 438 -21 547 -21 m 180 328 l 180 455 l 696 455 l 696 328 l 180 328 z "},"ë":{"ha":836,"x_min":56,"x_max":788,"o":"m 496 866 l 496 1019 l 649 1019 l 649 866 l 496 866 m 209 866 l 209 1019 l 362 1019 l 362 866 l 209 866 m 438 -21 q 238 28 324 -21 q 104 165 152 78 q 56 367 56 253 q 103 580 56 490 q 234 721 150 671 q 428 771 318 771 q 627 716 545 771 q 748 563 708 662 q 778 328 788 463 l 612 328 l 612 390 q 569 568 611 512 q 435 624 526 624 q 283 561 333 624 q 233 375 233 497 q 283 199 233 261 q 428 136 333 136 q 535 164 490 136 q 604 243 580 191 l 769 193 q 636 35 726 92 q 438 -21 547 -21 m 180 328 l 180 455 l 696 455 l 696 328 l 180 328 z "},"ė":{"ha":836,"x_min":56,"x_max":788,"o":"m 344 898 l 344 1069 l 515 1069 l 515 898 l 344 898 m 438 -21 q 238 28 324 -21 q 104 165 152 78 q 56 367 56 253 q 103 580 56 490 q 234 721 150 671 q 428 771 318 771 q 627 716 545 771 q 748 563 708 662 q 778 328 788 463 l 612 328 l 612 390 q 569 568 611 512 q 435 624 526 624 q 283 561 333 624 q 233 375 233 497 q 283 199 233 261 q 428 136 333 136 q 535 164 490 136 q 604 243 580 191 l 769 193 q 636 35 726 92 q 438 -21 547 -21 m 180 328 l 180 455 l 696 455 l 696 328 l 180 328 z "},"ẹ":{"ha":836,"x_min":56,"x_max":788,"o":"m 356 -269 l 356 -116 l 528 -116 l 528 -269 l 356 -269 m 438 -21 q 238 28 324 -21 q 104 165 152 78 q 56 367 56 253 q 103 580 56 490 q 234 721 150 671 q 428 771 318 771 q 627 716 545 771 q 748 563 708 662 q 778 328 788 463 l 612 328 l 612 390 q 569 568 611 512 q 435 624 526 624 q 283 561 333 624 q 233 375 233 497 q 283 199 233 261 q 428 136 333 136 q 535 164 490 136 q 604 243 580 191 l 769 193 q 636 35 726 92 q 438 -21 547 -21 m 180 328 l 180 455 l 696 455 l 696 328 l 180 328 z "},"è":{"ha":836,"x_min":56,"x_max":788,"o":"m 367 858 l 260 1115 l 386 1115 l 494 858 l 367 858 m 438 -21 q 238 28 324 -21 q 104 165 152 78 q 56 367 56 253 q 103 580 56 490 q 234 721 150 671 q 428 771 318 771 q 627 716 545 771 q 748 563 708 662 q 778 328 788 463 l 612 328 l 612 390 q 569 568 611 512 q 435 624 526 624 q 283 561 333 624 q 233 375 233 497 q 283 199 233 261 q 428 136 333 136 q 535 164 490 136 q 604 243 580 191 l 769 193 q 636 35 726 92 q 438 -21 547 -21 m 180 328 l 180 455 l 696 455 l 696 328 l 180 328 z "},"ẻ":{"ha":833,"x_min":56,"x_max":788,"o":"m 344 1056 l 301 1138 q 392 1183 340 1173 q 491 1173 444 1193 q 561 1095 538 1152 q 574 1011 580 1049 q 544 943 567 972 q 489 895 522 913 q 422 874 456 878 l 392 942 q 455 982 431 954 q 461 1048 479 1010 q 429 1078 449 1073 q 385 1076 408 1083 q 344 1056 363 1069 m 438 -21 q 238 28 324 -21 q 104 165 152 78 q 56 367 56 253 q 103 580 56 490 q 234 721 150 671 q 428 771 318 771 q 627 716 545 771 q 748 563 708 662 q 778 328 788 463 l 612 328 l 612 390 q 569 568 611 512 q 435 624 526 624 q 283 561 333 624 q 233 375 233 497 q 283 199 233 261 q 428 136 333 136 q 535 164 490 136 q 604 243 580 191 l 769 193 q 636 35 726 92 q 438 -21 547 -21 m 180 328 l 180 455 l 696 455 l 696 328 l 180 328 z "},"ē":{"ha":836,"x_min":56,"x_max":788,"o":"m 258 917 l 258 1047 l 628 1047 l 628 917 l 258 917 m 438 -21 q 238 28 324 -21 q 104 165 152 78 q 56 367 56 253 q 103 580 56 490 q 234 721 150 671 q 428 771 318 771 q 627 716 545 771 q 748 563 708 662 q 778 328 788 463 l 612 328 l 612 390 q 569 568 611 512 q 435 624 526 624 q 283 561 333 624 q 233 375 233 497 q 283 199 233 261 q 428 136 333 136 q 535 164 490 136 q 604 243 580 191 l 769 193 q 636 35 726 92 q 438 -21 547 -21 m 180 328 l 180 455 l 696 455 l 696 328 l 180 328 z "},"ę":{"ha":836,"x_min":56,"x_max":788,"o":"m 665 -320 q 567 -327 618 -340 q 485 -276 516 -314 q 451 -194 458 -242 q 463 -100 444 -147 q 496 -37 476 -69 q 531 19 515 -5 q 560 59 542 34 q 598 111 578 84 q 636 162 619 138 l 744 146 q 713 94 728 119 q 682 45 697 69 q 654 2 667 22 q 633 -34 642 -18 q 601 -94 614 -66 q 581 -143 588 -122 q 578 -168 578 -152 q 588 -194 578 -183 q 627 -205 603 -211 q 670 -185 652 -199 l 731 -263 q 703 -295 719 -281 q 665 -320 687 -310 m 438 -21 q 238 28 324 -21 q 104 165 152 78 q 56 367 56 253 q 103 580 56 490 q 234 721 150 671 q 428 771 318 771 q 627 716 545 771 q 748 563 708 662 q 778 328 788 463 l 612 328 l 612 390 q 569 568 611 512 q 435 624 526 624 q 283 561 333 624 q 233 375 233 497 q 283 199 233 261 q 428 136 333 136 q 535 164 490 136 q 604 243 580 191 l 769 193 q 636 35 726 92 q 438 -21 547 -21 m 180 328 l 180 455 l 696 455 l 696 328 l 180 328 z "},"ẽ":{"ha":836,"x_min":56,"x_max":788,"o":"m 557 861 q 494 876 524 861 q 436 909 464 890 q 384 943 408 928 q 340 958 360 958 q 310 935 318 958 q 311 880 302 913 l 206 880 q 215 1021 185 963 q 326 1079 244 1079 q 389 1065 358 1079 q 446 1031 419 1050 q 498 997 474 1012 q 542 983 522 983 q 573 1005 564 983 q 572 1061 581 1028 l 677 1061 q 668 920 698 978 q 557 861 638 861 m 438 -21 q 238 28 324 -21 q 104 165 152 78 q 56 367 56 253 q 103 580 56 490 q 234 721 150 671 q 428 771 318 771 q 627 716 545 771 q 748 563 708 662 q 778 328 788 463 l 612 328 l 612 390 q 569 568 611 512 q 435 624 526 624 q 283 561 333 624 q 233 375 233 497 q 283 199 233 261 q 428 136 333 136 q 535 164 490 136 q 604 243 580 191 l 769 193 q 636 35 726 92 q 438 -21 547 -21 m 180 328 l 180 455 l 696 455 l 696 328 l 180 328 z "},"ə":{"ha":836,"x_min":49,"x_max":781,"o":"m 399 771 q 598 722 512 771 q 732 585 684 672 q 781 383 781 497 q 733 170 781 260 q 602 29 686 79 q 408 -21 518 -21 q 210 34 291 -21 q 89 188 128 88 q 58 422 49 287 l 224 422 l 224 360 q 268 182 225 238 q 401 126 310 126 q 554 189 504 126 q 603 375 603 253 q 554 552 603 490 q 408 614 504 614 q 301 586 347 614 q 232 507 256 559 l 67 557 q 200 715 110 659 q 399 771 290 771 m 656 422 l 656 295 l 140 295 l 140 422 l 656 422 z "},"f":{"ha":525,"x_min":42,"x_max":511,"o":"m 163 0 l 163 762 q 165 825 163 790 q 176 893 167 859 q 212 955 186 927 q 281 1004 244 990 q 354 1019 318 1017 q 417 1021 390 1021 l 511 1021 l 511 885 l 424 885 q 353 861 376 885 q 330 798 330 837 l 330 0 l 163 0 m 42 619 l 42 750 l 511 750 l 511 619 l 42 619 z "},"g":{"ha":856,"x_min":56,"x_max":758,"o":"m 413 -354 q 293 -335 350 -354 q 190 -279 235 -315 q 115 -191 144 -242 l 269 -115 q 330 -175 290 -156 q 413 -195 369 -195 q 506 -177 465 -195 q 570 -123 547 -158 q 591 -33 592 -87 l 591 180 l 612 180 l 612 750 l 758 750 l 758 -36 q 756 -91 758 -65 q 748 -142 753 -117 q 684 -261 731 -215 q 567 -331 637 -308 q 413 -354 497 -354 m 398 -21 q 217 31 294 -21 q 98 173 140 83 q 56 375 56 263 q 98 578 56 489 q 219 719 141 667 q 404 771 298 771 q 584 719 511 771 q 694 578 656 667 q 731 375 731 488 q 694 173 731 263 q 582 31 656 83 q 398 -21 508 -21 m 424 129 q 532 160 491 129 q 593 247 574 191 q 612 375 612 302 q 593 504 612 449 q 533 590 574 559 q 429 621 493 621 q 318 588 362 621 q 253 499 274 555 q 233 375 233 443 q 253 250 233 306 q 316 162 274 194 q 424 129 358 129 z "},"ğ":{"ha":856,"x_min":56,"x_max":758,"o":"m 469 835 q 363 863 411 835 q 287 939 315 892 q 259 1045 259 987 l 390 1045 q 413 989 390 1012 q 469 965 436 965 q 526 989 503 965 q 549 1045 549 1012 l 680 1045 q 651 939 680 987 q 575 863 623 892 q 469 835 527 835 m 413 -354 q 293 -335 350 -354 q 190 -279 235 -315 q 115 -191 144 -242 l 269 -115 q 330 -175 290 -156 q 413 -195 369 -195 q 506 -177 465 -195 q 570 -123 547 -158 q 591 -33 592 -87 l 591 180 l 612 180 l 612 750 l 758 750 l 758 -36 q 756 -91 758 -65 q 748 -142 753 -117 q 684 -261 731 -215 q 567 -331 637 -308 q 413 -354 497 -354 m 398 -21 q 217 31 294 -21 q 98 173 140 83 q 56 375 56 263 q 98 578 56 489 q 219 719 141 667 q 404 771 298 771 q 584 719 511 771 q 694 578 656 667 q 731 375 731 488 q 694 173 731 263 q 582 31 656 83 q 398 -21 508 -21 m 424 129 q 532 160 491 129 q 593 247 574 191 q 612 375 612 302 q 593 504 612 449 q 533 590 574 559 q 429 621 493 621 q 318 588 362 621 q 253 499 274 555 q 233 375 233 443 q 253 250 233 306 q 316 162 274 194 q 424 129 358 129 z "},"ĝ":{"ha":856,"x_min":56,"x_max":758,"o":"m 171 858 l 360 1076 l 501 1076 l 690 858 l 534 858 l 431 981 l 327 858 l 171 858 m 413 -354 q 293 -335 350 -354 q 190 -279 235 -315 q 115 -191 144 -242 l 269 -115 q 330 -175 290 -156 q 413 -195 369 -195 q 506 -177 465 -195 q 570 -123 547 -158 q 591 -33 592 -87 l 591 180 l 612 180 l 612 750 l 758 750 l 758 -36 q 756 -91 758 -65 q 748 -142 753 -117 q 684 -261 731 -215 q 567 -331 637 -308 q 413 -354 497 -354 m 398 -21 q 217 31 294 -21 q 98 173 140 83 q 56 375 56 263 q 98 578 56 489 q 219 719 141 667 q 404 771 298 771 q 584 719 511 771 q 694 578 656 667 q 731 375 731 488 q 694 173 731 263 q 582 31 656 83 q 398 -21 508 -21 m 424 129 q 532 160 491 129 q 593 247 574 191 q 612 375 612 302 q 593 504 612 449 q 533 590 574 559 q 429 621 493 621 q 318 588 362 621 q 253 499 274 555 q 233 375 233 443 q 253 250 233 306 q 316 162 274 194 q 424 129 358 129 z "},"ģ":{"ha":856,"x_min":56,"x_max":758,"o":"m 523 1206 l 523 1133 q 491 1128 513 1133 q 451 1108 469 1124 q 433 1060 433 1092 l 523 1060 l 523 898 l 360 898 l 360 1060 q 407 1166 360 1126 q 523 1206 453 1206 m 413 -354 q 293 -335 350 -354 q 190 -279 235 -315 q 115 -191 144 -242 l 269 -115 q 330 -175 290 -156 q 413 -195 369 -195 q 506 -177 465 -195 q 570 -123 547 -158 q 591 -33 592 -87 l 591 180 l 612 180 l 612 750 l 758 750 l 758 -36 q 756 -91 758 -65 q 748 -142 753 -117 q 684 -261 731 -215 q 567 -331 637 -308 q 413 -354 497 -354 m 398 -21 q 217 31 294 -21 q 98 173 140 83 q 56 375 56 263 q 98 578 56 489 q 219 719 141 667 q 404 771 298 771 q 584 719 511 771 q 694 578 656 667 q 731 375 731 488 q 694 173 731 263 q 582 31 656 83 q 398 -21 508 -21 m 424 129 q 532 160 491 129 q 593 247 574 191 q 612 375 612 302 q 593 504 612 449 q 533 590 574 559 q 429 621 493 621 q 318 588 362 621 q 253 499 274 555 q 233 375 233 443 q 253 250 233 306 q 316 162 274 194 q 424 129 358 129 z "},"ġ":{"ha":856,"x_min":56,"x_max":758,"o":"m 374 898 l 374 1069 l 544 1069 l 544 898 l 374 898 m 413 -354 q 293 -335 350 -354 q 190 -279 235 -315 q 115 -191 144 -242 l 269 -115 q 330 -175 290 -156 q 413 -195 369 -195 q 506 -177 465 -195 q 570 -123 547 -158 q 591 -33 592 -87 l 591 180 l 612 180 l 612 750 l 758 750 l 758 -36 q 756 -91 758 -65 q 748 -142 753 -117 q 684 -261 731 -215 q 567 -331 637 -308 q 413 -354 497 -354 m 398 -21 q 217 31 294 -21 q 98 173 140 83 q 56 375 56 263 q 98 578 56 489 q 219 719 141 667 q 404 771 298 771 q 584 719 511 771 q 694 578 656 667 q 731 375 731 488 q 694 173 731 263 q 582 31 656 83 q 398 -21 508 -21 m 424 129 q 532 160 491 129 q 593 247 574 191 q 612 375 612 302 q 593 504 612 449 q 533 590 574 559 q 429 621 493 621 q 318 588 362 621 q 253 499 274 555 q 233 375 233 443 q 253 250 233 306 q 316 162 274 194 q 424 129 358 129 z "},"h":{"ha":869,"x_min":96,"x_max":785,"o":"m 616 0 l 616 361 q 611 440 616 397 q 589 523 606 483 q 536 588 571 563 q 441 614 501 614 q 378 603 409 614 q 321 568 347 593 q 281 498 296 542 q 265 385 265 454 l 166 428 q 203 601 166 524 q 313 725 240 679 q 490 772 385 772 q 628 744 574 772 q 714 673 682 716 q 761 581 746 630 q 781 489 776 533 q 785 419 785 446 l 785 0 l 616 0 m 96 0 l 96 1000 l 245 1000 l 245 474 l 265 474 l 265 0 l 96 0 z "},"ħ":{"ha":869,"x_min":21,"x_max":785,"o":"m 21 810 l 21 940 l 391 940 l 391 810 l 21 810 m 616 0 l 616 361 q 611 440 616 397 q 589 523 606 483 q 536 588 571 563 q 441 614 501 614 q 378 603 409 614 q 321 568 347 593 q 281 498 296 542 q 265 385 265 454 l 166 428 q 203 601 166 524 q 313 725 240 679 q 490 772 385 772 q 628 744 574 772 q 714 673 682 716 q 761 581 746 630 q 781 489 776 533 q 785 419 785 446 l 785 0 l 616 0 m 96 0 l 96 1000 l 245 1000 l 245 474 l 265 474 l 265 0 l 96 0 z "},"ĥ":{"ha":869,"x_min":-92,"x_max":785,"o":"m -92 1108 l 98 1326 l 238 1326 l 428 1108 l 272 1108 l 168 1231 l 65 1108 l -92 1108 m 616 0 l 616 361 q 611 440 616 397 q 589 523 606 483 q 536 588 571 563 q 441 614 501 614 q 378 603 409 614 q 321 568 347 593 q 281 498 296 542 q 265 385 265 454 l 166 428 q 203 601 166 524 q 313 725 240 679 q 490 772 385 772 q 628 744 574 772 q 714 673 682 716 q 761 581 746 630 q 781 489 776 533 q 785 419 785 446 l 785 0 l 616 0 m 96 0 l 96 1000 l 245 1000 l 245 474 l 265 474 l 265 0 l 96 0 z "},"i":{"ha":390,"x_min":111,"x_max":278,"o":"m 111 864 l 111 1017 l 278 1017 l 278 864 l 111 864 m 111 0 l 111 750 l 278 750 l 278 0 l 111 0 z "},"ı":{"ha":390,"x_min":111,"x_max":278,"o":"m 111 0 l 111 750 l 278 750 l 278 0 l 111 0 z "},"í":{"ha":390,"x_min":111,"x_max":368,"o":"m 260 858 l 133 858 l 241 1115 l 368 1115 l 260 858 m 111 0 l 111 750 l 278 750 l 278 0 l 111 0 z "},"î":{"ha":390,"x_min":-56,"x_max":464,"o":"m -56 858 l 134 1076 l 274 1076 l 464 858 l 308 858 l 204 981 l 100 858 l -56 858 m 111 0 l 111 750 l 278 750 l 278 0 l 111 0 z "},"ï":{"ha":390,"x_min":-25,"x_max":415,"o":"m 262 866 l 262 1019 l 415 1019 l 415 866 l 262 866 m -25 866 l -25 1019 l 128 1019 l 128 866 l -25 866 m 111 0 l 111 750 l 278 750 l 278 0 l 111 0 z "},"ị":{"ha":390,"x_min":109,"x_max":281,"o":"m 109 -269 l 109 -116 l 281 -116 l 281 -269 l 109 -269 m 111 864 l 111 1017 l 278 1017 l 278 864 l 111 864 m 111 0 l 111 750 l 278 750 l 278 0 l 111 0 z "},"ì":{"ha":390,"x_min":22,"x_max":278,"o":"m 128 858 l 22 1115 l 149 1115 l 256 858 l 128 858 m 111 0 l 111 750 l 278 750 l 278 0 l 111 0 z "},"ỉ":{"ha":390,"x_min":45,"x_max":324,"o":"m 88 1056 l 45 1138 q 136 1183 84 1173 q 235 1173 189 1193 q 306 1095 282 1152 q 318 1011 324 1049 q 289 943 312 972 q 233 895 265 913 q 167 874 200 878 l 136 942 q 199 982 175 954 q 205 1048 224 1010 q 173 1078 193 1073 q 129 1076 152 1083 q 88 1056 106 1069 m 111 0 l 111 750 l 278 750 l 278 0 l 111 0 z "},"ī":{"ha":390,"x_min":10,"x_max":380,"o":"m 10 917 l 10 1047 l 380 1047 l 380 917 l 10 917 m 111 0 l 111 750 l 278 750 l 278 0 l 111 0 z "},"į":{"ha":390,"x_min":-6,"x_max":278,"o":"m 142 -333 q 65 -311 99 -333 q 13 -255 32 -290 q -6 -181 -6 -221 q 22 -81 -6 -131 q 98 13 50 -31 q 205 84 145 56 l 278 0 q 201 -53 236 -23 q 145 -114 166 -83 q 124 -168 124 -144 q 136 -197 124 -185 q 165 -209 148 -209 q 190 -203 176 -209 q 216 -185 203 -197 l 276 -263 q 216 -315 251 -297 q 142 -333 181 -333 m 111 864 l 111 1017 l 278 1017 l 278 864 l 111 864 m 111 0 l 111 750 l 278 750 l 278 0 l 111 0 z "},"ĩ":{"ha":390,"x_min":-61,"x_max":451,"o":"m 310 861 q 247 876 277 861 q 190 909 217 890 q 138 943 162 928 q 94 958 114 958 q 64 935 72 958 q 64 880 56 913 l -42 880 q -32 1021 -61 963 q 78 1079 -2 1079 q 142 1065 112 1079 q 200 1031 172 1050 q 251 997 227 1012 q 296 983 276 983 q 326 1005 317 983 q 325 1061 335 1028 l 431 1061 q 422 920 451 978 q 310 861 392 861 m 111 0 l 111 750 l 278 750 l 278 0 l 111 0 z "},"j":{"ha":401,"x_min":-14,"x_max":301,"o":"m -14 -333 l -14 -176 l 22 -176 q 108 -148 83 -176 q 134 -64 134 -119 l 134 750 l 301 750 l 301 -139 q 248 -282 301 -230 q 100 -333 194 -333 l -14 -333 m 134 864 l 134 1017 l 301 1017 l 301 864 l 134 864 z "},"ĵ":{"ha":401,"x_min":-45,"x_max":474,"o":"m -14 -333 l -14 -176 l 22 -176 q 108 -148 83 -176 q 134 -64 134 -119 l 134 750 l 301 750 l 301 -139 q 248 -282 301 -230 q 100 -333 194 -333 l -14 -333 m -45 858 l 144 1076 l 285 1076 l 474 858 l 318 858 l 215 981 l 110 858 l -45 858 z "},"k":{"ha":747,"x_min":96,"x_max":775,"o":"m 96 0 l 97 1000 l 267 1000 l 267 389 l 541 750 l 750 750 l 459 375 l 775 0 l 553 0 l 267 361 l 267 0 l 96 0 z "},"ķ":{"ha":747,"x_min":96,"x_max":775,"o":"m 334 -424 l 334 -351 q 366 -346 344 -351 q 406 -326 388 -342 q 424 -278 424 -310 l 334 -278 l 334 -116 l 497 -116 l 497 -278 q 450 -384 497 -344 q 334 -424 404 -424 m 96 0 l 97 1000 l 267 1000 l 267 389 l 541 750 l 750 750 l 459 375 l 775 0 l 553 0 l 267 361 l 267 0 l 96 0 z "},"l":{"ha":390,"x_min":111,"x_max":278,"o":"m 111 0 l 111 1021 l 278 1021 l 278 0 l 111 0 z "},"ĺ":{"ha":390,"x_min":111,"x_max":368,"o":"m 260 1108 l 133 1108 l 241 1365 l 368 1365 l 260 1108 m 111 0 l 111 1021 l 278 1021 l 278 0 l 111 0 z "},"ľ":{"ha":609,"x_min":111,"x_max":562,"o":"m 111 0 l 111 1021 l 278 1021 l 278 0 l 111 0 m 390 647 l 400 719 q 451 730 432 717 q 476 768 469 744 q 479 824 483 793 l 390 824 l 390 1003 l 562 1003 l 562 817 q 519 680 562 726 q 390 647 476 633 z "},"ļ":{"ha":390,"x_min":111,"x_max":278,"o":"m 114 -424 l 114 -351 q 146 -346 124 -351 q 185 -326 167 -342 q 203 -278 203 -310 l 114 -278 l 114 -116 l 276 -116 l 276 -278 q 230 -384 276 -344 q 114 -424 184 -424 m 111 0 l 111 1021 l 278 1021 l 278 0 l 111 0 z "},"ł":{"ha":553,"x_min":38,"x_max":515,"o":"m 38 283 l 38 464 l 515 738 l 515 556 l 38 283 m 193 0 l 193 1021 l 360 1021 l 360 0 l 193 0 z "},"m":{"ha":1249,"x_min":96,"x_max":1165,"o":"m 998 0 l 998 456 q 960 576 998 533 q 856 619 922 619 q 784 601 816 619 q 733 547 752 583 q 715 462 715 511 l 640 506 q 675 643 640 583 q 772 735 711 702 q 908 769 833 769 q 1099 694 1033 769 q 1165 498 1165 619 l 1165 0 l 998 0 m 96 0 l 96 750 l 244 750 l 244 517 l 265 517 l 265 0 l 96 0 m 548 0 l 548 453 q 510 576 548 532 q 406 619 472 619 q 303 576 342 619 q 265 462 265 532 l 190 512 q 226 643 190 585 q 323 735 262 701 q 461 769 385 769 q 602 733 545 769 q 686 636 658 697 q 715 497 715 574 l 715 0 l 548 0 z "},"n":{"ha":869,"x_min":96,"x_max":785,"o":"m 616 0 l 616 361 q 611 440 616 397 q 589 523 606 483 q 536 588 571 563 q 441 614 501 614 q 378 603 409 614 q 321 568 347 593 q 281 498 296 542 q 265 385 265 454 l 166 428 q 203 601 166 524 q 313 725 240 679 q 490 772 385 772 q 628 744 574 772 q 714 673 682 716 q 761 581 746 630 q 781 489 776 533 q 785 419 785 446 l 785 0 l 616 0 m 96 0 l 96 750 l 245 750 l 245 517 l 265 517 l 265 0 l 96 0 z "},"ń":{"ha":869,"x_min":96,"x_max":785,"o":"m 506 858 l 378 858 l 485 1115 l 613 1115 l 506 858 m 616 0 l 616 361 q 611 440 616 397 q 589 523 606 483 q 536 588 571 563 q 441 614 501 614 q 378 603 409 614 q 321 568 347 593 q 281 498 296 542 q 265 385 265 454 l 166 428 q 203 601 166 524 q 313 725 240 679 q 490 772 385 772 q 628 744 574 772 q 714 673 682 716 q 761 581 746 630 q 781 489 776 533 q 785 419 785 446 l 785 0 l 616 0 m 96 0 l 96 750 l 245 750 l 245 517 l 265 517 l 265 0 l 96 0 z "},"ň":{"ha":869,"x_min":96,"x_max":785,"o":"m 173 1076 l 329 1076 l 433 953 l 537 1076 l 693 1076 l 503 858 l 363 858 l 173 1076 m 616 0 l 616 361 q 611 440 616 397 q 589 523 606 483 q 536 588 571 563 q 441 614 501 614 q 378 603 409 614 q 321 568 347 593 q 281 498 296 542 q 265 385 265 454 l 166 428 q 203 601 166 524 q 313 725 240 679 q 490 772 385 772 q 628 744 574 772 q 714 673 682 716 q 761 581 746 630 q 781 489 776 533 q 785 419 785 446 l 785 0 l 616 0 m 96 0 l 96 750 l 245 750 l 245 517 l 265 517 l 265 0 l 96 0 z "},"ņ":{"ha":869,"x_min":96,"x_max":785,"o":"m 364 -424 l 364 -351 q 396 -346 374 -351 q 435 -326 417 -342 q 453 -278 453 -310 l 364 -278 l 364 -116 l 526 -116 l 526 -278 q 480 -384 526 -344 q 364 -424 434 -424 m 616 0 l 616 361 q 611 440 616 397 q 589 523 606 483 q 536 588 571 563 q 441 614 501 614 q 378 603 409 614 q 321 568 347 593 q 281 498 296 542 q 265 385 265 454 l 166 428 q 203 601 166 524 q 313 725 240 679 q 490 772 385 772 q 628 744 574 772 q 714 673 682 716 q 761 581 746 630 q 781 489 776 533 q 785 419 785 446 l 785 0 l 616 0 m 96 0 l 96 750 l 245 750 l 245 517 l 265 517 l 265 0 l 96 0 z "},"ŋ":{"ha":869,"x_min":96,"x_max":785,"o":"m 652 -312 q 566 -317 605 -321 q 492 -306 527 -314 l 492 -186 q 533 -188 511 -187 q 573 -181 554 -188 q 604 -152 592 -173 q 616 -89 616 -131 l 616 3 l 785 3 l 785 -124 q 750 -251 785 -202 q 652 -312 715 -299 m 616 0 l 616 361 q 611 440 616 397 q 589 523 606 483 q 536 588 571 563 q 441 614 501 614 q 378 603 409 614 q 321 568 347 593 q 281 498 296 542 q 265 385 265 454 l 166 428 q 203 601 166 524 q 313 725 240 679 q 490 772 385 772 q 628 744 574 772 q 714 673 682 716 q 761 581 746 630 q 781 489 776 533 q 785 419 785 446 l 785 0 l 616 0 m 96 0 l 96 750 l 245 750 l 245 517 l 265 517 l 265 0 l 96 0 z "},"ñ":{"ha":869,"x_min":96,"x_max":785,"o":"m 551 861 q 488 876 518 861 q 431 909 458 890 q 379 943 403 928 q 335 958 355 958 q 304 935 312 958 q 305 880 297 913 l 199 880 q 209 1021 180 963 q 319 1079 239 1079 q 383 1065 353 1079 q 441 1031 413 1050 q 492 997 468 1012 q 537 983 516 983 q 567 1005 558 983 q 566 1061 576 1028 l 672 1061 q 663 920 692 978 q 551 861 633 861 m 616 0 l 616 361 q 611 440 616 397 q 589 523 606 483 q 536 588 571 563 q 441 614 501 614 q 378 603 409 614 q 321 568 347 593 q 281 498 296 542 q 265 385 265 454 l 166 428 q 203 601 166 524 q 313 725 240 679 q 490 772 385 772 q 628 744 574 772 q 714 673 682 716 q 761 581 746 630 q 781 489 776 533 q 785 419 785 446 l 785 0 l 616 0 m 96 0 l 96 750 l 245 750 l 245 517 l 265 517 l 265 0 l 96 0 z "},"o":{"ha":858,"x_min":56,"x_max":803,"o":"m 428 -21 q 232 30 316 -21 q 102 170 148 81 q 56 375 56 259 q 103 582 56 493 q 234 721 150 671 q 428 771 318 771 q 626 720 542 771 q 756 580 710 669 q 803 375 803 491 q 756 169 803 258 q 625 30 709 80 q 428 -21 541 -21 m 428 136 q 577 203 528 136 q 626 375 626 269 q 576 549 626 484 q 428 614 527 614 q 318 584 361 614 q 253 500 274 553 q 233 375 233 446 q 282 201 233 266 q 428 136 332 136 z "},"ó":{"ha":858,"x_min":56,"x_max":803,"o":"m 494 858 l 367 858 l 474 1115 l 601 1115 l 494 858 m 428 -21 q 232 30 316 -21 q 102 170 148 81 q 56 375 56 259 q 103 582 56 493 q 234 721 150 671 q 428 771 318 771 q 626 720 542 771 q 756 580 710 669 q 803 375 803 491 q 756 169 803 258 q 625 30 709 80 q 428 -21 541 -21 m 428 136 q 577 203 528 136 q 626 375 626 269 q 576 549 626 484 q 428 614 527 614 q 318 584 361 614 q 253 500 274 553 q 233 375 233 446 q 282 201 233 266 q 428 136 332 136 z "},"ô":{"ha":858,"x_min":56,"x_max":803,"o":"m 167 858 l 358 1076 l 498 1076 l 688 858 l 531 858 l 428 981 l 324 858 l 167 858 m 428 -21 q 232 30 316 -21 q 102 170 148 81 q 56 375 56 259 q 103 582 56 493 q 234 721 150 671 q 428 771 318 771 q 626 720 542 771 q 756 580 710 669 q 803 375 803 491 q 756 169 803 258 q 625 30 709 80 q 428 -21 541 -21 m 428 136 q 577 203 528 136 q 626 375 626 269 q 576 549 626 484 q 428 614 527 614 q 318 584 361 614 q 253 500 274 553 q 233 375 233 446 q 282 201 233 266 q 428 136 332 136 z "},"ố":{"ha":858,"x_min":56,"x_max":899,"o":"m 177 858 l 367 1076 l 507 1076 l 697 858 l 540 858 l 437 981 l 333 858 l 177 858 m 792 1003 l 665 1003 l 772 1260 l 899 1260 l 792 1003 m 428 -21 q 232 30 316 -21 q 102 170 148 81 q 56 375 56 259 q 103 582 56 493 q 234 721 150 671 q 428 771 318 771 q 626 720 542 771 q 756 580 710 669 q 803 375 803 491 q 756 169 803 258 q 625 30 709 80 q 428 -21 541 -21 m 428 136 q 577 203 528 136 q 626 375 626 269 q 576 549 626 484 q 428 614 527 614 q 318 584 361 614 q 253 500 274 553 q 233 375 233 446 q 282 201 233 266 q 428 136 332 136 z "},"ộ":{"ha":858,"x_min":56,"x_max":803,"o":"m 357 -269 l 357 -116 l 528 -116 l 528 -269 l 357 -269 m 167 858 l 358 1076 l 498 1076 l 688 858 l 531 858 l 428 981 l 324 858 l 167 858 m 428 -21 q 232 30 316 -21 q 102 170 148 81 q 56 375 56 259 q 103 582 56 493 q 234 721 150 671 q 428 771 318 771 q 626 720 542 771 q 756 580 710 669 q 803 375 803 491 q 756 169 803 258 q 625 30 709 80 q 428 -21 541 -21 m 428 136 q 577 203 528 136 q 626 375 626 269 q 576 549 626 484 q 428 614 527 614 q 318 584 361 614 q 253 500 274 553 q 233 375 233 446 q 282 201 233 266 q 428 136 332 136 z "},"ồ":{"ha":858,"x_min":56,"x_max":803,"o":"m 178 858 l 369 1076 l 508 1076 l 699 858 l 542 858 l 438 981 l 335 858 l 178 858 m 676 1003 l 569 1260 l 697 1260 l 803 1003 l 676 1003 m 428 -21 q 232 30 316 -21 q 102 170 148 81 q 56 375 56 259 q 103 582 56 493 q 234 721 150 671 q 428 771 318 771 q 626 720 542 771 q 756 580 710 669 q 803 375 803 491 q 756 169 803 258 q 625 30 709 80 q 428 -21 541 -21 m 428 136 q 577 203 528 136 q 626 375 626 269 q 576 549 626 484 q 428 614 527 614 q 318 584 361 614 q 253 500 274 553 q 233 375 233 446 q 282 201 233 266 q 428 136 332 136 z "},"ổ":{"ha":858,"x_min":56,"x_max":897,"o":"m 167 858 l 357 1076 l 497 1076 l 687 858 l 531 858 l 427 981 l 323 858 l 167 858 m 661 1051 l 618 1133 q 709 1178 657 1169 q 808 1168 762 1188 q 878 1090 855 1147 q 891 1006 897 1044 q 861 938 885 967 q 806 891 838 909 q 740 869 773 874 l 709 938 q 772 977 748 949 q 778 1043 797 1005 q 745 1074 766 1069 q 702 1071 725 1078 q 661 1051 679 1064 m 428 -21 q 232 30 316 -21 q 102 170 148 81 q 56 375 56 259 q 103 582 56 493 q 234 721 150 671 q 428 771 318 771 q 626 720 542 771 q 756 580 710 669 q 803 375 803 491 q 756 169 803 258 q 625 30 709 80 q 428 -21 541 -21 m 428 136 q 577 203 528 136 q 626 375 626 269 q 576 549 626 484 q 428 614 527 614 q 318 584 361 614 q 253 500 274 553 q 233 375 233 446 q 282 201 233 266 q 428 136 332 136 z "},"ỗ":{"ha":858,"x_min":56,"x_max":803,"o":"m 186 858 l 376 1076 l 517 1076 l 706 858 l 550 858 l 447 981 l 342 858 l 186 858 m 569 1111 q 507 1126 537 1111 q 449 1159 476 1140 q 397 1193 421 1178 q 353 1208 373 1208 q 323 1185 331 1208 q 324 1130 315 1163 l 218 1130 q 227 1271 198 1213 q 338 1329 257 1329 q 401 1315 371 1329 q 459 1281 431 1300 q 510 1247 486 1262 q 555 1233 535 1233 q 585 1255 576 1233 q 584 1311 594 1278 l 690 1311 q 681 1170 710 1228 q 569 1111 651 1111 m 428 -21 q 232 30 316 -21 q 102 170 148 81 q 56 375 56 259 q 103 582 56 493 q 234 721 150 671 q 428 771 318 771 q 626 720 542 771 q 756 580 710 669 q 803 375 803 491 q 756 169 803 258 q 625 30 709 80 q 428 -21 541 -21 m 428 136 q 577 203 528 136 q 626 375 626 269 q 576 549 626 484 q 428 614 527 614 q 318 584 361 614 q 253 500 274 553 q 233 375 233 446 q 282 201 233 266 q 428 136 332 136 z "},"ö":{"ha":858,"x_min":56,"x_max":803,"o":"m 497 866 l 497 1019 l 650 1019 l 650 866 l 497 866 m 210 866 l 210 1019 l 363 1019 l 363 866 l 210 866 m 428 -21 q 232 30 316 -21 q 102 170 148 81 q 56 375 56 259 q 103 582 56 493 q 234 721 150 671 q 428 771 318 771 q 626 720 542 771 q 756 581 710 669 q 803 375 803 492 q 756 169 803 258 q 625 30 709 80 q 428 -21 541 -21 m 429 136 q 577 203 528 136 q 626 375 626 269 q 576 549 626 484 q 428 614 527 614 q 318 584 361 614 q 253 500 274 553 q 233 376 233 446 q 282 201 233 266 q 429 136 332 136 z "},"ọ":{"ha":858,"x_min":56,"x_max":803,"o":"m 344 -269 l 344 -116 l 515 -116 l 515 -269 l 344 -269 m 428 -21 q 232 30 316 -21 q 102 170 148 81 q 56 375 56 259 q 103 582 56 493 q 234 721 150 671 q 428 771 318 771 q 626 720 542 771 q 756 580 710 669 q 803 375 803 491 q 756 169 803 258 q 625 30 709 80 q 428 -21 541 -21 m 428 136 q 577 203 528 136 q 626 375 626 269 q 576 549 626 484 q 428 614 527 614 q 318 584 361 614 q 253 500 274 553 q 233 375 233 446 q 282 201 233 266 q 428 136 332 136 z "},"ò":{"ha":858,"x_min":56,"x_max":803,"o":"m 358 858 l 250 1115 l 377 1115 l 485 858 l 358 858 m 428 -21 q 232 30 316 -21 q 102 170 148 81 q 56 375 56 259 q 103 582 56 493 q 234 721 150 671 q 428 771 318 771 q 626 720 542 771 q 756 580 710 669 q 803 375 803 491 q 756 169 803 258 q 625 30 709 80 q 428 -21 541 -21 m 428 136 q 577 203 528 136 q 626 375 626 269 q 576 549 626 484 q 428 614 527 614 q 318 584 361 614 q 253 500 274 553 q 233 375 233 446 q 282 201 233 266 q 428 136 332 136 z "},"ỏ":{"ha":858,"x_min":56,"x_max":803,"o":"m 344 1056 l 301 1138 q 392 1183 340 1173 q 491 1173 444 1193 q 561 1095 538 1152 q 574 1011 580 1049 q 544 943 567 972 q 489 895 522 913 q 422 874 456 878 l 392 942 q 455 982 431 954 q 461 1048 479 1010 q 429 1078 449 1073 q 385 1076 408 1083 q 344 1056 363 1069 m 428 -21 q 232 30 316 -21 q 102 170 148 81 q 56 375 56 259 q 103 582 56 493 q 234 721 150 671 q 428 771 318 771 q 626 720 542 771 q 756 580 710 669 q 803 375 803 491 q 756 169 803 258 q 625 30 709 80 q 428 -21 541 -21 m 428 136 q 577 203 528 136 q 626 375 626 269 q 576 549 626 484 q 428 614 527 614 q 318 584 361 614 q 253 500 274 553 q 233 375 233 446 q 282 201 233 266 q 428 136 332 136 z "},"ơ":{"ha":858,"x_min":56,"x_max":809,"o":"m 673 874 l 799 875 q 792 749 809 799 q 729 676 775 699 q 630 658 686 655 q 532 686 573 662 l 532 758 q 586 748 564 751 q 628 755 608 746 q 668 805 663 772 q 673 874 674 838 m 428 -21 q 232 30 316 -21 q 102 170 148 81 q 56 375 56 259 q 103 582 56 493 q 234 721 150 671 q 428 771 318 771 q 626 720 542 771 q 756 580 710 669 q 803 375 803 491 q 756 169 803 258 q 625 30 709 80 q 428 -21 541 -21 m 428 136 q 577 203 528 136 q 626 375 626 269 q 576 549 626 484 q 428 614 527 614 q 318 584 361 614 q 253 500 274 553 q 233 375 233 446 q 282 201 233 266 q 428 136 332 136 z "},"ớ":{"ha":865,"x_min":56,"x_max":809,"o":"m 673 874 l 799 875 q 792 749 809 799 q 729 676 775 699 q 630 658 686 655 q 532 686 573 662 l 532 758 q 586 748 564 751 q 628 755 608 746 q 668 805 663 772 q 673 874 674 838 m 494 858 l 367 858 l 474 1115 l 601 1115 l 494 858 m 428 -21 q 232 30 316 -21 q 102 170 148 81 q 56 375 56 259 q 103 582 56 493 q 234 721 150 671 q 428 771 318 771 q 626 720 542 771 q 756 580 710 669 q 803 375 803 491 q 756 169 803 258 q 625 30 709 80 q 428 -21 541 -21 m 428 136 q 577 203 528 136 q 626 375 626 269 q 576 549 626 484 q 428 614 527 614 q 318 584 361 614 q 253 500 274 553 q 233 375 233 446 q 282 201 233 266 q 428 136 332 136 z "},"ợ":{"ha":858,"x_min":56,"x_max":809,"o":"m 356 -269 l 356 -116 l 528 -116 l 528 -269 l 356 -269 m 673 874 l 799 875 q 792 749 809 799 q 729 676 775 699 q 630 658 686 655 q 532 686 573 662 l 532 758 q 586 748 564 751 q 628 755 608 746 q 668 805 663 772 q 673 874 674 838 m 428 -21 q 232 30 316 -21 q 102 170 148 81 q 56 375 56 259 q 103 582 56 493 q 234 721 150 671 q 428 771 318 771 q 626 720 542 771 q 756 580 710 669 q 803 375 803 491 q 756 169 803 258 q 625 30 709 80 q 428 -21 541 -21 m 428 136 q 577 203 528 136 q 626 375 626 269 q 576 549 626 484 q 428 614 527 614 q 318 584 361 614 q 253 500 274 553 q 233 375 233 446 q 282 201 233 266 q 428 136 332 136 z "},"ờ":{"ha":865,"x_min":56,"x_max":809,"o":"m 673 874 l 799 875 q 792 749 809 799 q 729 676 775 699 q 630 658 686 655 q 532 686 573 662 l 532 758 q 586 748 564 751 q 628 755 608 746 q 668 805 663 772 q 673 874 674 838 m 358 858 l 250 1115 l 377 1115 l 485 858 l 358 858 m 428 -21 q 232 30 316 -21 q 102 170 148 81 q 56 375 56 259 q 103 582 56 493 q 234 721 150 671 q 428 771 318 771 q 626 720 542 771 q 756 580 710 669 q 803 375 803 491 q 756 169 803 258 q 625 30 709 80 q 428 -21 541 -21 m 428 136 q 577 203 528 136 q 626 375 626 269 q 576 549 626 484 q 428 614 527 614 q 318 584 361 614 q 253 500 274 553 q 233 375 233 446 q 282 201 233 266 q 428 136 332 136 z "},"ở":{"ha":858,"x_min":56,"x_max":809,"o":"m 344 1056 l 301 1138 q 392 1183 340 1173 q 491 1173 444 1193 q 561 1095 538 1152 q 574 1011 580 1049 q 544 943 567 972 q 489 895 522 913 q 422 874 456 878 l 392 942 q 455 982 431 954 q 461 1048 479 1010 q 429 1078 449 1073 q 385 1076 408 1083 q 344 1056 363 1069 m 673 874 l 799 875 q 792 749 809 799 q 729 676 775 699 q 630 658 686 655 q 532 686 573 662 l 532 758 q 586 748 564 751 q 628 755 608 746 q 668 805 663 772 q 673 874 674 838 m 428 -21 q 232 30 316 -21 q 102 170 148 81 q 56 375 56 259 q 103 582 56 493 q 234 721 150 671 q 428 771 318 771 q 626 720 542 771 q 756 580 710 669 q 803 375 803 491 q 756 169 803 258 q 625 30 709 80 q 428 -21 541 -21 m 428 136 q 577 203 528 136 q 626 375 626 269 q 576 549 626 484 q 428 614 527 614 q 318 584 361 614 q 253 500 274 553 q 233 375 233 446 q 282 201 233 266 q 428 136 332 136 z "},"ỡ":{"ha":858,"x_min":56,"x_max":809,"o":"m 557 861 q 494 876 524 861 q 436 909 464 890 q 384 943 408 928 q 340 958 360 958 q 310 935 318 958 q 311 880 302 913 l 206 880 q 215 1021 185 963 q 326 1079 244 1079 q 389 1065 358 1079 q 446 1031 419 1050 q 498 997 474 1012 q 542 983 522 983 q 573 1005 564 983 q 572 1061 581 1028 l 677 1061 q 668 920 698 978 q 557 861 638 861 m 673 874 l 799 875 q 792 749 809 799 q 729 676 775 699 q 630 658 686 655 q 532 686 573 662 l 532 758 q 586 748 564 751 q 628 755 608 746 q 668 805 663 772 q 673 874 674 838 m 428 -21 q 232 30 316 -21 q 102 170 148 81 q 56 375 56 259 q 103 582 56 493 q 234 721 150 671 q 428 771 318 771 q 626 720 542 771 q 756 580 710 669 q 803 375 803 491 q 756 169 803 258 q 625 30 709 80 q 428 -21 541 -21 m 428 136 q 577 203 528 136 q 626 375 626 269 q 576 549 626 484 q 428 614 527 614 q 318 584 361 614 q 253 500 274 553 q 233 375 233 446 q 282 201 233 266 q 428 136 332 136 z "},"ő":{"ha":858,"x_min":56,"x_max":803,"o":"m 622 858 l 495 858 l 603 1115 l 730 1115 l 622 858 m 337 858 l 210 858 l 317 1115 l 444 1115 l 337 858 m 428 -21 q 232 30 316 -21 q 102 170 148 81 q 56 375 56 259 q 103 582 56 493 q 234 721 150 671 q 428 771 318 771 q 626 720 542 771 q 756 580 710 669 q 803 375 803 491 q 756 169 803 258 q 625 30 709 80 q 428 -21 541 -21 m 428 136 q 577 203 528 136 q 626 375 626 269 q 576 549 626 484 q 428 614 527 614 q 318 584 361 614 q 253 500 274 553 q 233 375 233 446 q 282 201 233 266 q 428 136 332 136 z "},"ō":{"ha":858,"x_min":56,"x_max":803,"o":"m 244 917 l 244 1047 l 615 1047 l 615 917 l 244 917 m 428 -21 q 232 30 316 -21 q 102 170 148 81 q 56 375 56 259 q 103 582 56 493 q 234 721 150 671 q 428 771 318 771 q 626 720 542 771 q 756 580 710 669 q 803 375 803 491 q 756 169 803 258 q 625 30 709 80 q 428 -21 541 -21 m 428 136 q 577 203 528 136 q 626 375 626 269 q 576 549 626 484 q 428 614 527 614 q 318 584 361 614 q 253 500 274 553 q 233 375 233 446 q 282 201 233 266 q 428 136 332 136 z "},"ø":{"ha":858,"x_min":36,"x_max":822,"o":"m 147 -17 l 36 94 l 160 218 l 210 244 l 585 617 l 599 656 l 711 767 l 822 656 l 703 538 l 663 520 l 295 153 l 264 99 l 147 -17 m 428 -21 q 232 30 316 -21 q 102 170 148 81 q 56 375 56 259 q 103 582 56 493 q 234 721 150 671 q 428 771 318 771 q 626 720 542 771 q 756 580 710 669 q 803 375 803 491 q 756 169 803 258 q 625 30 709 80 q 428 -21 541 -21 m 428 136 q 577 203 528 136 q 626 375 626 269 q 576 549 626 484 q 428 614 527 614 q 318 584 361 614 q 253 500 274 553 q 233 375 233 446 q 282 201 233 266 q 428 136 332 136 z "},"õ":{"ha":858,"x_min":56,"x_max":803,"o":"m 546 861 q 483 876 513 861 q 425 909 453 890 q 373 943 397 928 q 329 958 349 958 q 299 935 306 958 q 299 880 291 913 l 194 880 q 204 1021 174 963 q 314 1079 233 1079 q 377 1065 347 1079 q 435 1031 408 1050 q 486 997 463 1012 q 531 983 510 983 q 561 1005 553 983 q 560 1061 570 1028 l 666 1061 q 657 920 687 978 q 546 861 627 861 m 428 -21 q 232 30 316 -21 q 102 170 148 81 q 56 375 56 259 q 103 582 56 493 q 234 721 150 671 q 428 771 318 771 q 626 720 542 771 q 756 580 710 669 q 803 375 803 491 q 756 169 803 258 q 625 30 709 80 q 428 -21 541 -21 m 428 136 q 577 203 528 136 q 626 375 626 269 q 576 549 626 484 q 428 614 527 614 q 318 584 361 614 q 253 500 274 553 q 233 375 233 446 q 282 201 233 266 q 428 136 332 136 z "},"œ":{"ha":1407,"x_min":56,"x_max":1358,"o":"m 1009 -21 q 809 28 895 -21 q 675 165 723 78 q 626 367 626 253 q 674 580 626 490 q 805 721 721 671 q 999 771 889 771 q 1198 716 1116 771 q 1319 563 1279 662 q 1349 328 1358 463 l 1183 328 l 1183 390 q 1140 568 1182 512 q 1006 624 1097 624 q 853 561 903 624 q 803 375 803 497 q 853 199 803 261 q 999 136 903 136 q 1106 164 1061 136 q 1175 243 1151 191 l 1340 193 q 1207 35 1297 92 q 1009 -21 1117 -21 m 751 328 l 751 455 l 1267 455 l 1267 328 l 751 328 m 428 -21 q 232 30 316 -21 q 102 170 148 81 q 56 375 56 259 q 103 582 56 493 q 234 721 150 671 q 428 771 318 771 q 626 720 542 771 q 756 580 710 669 q 803 375 803 491 q 756 169 803 258 q 625 30 709 80 q 428 -21 541 -21 m 428 136 q 577 203 528 136 q 626 375 626 269 q 576 549 626 484 q 428 614 527 614 q 318 584 361 614 q 253 500 274 553 q 233 375 233 446 q 282 201 233 266 q 428 136 332 136 z "},"p":{"ha":856,"x_min":96,"x_max":800,"o":"m 458 -21 q 274 31 348 -21 q 162 173 199 83 q 124 375 124 263 q 162 578 124 488 q 272 719 199 667 q 451 771 344 771 q 636 719 558 771 q 757 578 714 667 q 800 375 800 489 q 758 173 800 263 q 638 31 715 83 q 458 -21 561 -21 m 96 -333 l 96 750 l 244 750 l 244 224 l 265 224 l 265 -333 l 96 -333 m 432 129 q 540 162 497 129 q 602 250 582 194 q 623 375 623 306 q 602 499 623 443 q 538 588 581 555 q 426 621 494 621 q 322 590 363 621 q 263 504 282 559 q 244 375 244 449 q 263 247 244 302 q 323 160 282 191 q 432 129 365 129 z "},"þ":{"ha":856,"x_min":96,"x_max":800,"o":"m 97 590 l 97 1000 l 265 1000 l 265 590 l 97 590 m 458 -21 q 274 31 348 -21 q 162 173 199 83 q 124 375 124 263 q 162 578 124 488 q 272 719 199 667 q 451 771 344 771 q 636 719 558 771 q 757 578 714 667 q 800 375 800 489 q 758 173 800 263 q 638 31 715 83 q 458 -21 561 -21 m 96 -333 l 96 750 l 244 750 l 244 224 l 265 224 l 265 -333 l 96 -333 m 432 129 q 540 162 497 129 q 602 250 582 194 q 623 375 623 306 q 602 499 623 443 q 538 588 581 555 q 426 621 494 621 q 322 590 363 621 q 263 504 282 559 q 244 375 244 449 q 263 247 244 302 q 323 160 282 191 q 432 129 365 129 z "},"q":{"ha":857,"x_min":56,"x_max":760,"o":"m 398 -21 q 217 31 294 -21 q 98 173 140 83 q 56 375 56 263 q 98 578 56 489 q 219 719 141 667 q 404 771 298 771 q 584 719 511 771 q 694 578 656 667 q 731 375 731 488 q 694 173 731 263 q 582 31 656 83 q 398 -21 508 -21 m 424 129 q 532 160 491 129 q 593 247 574 191 q 612 375 612 302 q 593 504 612 449 q 533 590 574 559 q 429 621 493 621 q 318 588 362 621 q 253 499 274 555 q 233 375 233 443 q 253 250 233 306 q 316 162 274 194 q 424 129 358 129 m 591 -333 l 591 224 l 612 224 l 612 750 l 760 750 l 760 -333 l 591 -333 z "},"r":{"ha":554,"x_min":97,"x_max":519,"o":"m 97 0 l 97 750 l 245 750 l 245 567 l 227 591 q 264 659 241 628 q 320 710 288 690 q 382 740 348 729 q 451 753 415 751 q 519 750 486 756 l 519 594 q 443 600 486 603 q 365 576 399 597 q 308 528 330 557 q 276 461 286 499 q 265 381 265 424 l 265 0 l 97 0 z "},"ŕ":{"ha":554,"x_min":97,"x_max":519,"o":"m 330 858 l 203 858 l 310 1115 l 438 1115 l 330 858 m 97 0 l 97 750 l 245 750 l 245 567 l 227 591 q 264 659 241 628 q 320 710 288 690 q 382 740 348 729 q 451 753 415 751 q 519 750 486 756 l 519 594 q 443 600 486 603 q 365 576 399 597 q 308 528 330 557 q 276 461 286 499 q 265 381 265 424 l 265 0 l 97 0 z "},"ř":{"ha":554,"x_min":47,"x_max":567,"o":"m 47 1076 l 203 1076 l 307 953 l 410 1076 l 567 1076 l 377 858 l 237 858 l 47 1076 m 97 0 l 97 750 l 245 750 l 245 567 l 227 591 q 264 659 241 628 q 320 710 288 690 q 382 740 348 729 q 451 753 415 751 q 519 750 486 756 l 519 594 q 443 600 486 603 q 365 576 399 597 q 308 528 330 557 q 276 461 286 499 q 265 381 265 424 l 265 0 l 97 0 z "},"ŗ":{"ha":554,"x_min":97,"x_max":519,"o":"m 101 -424 l 101 -351 q 133 -346 111 -351 q 172 -326 154 -342 q 190 -278 190 -310 l 101 -278 l 101 -116 l 263 -116 l 263 -278 q 217 -384 263 -344 q 101 -424 171 -424 m 97 0 l 97 750 l 245 750 l 245 567 l 227 591 q 264 659 241 628 q 320 710 288 690 q 382 740 348 729 q 451 753 415 751 q 519 750 486 756 l 519 594 q 443 600 486 603 q 365 576 399 597 q 308 528 330 557 q 276 461 286 499 q 265 381 265 424 l 265 0 l 97 0 z "},"s":{"ha":752,"x_min":56,"x_max":697,"o":"m 387 -21 q 161 42 248 -21 q 56 217 74 104 l 226 244 q 285 156 240 188 q 399 124 330 124 q 492 148 459 124 q 525 214 525 172 q 513 255 525 240 q 460 285 501 271 q 334 322 419 300 q 184 376 240 347 q 104 444 128 405 q 80 540 80 484 q 117 663 80 610 q 219 743 153 715 q 375 771 285 771 q 530 744 463 771 q 640 667 598 717 q 691 549 681 617 l 520 519 q 477 594 514 567 q 378 626 440 622 q 283 608 319 629 q 247 549 247 587 q 261 512 247 527 q 320 481 276 497 q 451 444 364 466 q 595 391 541 421 q 673 321 649 362 q 697 222 697 280 q 614 44 697 108 q 387 -21 532 -21 z "},"ś":{"ha":752,"x_min":56,"x_max":697,"o":"m 439 858 l 313 858 l 419 1115 l 547 1115 l 439 858 m 387 -21 q 161 42 248 -21 q 56 217 74 104 l 226 244 q 285 156 240 188 q 399 124 330 124 q 492 148 459 124 q 525 214 525 172 q 513 255 525 240 q 460 285 501 271 q 334 322 419 300 q 184 376 240 347 q 104 444 128 405 q 80 540 80 484 q 117 663 80 610 q 219 743 153 715 q 375 771 285 771 q 530 744 463 771 q 640 667 598 717 q 691 549 681 617 l 520 519 q 477 594 514 567 q 378 626 440 622 q 283 608 319 629 q 247 549 247 587 q 261 512 247 527 q 320 481 276 497 q 451 444 364 466 q 595 391 541 421 q 673 321 649 362 q 697 222 697 280 q 614 44 697 108 q 387 -21 532 -21 z "},"š":{"ha":752,"x_min":56,"x_max":697,"o":"m 126 1076 l 282 1076 l 385 953 l 489 1076 l 645 1076 l 456 858 l 315 858 l 126 1076 m 387 -21 q 161 42 248 -21 q 56 217 74 104 l 226 244 q 285 156 240 188 q 399 124 330 124 q 492 148 459 124 q 525 214 525 172 q 513 255 525 240 q 460 285 501 271 q 334 322 419 300 q 184 376 240 347 q 104 444 128 405 q 80 540 80 484 q 117 663 80 610 q 219 743 153 715 q 375 771 285 771 q 530 744 463 771 q 640 667 598 717 q 691 549 681 617 l 520 519 q 477 594 514 567 q 378 626 440 622 q 283 608 319 629 q 247 549 247 587 q 261 512 247 527 q 320 481 276 497 q 451 444 364 466 q 595 391 541 421 q 673 321 649 362 q 697 222 697 280 q 614 44 697 108 q 387 -21 532 -21 z "},"ş":{"ha":752,"x_min":56,"x_max":697,"o":"m 366 -335 q 314 -328 338 -335 q 270 -310 290 -321 l 307 -211 q 351 -221 335 -221 q 383 -209 372 -221 q 394 -183 394 -197 q 367 -144 394 -156 q 304 -121 340 -131 l 353 22 l 454 22 l 427 -58 q 489 -110 467 -78 q 511 -187 511 -142 q 468 -294 511 -253 q 366 -335 424 -335 m 387 -21 q 161 42 248 -21 q 56 217 74 104 l 226 244 q 285 156 240 188 q 399 124 330 124 q 492 148 459 124 q 525 214 525 172 q 513 255 525 240 q 460 285 501 271 q 334 322 419 300 q 184 376 240 347 q 104 444 128 405 q 80 540 80 484 q 117 663 80 610 q 219 743 153 715 q 375 771 285 771 q 530 744 463 771 q 640 667 598 717 q 691 549 681 617 l 520 519 q 477 594 514 567 q 378 626 440 622 q 283 608 319 629 q 247 549 247 587 q 261 512 247 527 q 320 481 276 497 q 451 444 364 466 q 595 391 541 421 q 673 321 649 362 q 697 222 697 280 q 614 44 697 108 q 387 -21 532 -21 z "},"ŝ":{"ha":752,"x_min":56,"x_max":697,"o":"m 128 858 l 317 1076 l 458 1076 l 647 858 l 491 858 l 388 981 l 284 858 l 128 858 m 387 -21 q 161 42 248 -21 q 56 217 74 104 l 226 244 q 285 156 240 188 q 399 124 330 124 q 492 148 459 124 q 525 214 525 172 q 513 255 525 240 q 460 285 501 271 q 334 322 419 300 q 184 376 240 347 q 104 444 128 405 q 80 540 80 484 q 117 663 80 610 q 219 743 153 715 q 375 771 285 771 q 530 744 463 771 q 640 667 598 717 q 691 549 681 617 l 520 519 q 477 594 514 567 q 378 626 440 622 q 283 608 319 629 q 247 549 247 587 q 261 512 247 527 q 320 481 276 497 q 451 444 364 466 q 595 391 541 421 q 673 321 649 362 q 697 222 697 280 q 614 44 697 108 q 387 -21 532 -21 z "},"ș":{"ha":752,"x_min":56,"x_max":697,"o":"m 304 -424 l 304 -351 q 336 -346 315 -351 q 376 -326 358 -342 q 394 -278 394 -310 l 304 -278 l 304 -116 l 467 -116 l 467 -278 q 420 -384 467 -344 q 304 -424 374 -424 m 387 -21 q 161 42 248 -21 q 56 217 74 104 l 226 244 q 285 156 240 188 q 399 124 330 124 q 492 148 459 124 q 525 214 525 172 q 513 255 525 240 q 460 285 501 271 q 334 322 419 300 q 184 376 240 347 q 104 444 128 405 q 80 540 80 484 q 117 663 80 610 q 219 743 153 715 q 375 771 285 771 q 530 744 463 771 q 640 667 598 717 q 691 549 681 617 l 520 519 q 477 594 514 567 q 378 626 440 622 q 283 608 319 629 q 247 549 247 587 q 261 512 247 527 q 320 481 276 497 q 451 444 364 466 q 595 391 541 421 q 673 321 649 362 q 697 222 697 280 q 614 44 697 108 q 387 -21 532 -21 z "},"ß":{"ha":881,"x_min":96,"x_max":797,"o":"m 478 -21 q 405 -16 435 -21 q 349 0 375 -11 l 349 164 q 396 150 370 156 q 455 143 422 143 q 582 181 534 143 q 630 297 630 219 q 568 418 630 379 q 406 457 506 456 l 406 603 q 482 623 450 606 q 530 667 513 639 q 547 736 547 696 q 505 831 547 797 q 406 864 463 864 q 334 849 367 864 q 283 795 301 833 q 269 749 274 777 q 265 691 265 722 l 265 0 l 96 0 l 96 737 q 99 788 96 765 q 109 833 102 811 q 174 941 130 899 q 278 1001 219 982 q 405 1021 338 1021 q 563 985 492 1021 q 675 885 633 949 q 716 740 716 822 q 695 633 716 682 q 632 553 675 585 q 698 516 668 540 q 750 458 728 492 q 785 383 772 424 q 797 294 797 342 q 715 64 797 148 q 478 -21 633 -21 z "},"t":{"ha":601,"x_min":14,"x_max":537,"o":"m 537 0 q 391 -12 463 -14 q 264 14 320 -10 q 178 92 208 39 q 151 192 153 141 q 150 306 150 242 l 150 958 l 317 958 l 317 316 q 318 237 317 271 q 332 181 319 203 q 412 135 357 140 q 537 140 467 130 l 537 0 m 14 619 l 14 750 l 537 750 l 537 619 l 14 619 z "},"ŧ":{"ha":629,"x_min":14,"x_max":560,"o":"m 14 322 l 14 453 l 560 453 l 560 322 l 14 322 m 537 0 q 391 -12 463 -14 q 264 14 320 -10 q 178 92 208 39 q 151 192 153 141 q 150 306 150 242 l 150 958 l 317 958 l 317 316 q 318 237 317 271 q 332 181 319 203 q 412 135 357 140 q 537 140 467 130 l 537 0 m 14 619 l 14 750 l 537 750 l 537 619 l 14 619 z "},"ť":{"ha":601,"x_min":14,"x_max":643,"o":"m 537 0 q 391 -12 463 -14 q 264 14 320 -10 q 178 92 208 39 q 151 192 153 141 q 150 306 150 242 l 150 958 l 317 958 l 317 316 q 318 237 317 271 q 332 181 319 203 q 412 135 357 140 q 537 140 467 130 l 537 0 m 14 619 l 14 750 l 537 750 l 537 619 l 14 619 m 472 838 l 482 910 q 533 921 514 908 q 558 959 551 935 q 561 1015 565 984 l 472 1015 l 472 1194 l 644 1194 l 644 1008 q 601 871 644 917 q 472 838 558 824 z "},"ţ":{"ha":601,"x_min":14,"x_max":537,"o":"m 320 -335 q 268 -328 292 -335 q 224 -310 244 -321 l 261 -211 q 306 -221 289 -221 q 338 -209 326 -221 q 349 -183 349 -197 q 322 -144 349 -156 q 258 -121 294 -131 l 308 22 l 408 22 l 381 -58 q 443 -110 421 -78 q 465 -187 465 -142 q 422 -294 465 -253 q 320 -335 378 -335 m 537 0 q 391 -12 463 -14 q 264 14 320 -10 q 178 92 208 39 q 151 192 153 141 q 150 306 150 242 l 150 958 l 317 958 l 317 316 q 318 237 317 271 q 332 181 319 203 q 412 135 357 140 q 537 140 467 130 l 537 0 m 14 619 l 14 750 l 537 750 l 537 619 l 14 619 z "},"ț":{"ha":601,"x_min":14,"x_max":537,"o":"m 252 -424 l 252 -351 q 284 -346 263 -351 q 324 -326 306 -342 q 341 -278 342 -310 l 252 -278 l 252 -116 l 414 -116 l 414 -278 q 368 -384 414 -344 q 252 -424 322 -424 m 537 0 q 391 -12 463 -14 q 264 14 320 -10 q 178 92 208 39 q 151 192 153 141 q 150 306 150 242 l 150 958 l 317 958 l 317 316 q 318 237 317 271 q 332 181 319 203 q 412 135 357 140 q 537 140 467 130 l 537 0 m 14 619 l 14 750 l 537 750 l 537 619 l 14 619 z "},"u":{"ha":869,"x_min":83,"x_max":772,"o":"m 378 -22 q 241 6 295 -22 q 155 77 187 34 q 108 169 123 120 q 88 261 92 217 q 83 331 83 304 l 83 750 l 253 750 l 253 389 q 258 311 253 354 q 280 227 263 267 q 333 162 298 188 q 428 136 368 136 q 491 147 460 136 q 548 182 522 157 q 588 252 573 208 q 603 365 603 297 l 703 322 q 666 149 703 226 q 556 25 628 71 q 378 -22 484 -22 m 624 0 l 624 233 l 603 233 l 603 750 l 772 750 l 772 0 l 624 0 z "},"ú":{"ha":869,"x_min":83,"x_max":772,"o":"m 483 858 l 357 858 l 464 1115 l 591 1115 l 483 858 m 378 -22 q 241 6 295 -22 q 155 77 187 34 q 108 169 123 120 q 88 261 92 217 q 83 331 83 304 l 83 750 l 253 750 l 253 389 q 258 311 253 354 q 280 227 263 267 q 333 162 298 188 q 428 136 368 136 q 491 147 460 136 q 548 182 522 157 q 588 252 573 208 q 603 365 603 297 l 703 322 q 666 149 703 226 q 556 25 628 71 q 378 -22 484 -22 m 624 0 l 624 233 l 603 233 l 603 750 l 772 750 l 772 0 l 624 0 z "},"ŭ":{"ha":869,"x_min":83,"x_max":772,"o":"m 427 835 q 322 863 369 835 q 245 939 274 892 q 217 1045 217 987 l 347 1045 q 371 989 347 1012 q 427 965 394 965 q 484 989 460 965 q 507 1045 507 1012 l 638 1045 q 609 939 638 987 q 533 863 581 892 q 427 835 485 835 m 378 -22 q 241 6 295 -22 q 155 77 187 34 q 108 169 123 120 q 88 261 92 217 q 83 331 83 304 l 83 750 l 253 750 l 253 389 q 258 311 253 354 q 280 227 263 267 q 333 162 298 188 q 428 136 368 136 q 491 147 460 136 q 548 182 522 157 q 588 252 573 208 q 603 365 603 297 l 703 322 q 666 149 703 226 q 556 25 628 71 q 378 -22 484 -22 m 624 0 l 624 233 l 603 233 l 603 750 l 772 750 l 772 0 l 624 0 z "},"û":{"ha":869,"x_min":83,"x_max":772,"o":"m 165 858 l 355 1076 l 495 1076 l 685 858 l 528 858 l 425 981 l 322 858 l 165 858 m 378 -22 q 241 6 295 -22 q 155 77 187 34 q 108 169 123 120 q 88 261 92 217 q 83 331 83 304 l 83 750 l 253 750 l 253 389 q 258 311 253 354 q 280 227 263 267 q 333 162 298 188 q 428 136 368 136 q 491 147 460 136 q 548 182 522 157 q 588 252 573 208 q 603 365 603 297 l 703 322 q 666 149 703 226 q 556 25 628 71 q 378 -22 484 -22 m 624 0 l 624 233 l 603 233 l 603 750 l 772 750 l 772 0 l 624 0 z "},"ü":{"ha":869,"x_min":83,"x_max":772,"o":"m 494 866 l 494 1019 l 647 1019 l 647 866 l 494 866 m 208 866 l 208 1019 l 360 1019 l 360 866 l 208 866 m 378 -22 q 241 6 295 -22 q 155 77 187 34 q 108 169 123 120 q 88 261 92 217 q 83 331 83 304 l 83 750 l 253 750 l 253 389 q 258 311 253 354 q 280 227 263 267 q 333 162 298 188 q 428 136 368 136 q 491 147 460 136 q 548 182 522 157 q 588 252 573 208 q 603 365 603 297 l 703 322 q 666 149 703 226 q 556 25 628 71 q 378 -22 484 -22 m 624 0 l 624 233 l 603 233 l 603 750 l 772 750 l 772 0 l 624 0 z "},"ụ":{"ha":869,"x_min":83,"x_max":772,"o":"m 349 -269 l 349 -116 l 521 -116 l 521 -269 l 349 -269 m 378 -22 q 241 6 295 -22 q 155 77 187 34 q 108 169 123 120 q 88 261 92 217 q 83 331 83 304 l 83 750 l 253 750 l 253 389 q 258 311 253 354 q 280 227 263 267 q 333 162 298 188 q 428 136 368 136 q 491 147 460 136 q 548 182 522 157 q 588 252 573 208 q 603 365 603 297 l 703 322 q 666 149 703 226 q 556 25 628 71 q 378 -22 484 -22 m 624 0 l 624 233 l 603 233 l 603 750 l 772 750 l 772 0 l 624 0 z "},"ù":{"ha":869,"x_min":83,"x_max":772,"o":"m 365 858 l 258 1115 l 385 1115 l 492 858 l 365 858 m 378 -22 q 241 6 295 -22 q 155 77 187 34 q 108 169 123 120 q 88 261 92 217 q 83 331 83 304 l 83 750 l 253 750 l 253 389 q 258 311 253 354 q 280 227 263 267 q 333 162 298 188 q 428 136 368 136 q 491 147 460 136 q 548 182 522 157 q 588 252 573 208 q 603 365 603 297 l 703 322 q 666 149 703 226 q 556 25 628 71 q 378 -22 484 -22 m 624 0 l 624 233 l 603 233 l 603 750 l 772 750 l 772 0 l 624 0 z "},"ủ":{"ha":869,"x_min":83,"x_max":772,"o":"m 344 1056 l 301 1138 q 392 1183 340 1173 q 491 1173 444 1193 q 561 1095 538 1152 q 574 1011 580 1049 q 544 943 567 972 q 489 895 522 913 q 422 874 456 878 l 392 942 q 455 982 431 954 q 461 1048 479 1010 q 429 1078 449 1073 q 385 1076 408 1083 q 344 1056 363 1069 m 378 -22 q 241 6 295 -22 q 155 77 187 34 q 108 169 123 120 q 88 261 92 217 q 83 331 83 304 l 83 750 l 253 750 l 253 389 q 258 311 253 354 q 280 227 263 267 q 333 162 298 188 q 428 136 368 136 q 491 147 460 136 q 548 182 522 157 q 588 252 573 208 q 603 365 603 297 l 703 322 q 666 149 703 226 q 556 25 628 71 q 378 -22 484 -22 m 624 0 l 624 233 l 603 233 l 603 750 l 772 750 l 772 0 l 624 0 z "},"ư":{"ha":869,"x_min":83,"x_max":915,"o":"m 778 874 l 905 875 q 897 752 915 799 q 835 679 879 704 q 741 654 794 655 q 645 658 689 653 l 645 750 q 674 750 660 750 q 702 753 688 751 q 767 798 755 763 q 778 874 779 834 m 378 -22 q 241 6 295 -22 q 155 77 187 34 q 108 169 123 120 q 88 261 92 217 q 83 331 83 304 l 83 750 l 253 750 l 253 389 q 258 311 253 354 q 280 227 263 267 q 333 162 298 188 q 428 136 368 136 q 491 147 460 136 q 548 182 522 157 q 588 252 573 208 q 603 365 603 297 l 703 322 q 666 149 703 226 q 556 25 628 71 q 378 -22 484 -22 m 624 0 l 624 233 l 603 233 l 603 750 l 772 750 l 772 0 l 624 0 z "},"ứ":{"ha":869,"x_min":83,"x_max":915,"o":"m 778 874 l 905 875 q 897 752 915 799 q 835 679 879 704 q 741 654 794 655 q 645 658 689 653 l 645 750 q 674 750 660 750 q 702 753 688 751 q 767 798 755 763 q 778 874 779 834 m 483 858 l 357 858 l 464 1115 l 591 1115 l 483 858 m 378 -22 q 241 6 295 -22 q 155 77 187 34 q 108 169 123 120 q 88 261 92 217 q 83 331 83 304 l 83 750 l 253 750 l 253 389 q 258 311 253 354 q 280 227 263 267 q 333 162 298 188 q 428 136 368 136 q 491 147 460 136 q 548 182 522 157 q 588 252 573 208 q 603 365 603 297 l 703 322 q 666 149 703 226 q 556 25 628 71 q 378 -22 484 -22 m 624 0 l 624 233 l 603 233 l 603 750 l 772 750 l 772 0 l 624 0 z "},"ự":{"ha":869,"x_min":83,"x_max":915,"o":"m 778 874 l 906 875 q 897 752 915 799 q 836 679 879 704 q 741 654 794 655 q 645 658 689 653 l 645 750 q 675 750 660 750 q 703 753 689 751 q 768 798 756 763 q 778 874 780 834 m 356 -269 l 356 -116 l 528 -116 l 528 -269 l 356 -269 m 378 -22 q 241 6 295 -22 q 155 77 187 34 q 108 169 123 120 q 88 261 92 217 q 83 331 83 304 l 83 750 l 253 750 l 253 389 q 258 311 253 354 q 280 227 263 267 q 333 162 298 188 q 428 136 368 136 q 491 147 460 136 q 548 182 522 157 q 588 252 573 208 q 603 365 603 297 l 703 322 q 666 149 703 226 q 556 25 628 71 q 378 -22 484 -22 m 624 0 l 624 233 l 603 233 l 603 750 l 772 750 l 772 0 l 624 0 z "},"ừ":{"ha":869,"x_min":83,"x_max":915,"o":"m 778 874 l 905 874 q 897 750 915 798 q 835 678 879 703 q 741 653 794 653 q 645 658 689 652 l 645 749 q 674 749 660 749 q 702 752 688 749 q 767 797 755 761 q 778 874 779 833 m 365 858 l 258 1115 l 385 1115 l 492 858 l 365 858 m 378 -22 q 241 6 295 -22 q 155 77 187 34 q 108 169 123 120 q 88 261 92 217 q 83 331 83 304 l 83 750 l 253 750 l 253 389 q 258 311 253 354 q 280 227 263 267 q 333 162 298 188 q 428 136 368 136 q 491 147 460 136 q 548 182 522 157 q 588 252 573 208 q 603 365 603 297 l 703 322 q 666 149 703 226 q 556 25 628 71 q 378 -22 484 -22 m 624 0 l 624 233 l 603 233 l 603 750 l 772 750 l 772 0 l 624 0 z "},"ử":{"ha":869,"x_min":83,"x_max":915,"o":"m 778 874 l 905 875 q 897 752 915 799 q 835 679 879 704 q 741 654 794 655 q 645 658 689 653 l 645 750 q 674 750 660 750 q 702 753 688 751 q 767 798 755 763 q 778 874 779 834 m 344 1056 l 301 1138 q 392 1183 340 1173 q 491 1173 444 1193 q 561 1095 538 1152 q 574 1011 580 1049 q 544 943 567 972 q 489 895 522 913 q 422 874 456 878 l 392 942 q 455 982 431 954 q 461 1048 479 1010 q 429 1078 449 1073 q 385 1076 408 1083 q 344 1056 363 1069 m 378 -22 q 241 6 295 -22 q 155 77 187 34 q 108 169 123 120 q 88 261 92 217 q 83 331 83 304 l 83 750 l 253 750 l 253 389 q 258 311 253 354 q 280 227 263 267 q 333 162 298 188 q 428 136 368 136 q 491 147 460 136 q 548 182 522 157 q 588 252 573 208 q 603 365 603 297 l 703 322 q 666 149 703 226 q 556 25 628 71 q 378 -22 484 -22 m 624 0 l 624 233 l 603 233 l 603 750 l 772 750 l 772 0 l 624 0 z "},"ữ":{"ha":869,"x_min":83,"x_max":915,"o":"m 778 874 l 905 875 q 897 752 915 799 q 835 679 879 704 q 741 654 794 655 q 645 658 689 653 l 645 750 q 674 750 660 750 q 702 753 688 751 q 767 798 755 763 q 778 874 779 834 m 557 861 q 494 876 524 861 q 436 909 464 890 q 384 943 408 928 q 340 958 360 958 q 310 935 318 958 q 311 880 302 913 l 206 880 q 215 1021 185 963 q 326 1079 244 1079 q 389 1065 358 1079 q 446 1031 419 1050 q 498 997 474 1012 q 542 983 522 983 q 573 1005 564 983 q 572 1061 581 1028 l 677 1061 q 668 920 698 978 q 557 861 638 861 m 378 -22 q 241 6 295 -22 q 155 77 187 34 q 108 169 123 120 q 88 261 92 217 q 83 331 83 304 l 83 750 l 253 750 l 253 389 q 258 311 253 354 q 280 227 263 267 q 333 162 298 188 q 428 136 368 136 q 491 147 460 136 q 548 182 522 157 q 588 252 573 208 q 603 365 603 297 l 703 322 q 666 149 703 226 q 556 25 628 71 q 378 -22 484 -22 m 624 0 l 624 233 l 603 233 l 603 750 l 772 750 l 772 0 l 624 0 z "},"ű":{"ha":869,"x_min":83,"x_max":772,"o":"m 625 858 l 498 858 l 605 1115 l 732 1115 l 625 858 m 339 858 l 212 858 l 319 1115 l 447 1115 l 339 858 m 378 -22 q 241 6 295 -22 q 155 77 187 34 q 108 169 123 120 q 88 261 92 217 q 83 331 83 304 l 83 750 l 253 750 l 253 389 q 258 311 253 354 q 280 227 263 267 q 333 162 298 188 q 428 136 368 136 q 491 147 460 136 q 548 182 522 157 q 588 252 573 208 q 603 365 603 297 l 703 322 q 666 149 703 226 q 556 25 628 71 q 378 -22 484 -22 m 624 0 l 624 233 l 603 233 l 603 750 l 772 750 l 772 0 l 624 0 z "},"ū":{"ha":869,"x_min":83,"x_max":772,"o":"m 242 917 l 242 1047 l 613 1047 l 613 917 l 242 917 m 378 -22 q 241 6 295 -22 q 155 77 187 34 q 108 169 123 120 q 88 261 92 217 q 83 331 83 304 l 83 750 l 253 750 l 253 389 q 258 311 253 354 q 280 227 263 267 q 333 162 298 188 q 428 136 368 136 q 491 147 460 136 q 548 182 522 157 q 588 252 573 208 q 603 365 603 297 l 703 322 q 666 149 703 226 q 556 25 628 71 q 378 -22 484 -22 m 624 0 l 624 233 l 603 233 l 603 750 l 772 750 l 772 0 l 624 0 z "},"ų":{"ha":869,"x_min":83,"x_max":772,"o":"m 636 -333 q 559 -311 592 -333 q 506 -255 525 -290 q 487 -181 487 -221 q 515 -81 487 -131 q 591 13 543 -31 q 699 84 639 56 l 772 0 q 694 -53 729 -23 q 638 -114 659 -83 q 617 -168 617 -144 q 629 -197 617 -185 q 658 -209 641 -209 q 683 -203 669 -209 q 709 -185 697 -197 l 769 -263 q 709 -315 744 -297 q 636 -333 674 -333 m 378 -22 q 241 6 295 -22 q 155 77 187 34 q 108 169 123 120 q 88 261 92 217 q 83 331 83 304 l 83 750 l 253 750 l 253 389 q 258 311 253 354 q 280 227 263 267 q 333 162 298 188 q 428 136 368 136 q 491 147 460 136 q 548 182 522 157 q 588 252 573 208 q 603 365 603 297 l 703 322 q 666 149 703 226 q 556 25 628 71 q 378 -22 484 -22 m 624 0 l 624 233 l 603 233 l 603 750 l 772 750 l 772 0 l 624 0 z "},"ů":{"ha":869,"x_min":83,"x_max":772,"o":"m 428 828 q 338 852 378 828 q 273 916 297 876 q 249 1006 249 957 q 273 1096 249 1056 q 338 1161 297 1137 q 428 1185 378 1185 q 517 1161 477 1185 q 582 1096 558 1137 q 606 1006 606 1056 q 582 916 606 957 q 517 852 558 876 q 428 828 477 828 m 428 930 q 482 952 460 930 q 504 1006 504 975 q 482 1060 504 1038 q 428 1083 460 1083 q 374 1060 397 1083 q 351 1006 351 1038 q 374 952 351 975 q 428 930 397 930 m 378 -22 q 241 6 295 -22 q 155 77 187 34 q 108 169 123 120 q 88 261 92 217 q 83 331 83 304 l 83 750 l 253 750 l 253 389 q 258 311 253 354 q 280 227 263 267 q 333 162 298 188 q 428 136 368 136 q 491 147 460 136 q 548 182 522 157 q 588 252 573 208 q 603 365 603 297 l 703 322 q 666 149 703 226 q 556 25 628 71 q 378 -22 484 -22 m 624 0 l 624 233 l 603 233 l 603 750 l 772 750 l 772 0 l 624 0 z "},"ũ":{"ha":869,"x_min":83,"x_max":772,"o":"m 378 -22 q 241 6 295 -22 q 155 77 187 34 q 108 169 123 120 q 88 261 92 217 q 83 331 83 304 l 83 750 l 253 750 l 253 389 q 258 311 253 354 q 280 227 263 267 q 333 162 298 188 q 428 136 368 136 q 491 147 460 136 q 548 182 522 157 q 588 252 573 208 q 603 365 603 297 l 703 322 q 666 149 703 226 q 556 25 628 71 q 378 -22 484 -22 m 624 0 l 624 233 l 603 233 l 603 750 l 772 750 l 772 0 l 624 0 m 558 861 q 495 876 525 861 q 437 909 465 890 q 385 943 409 928 q 341 958 361 958 q 311 935 319 958 q 312 880 303 913 l 206 880 q 216 1021 186 963 q 326 1079 245 1079 q 389 1065 359 1079 q 447 1031 419 1050 q 499 997 474 1012 q 543 983 523 983 q 573 1005 565 983 q 572 1061 582 1028 l 678 1061 q 669 920 699 978 q 558 861 639 861 z "},"v":{"ha":768,"x_min":28,"x_max":740,"o":"m 300 0 l 28 750 l 195 750 l 384 206 l 572 750 l 740 750 l 468 0 l 300 0 z "},"w":{"ha":1115,"x_min":28,"x_max":1087,"o":"m 257 0 l 28 751 l 192 750 l 338 269 l 487 750 l 628 750 l 776 269 l 923 750 l 1087 750 l 858 0 l 727 0 l 557 516 l 388 0 l 257 0 z "},"ẃ":{"ha":1115,"x_min":28,"x_max":1087,"o":"m 629 858 l 502 858 l 609 1115 l 736 1115 l 629 858 m 257 0 l 28 751 l 192 750 l 338 269 l 487 750 l 628 750 l 776 269 l 923 750 l 1087 750 l 858 0 l 727 0 l 557 516 l 388 0 l 257 0 z "},"ŵ":{"ha":1115,"x_min":28,"x_max":1087,"o":"m 295 858 l 485 1076 l 625 1076 l 815 858 l 658 858 l 555 981 l 451 858 l 295 858 m 257 0 l 28 751 l 192 750 l 338 269 l 487 750 l 628 750 l 776 269 l 923 750 l 1087 750 l 858 0 l 727 0 l 557 516 l 388 0 l 257 0 z "},"ẅ":{"ha":1115,"x_min":28,"x_max":1087,"o":"m 624 866 l 624 1019 l 777 1019 l 777 866 l 624 866 m 338 866 l 338 1019 l 490 1019 l 490 866 l 338 866 m 257 0 l 28 751 l 192 750 l 338 269 l 487 750 l 628 750 l 776 269 l 923 750 l 1087 750 l 858 0 l 727 0 l 557 516 l 388 0 l 257 0 z "},"ẁ":{"ha":1115,"x_min":28,"x_max":1087,"o":"m 485 858 l 378 1115 l 505 1115 l 613 858 l 485 858 m 257 0 l 28 751 l 192 750 l 338 269 l 487 750 l 628 750 l 776 269 l 923 750 l 1087 750 l 858 0 l 727 0 l 557 516 l 388 0 l 257 0 z "},"x":{"ha":769,"x_min":14,"x_max":756,"o":"m 14 0 l 288 379 l 19 750 l 217 750 l 385 510 l 551 750 l 749 750 l 480 379 l 756 0 l 558 0 l 385 248 l 211 0 l 14 0 z "},"y":{"ha":777,"x_min":16,"x_max":771,"o":"m 196 -333 l 340 63 l 343 -53 l 16 750 l 190 750 l 422 156 l 378 156 l 603 750 l 771 750 l 353 -333 l 196 -333 z "},"ý":{"ha":777,"x_min":16,"x_max":771,"o":"m 460 858 l 333 858 l 441 1115 l 568 1115 l 460 858 m 196 -333 l 340 63 l 343 -53 l 16 750 l 190 750 l 422 156 l 378 156 l 603 750 l 771 750 l 353 -333 l 196 -333 z "},"ŷ":{"ha":777,"x_min":16,"x_max":771,"o":"m 138 858 l 327 1076 l 467 1076 l 657 858 l 501 858 l 397 981 l 294 858 l 138 858 m 196 -333 l 340 63 l 343 -53 l 16 750 l 190 750 l 422 156 l 378 156 l 603 750 l 771 750 l 353 -333 l 196 -333 z "},"ÿ":{"ha":777,"x_min":16,"x_max":771,"o":"m 465 866 l 465 1019 l 617 1019 l 617 866 l 465 866 m 178 866 l 178 1019 l 331 1019 l 331 866 l 178 866 m 196 -333 l 340 63 l 343 -53 l 16 750 l 190 750 l 422 156 l 378 156 l 603 750 l 771 750 l 353 -333 l 196 -333 z "},"ỵ":{"ha":777,"x_min":16,"x_max":771,"o":"m 541 -269 l 541 -116 l 712 -116 l 712 -269 l 541 -269 m 196 -333 l 340 63 l 343 -53 l 16 750 l 190 750 l 422 156 l 378 156 l 603 750 l 771 750 l 353 -333 l 196 -333 z "},"ỳ":{"ha":777,"x_min":16,"x_max":771,"o":"m 337 858 l 230 1115 l 357 1115 l 464 858 l 337 858 m 196 -333 l 340 63 l 343 -53 l 16 750 l 190 750 l 422 156 l 378 156 l 603 750 l 771 750 l 353 -333 l 196 -333 z "},"ỷ":{"ha":777,"x_min":16,"x_max":771,"o":"m 302 1056 l 259 1138 q 351 1183 299 1173 q 450 1173 403 1193 q 519 1095 497 1152 q 532 1011 538 1049 q 503 943 526 972 q 447 895 480 913 q 381 874 415 878 l 351 942 q 413 982 389 954 q 419 1048 438 1010 q 387 1078 408 1073 q 344 1076 367 1083 q 302 1056 321 1069 m 196 -333 l 340 63 l 343 -53 l 16 750 l 190 750 l 422 156 l 378 156 l 603 750 l 771 750 l 353 -333 l 196 -333 z "},"ỹ":{"ha":777,"x_min":16,"x_max":771,"o":"m 196 -333 l 340 63 l 343 -53 l 16 750 l 190 750 l 422 156 l 378 156 l 603 750 l 771 750 l 353 -333 l 196 -333 m 512 861 q 449 876 479 861 q 391 909 419 890 q 339 943 363 928 q 295 958 315 958 q 265 935 273 958 q 266 880 257 913 l 160 880 q 170 1021 140 963 q 281 1079 199 1079 q 343 1065 313 1079 q 401 1031 374 1050 q 453 997 428 1012 q 497 983 477 983 q 527 1005 519 983 q 526 1061 536 1028 l 632 1061 q 623 920 653 978 q 512 861 593 861 z "},"z":{"ha":741,"x_min":28,"x_max":685,"o":"m 28 0 l 28 23 l 425 603 l 68 603 l 68 750 l 685 750 l 685 726 l 290 147 l 669 147 l 669 0 l 28 0 z "},"ź":{"ha":741,"x_min":28,"x_max":685,"o":"m 445 858 l 318 858 l 425 1115 l 552 1115 l 445 858 m 28 0 l 28 23 l 425 603 l 68 603 l 68 750 l 685 750 l 685 726 l 290 147 l 669 147 l 669 0 l 28 0 z "},"ž":{"ha":741,"x_min":28,"x_max":685,"o":"m 122 1076 l 278 1076 l 382 953 l 486 1076 l 642 1076 l 452 858 l 312 858 l 122 1076 m 28 0 l 28 23 l 425 603 l 68 603 l 68 750 l 685 750 l 685 726 l 290 147 l 669 147 l 669 0 l 28 0 z "},"ż":{"ha":741,"x_min":28,"x_max":685,"o":"m 300 898 l 300 1069 l 472 1069 l 472 898 l 300 898 m 28 0 l 28 23 l 425 603 l 68 603 l 68 750 l 685 750 l 685 726 l 290 147 l 669 147 l 669 0 l 28 0 z "},"":{"ha":992,"x_min":42,"x_max":978,"o":"m 163 0 l 163 762 q 165 825 163 790 q 176 893 167 859 q 212 955 186 927 q 281 1004 244 990 q 354 1019 318 1017 q 417 1021 390 1021 l 511 1021 l 511 885 l 424 885 q 353 861 376 885 q 330 798 330 837 l 330 0 l 163 0 m 42 619 l 42 750 l 511 750 l 511 619 l 42 619 m 630 0 l 630 762 q 632 825 630 790 q 644 893 634 859 q 679 955 653 927 q 748 1004 711 990 q 822 1019 785 1017 q 885 1021 858 1021 l 978 1021 l 978 885 l 892 885 q 820 861 844 885 q 797 798 797 837 l 797 0 l 630 0 m 509 619 l 509 750 l 978 750 l 978 619 l 509 619 z "},"":{"ha":1425,"x_min":42,"x_max":1314,"o":"m 967 619 l 967 750 l 1155 750 l 1155 619 l 967 619 m 630 0 l 630 762 q 632 825 630 790 q 644 893 634 859 q 679 955 653 927 q 748 1004 711 990 q 822 1019 785 1017 q 885 1021 858 1021 l 978 1021 l 978 885 l 892 885 q 820 861 844 885 q 797 798 797 837 l 797 0 l 630 0 m 509 619 l 509 750 l 978 750 l 978 619 l 509 619 m 1147 0 l 1147 1021 l 1314 1021 l 1314 0 l 1147 0 m 163 0 l 163 762 q 165 825 163 790 q 176 893 167 859 q 212 955 186 927 q 281 1004 244 990 q 354 1019 318 1017 q 417 1021 390 1021 l 511 1021 l 511 885 l 424 885 q 353 861 376 885 q 330 798 330 837 l 330 0 l 163 0 m 42 619 l 42 750 l 511 750 l 511 619 l 42 619 z "},"ﬁ":{"ha":935,"x_min":42,"x_max":824,"o":"m 163 0 l 163 762 q 165 825 163 790 q 176 893 167 859 q 212 955 186 927 q 281 1004 244 990 q 354 1019 318 1017 q 417 1021 390 1021 l 511 1021 l 511 885 l 424 885 q 353 861 376 885 q 330 798 330 837 l 330 0 l 163 0 m 42 619 l 42 750 l 511 750 l 511 619 l 42 619 m 657 864 l 657 1017 l 824 1017 l 824 864 l 657 864 m 657 0 l 657 750 l 824 750 l 824 0 l 657 0 z "},"ﬂ":{"ha":958,"x_min":42,"x_max":847,"o":"m 500 619 l 500 750 l 688 750 l 688 619 l 500 619 m 163 0 l 163 762 q 165 825 163 790 q 176 893 167 859 q 212 955 186 927 q 281 1004 244 990 q 354 1019 318 1017 q 417 1021 390 1021 l 511 1021 l 511 885 l 424 885 q 353 861 376 885 q 330 798 330 837 l 330 0 l 163 0 m 42 619 l 42 750 l 511 750 l 511 619 l 42 619 m 679 0 l 679 1021 l 847 1021 l 847 0 l 679 0 z "},"":{"ha":1120,"x_min":14,"x_max":1055,"o":"m 537 0 q 391 -12 463 -14 q 264 14 320 -10 q 178 92 208 39 q 151 192 153 141 q 150 306 150 242 l 150 958 l 317 958 l 317 316 q 318 237 317 271 q 332 181 319 203 q 412 135 357 140 q 537 140 467 130 l 537 0 m 14 619 l 14 750 l 537 750 l 537 619 l 14 619 m 1055 0 q 909 -12 981 -14 q 782 14 838 -10 q 697 92 726 39 q 669 192 671 141 q 668 306 668 242 l 668 958 l 835 958 l 835 316 q 836 237 835 271 q 850 181 837 203 q 930 135 875 140 q 1055 140 985 130 l 1055 0 m 532 619 l 532 750 l 1055 750 l 1055 619 l 532 619 z "},"ª":{"ha":444,"x_min":56,"x_max":389,"o":"m 181 375 q 88 409 120 375 q 56 488 56 442 q 75 557 56 528 q 140 601 94 585 q 222 620 172 613 q 333 637 272 628 l 301 617 q 285 672 302 654 q 228 690 269 690 q 182 678 205 690 q 150 640 159 667 l 69 666 q 122 742 83 713 q 228 771 162 771 q 316 755 278 771 q 374 702 355 740 q 386 661 384 682 q 389 615 389 640 l 389 385 l 310 385 l 310 465 l 322 449 q 263 393 296 410 q 181 375 231 375 m 199 446 q 263 466 240 446 q 291 501 285 486 q 299 538 299 517 q 300 572 300 559 l 327 564 q 236 549 267 554 q 185 536 206 543 q 153 517 164 528 q 143 490 143 506 q 158 458 143 469 q 199 446 172 446 z "},"º":{"ha":488,"x_min":56,"x_max":433,"o":"m 244 375 q 107 431 159 375 q 56 573 56 486 q 108 716 56 661 q 244 771 160 771 q 381 715 328 771 q 433 573 433 660 q 381 430 433 485 q 244 375 328 375 m 243 458 q 315 490 291 458 q 338 573 338 522 q 315 656 338 625 q 244 688 291 688 q 173 656 195 688 q 150 573 150 624 q 174 489 150 520 q 243 458 197 458 z "},"А":{"ha":931,"x_min":28,"x_max":903,"o":"m 28 0 l 343 1000 l 588 1000 l 903 0 l 731 0 l 445 897 l 483 897 l 200 0 l 28 0 m 203 217 l 203 373 l 728 373 l 728 217 l 203 217 z "},"Б":{"ha":887,"x_min":97,"x_max":845,"o":"m 97 0 l 97 1000 l 766 1000 l 766 843 l 265 843 l 265 628 l 510 628 q 548 627 524 628 q 590 624 571 626 q 731 570 674 614 q 816 460 788 526 q 845 314 845 393 q 817 168 845 235 q 732 57 788 101 q 590 4 675 14 q 548 1 571 2 q 510 0 525 0 l 97 0 m 265 157 l 503 157 q 535 158 517 157 q 567 163 552 160 q 653 221 629 176 q 676 314 676 266 q 653 407 676 363 q 567 465 629 452 q 535 470 552 469 q 503 471 517 471 l 265 471 l 265 157 z "},"В":{"ha":876,"x_min":97,"x_max":835,"o":"m 97 0 l 97 1000 l 494 1000 q 660 959 595 1000 q 757 856 725 919 q 788 725 788 792 q 749 585 788 642 q 642 507 710 527 l 642 542 q 786 452 737 520 q 835 297 835 384 q 801 142 835 208 q 700 38 767 75 q 534 0 633 0 l 97 0 m 267 158 l 513 158 q 592 175 557 158 q 646 225 626 193 q 666 302 666 258 q 649 374 666 342 q 598 425 631 406 q 518 444 565 444 l 267 444 l 267 158 m 267 601 l 492 601 q 556 615 528 601 q 601 656 585 628 q 618 722 618 683 q 585 809 618 774 q 492 844 551 844 l 267 844 l 267 601 z "},"Г":{"ha":757,"x_min":97,"x_max":743,"o":"m 97 0 l 97 1000 l 743 1000 l 743 843 l 265 843 l 265 0 l 97 0 z "},"Ѓ":{"ha":757,"x_min":97,"x_max":743,"o":"m 415 1108 l 288 1108 l 394 1365 l 522 1365 l 415 1108 m 97 0 l 97 1000 l 743 1000 l 743 843 l 265 843 l 265 0 l 97 0 z "},"Ґ":{"ha":771,"x_min":97,"x_max":757,"o":"m 97 0 l 97 1000 l 590 1000 l 590 1158 l 757 1158 l 757 843 l 265 843 l 265 0 l 97 0 z "},"Д":{"ha":1044,"x_min":44,"x_max":989,"o":"m 44 -167 l 44 157 q 125 181 92 157 q 177 249 158 206 q 208 349 197 292 q 226 471 219 406 q 239 639 233 556 q 250 809 244 721 q 262 1001 255 898 l 914 1000 l 914 157 l 989 157 l 989 -167 l 822 -167 l 822 0 l 211 0 l 211 -167 l 44 -167 m 304 157 l 747 157 l 747 843 l 415 844 q 407 709 410 772 q 399 581 403 646 q 387 440 394 517 q 372 315 380 365 q 349 229 364 265 q 304 157 333 192 z "},"Е":{"ha":813,"x_min":97,"x_max":743,"o":"m 97 0 l 97 1000 l 743 1000 l 743 843 l 265 843 l 265 597 l 660 597 l 660 440 l 265 440 l 265 157 l 743 157 l 743 0 l 97 0 z "},"Ѐ":{"ha":813,"x_min":97,"x_max":743,"o":"m 371 1108 l 264 1365 l 391 1365 l 498 1108 l 371 1108 m 97 0 l 97 1000 l 743 1000 l 743 843 l 265 843 l 265 597 l 660 597 l 660 440 l 265 440 l 265 157 l 743 157 l 743 0 l 97 0 z "},"Ё":{"ha":813,"x_min":97,"x_max":743,"o":"m 483 1116 l 483 1269 l 635 1269 l 635 1116 l 483 1116 m 196 1116 l 196 1269 l 349 1269 l 349 1116 l 196 1116 m 97 0 l 97 1000 l 743 1000 l 743 843 l 265 843 l 265 597 l 660 597 l 660 440 l 265 440 l 265 157 l 743 157 l 743 0 l 97 0 z "},"Ж":{"ha":1272,"x_min":14,"x_max":1258,"o":"m 14 0 l 390 510 l 43 1000 l 243 1000 l 552 548 l 552 1000 l 719 1000 l 719 548 l 1028 1000 l 1228 1000 l 881 510 l 1258 0 l 1051 0 l 719 455 l 719 0 l 552 0 l 552 455 l 221 0 l 14 0 z "},"З":{"ha":902,"x_min":53,"x_max":849,"o":"m 451 -21 q 267 10 346 -21 q 135 90 188 41 q 53 193 82 139 l 197 290 q 245 217 213 252 q 329 159 277 182 q 458 137 381 137 q 580 159 533 137 q 649 217 627 181 q 672 296 672 253 q 642 377 672 349 q 566 418 613 406 q 465 431 519 429 q 395 433 417 432 q 367 433 374 433 q 353 433 360 433 l 353 592 q 380 592 361 592 q 418 592 398 592 q 450 593 438 592 q 580 630 529 597 q 631 728 631 663 q 584 828 631 792 q 458 864 536 864 q 328 831 384 864 q 244 754 272 799 l 126 874 q 264 978 177 935 q 463 1021 351 1021 q 590 1004 528 1021 q 701 952 651 987 q 779 863 750 917 q 808 734 808 809 q 782 607 808 665 q 710 513 756 549 q 812 432 776 486 q 849 295 849 378 q 796 127 849 198 q 653 18 743 56 q 451 -21 563 -21 z "},"И":{"ha":997,"x_min":97,"x_max":900,"o":"m 900 0 l 731 0 l 731 705 l 267 0 l 97 0 l 97 1000 l 267 1000 l 267 295 l 731 1000 l 900 1000 l 900 0 z "},"Й":{"ha":997,"x_min":97,"x_max":900,"o":"m 97 0 l 97 1000 l 267 1000 l 267 295 l 731 1000 l 900 1000 l 900 0 l 731 0 l 731 705 l 267 0 l 97 0 m 498 1085 q 392 1113 440 1085 q 316 1189 344 1142 q 288 1295 288 1237 l 418 1295 q 441 1239 418 1262 q 498 1215 465 1215 q 555 1239 531 1215 q 578 1295 578 1262 l 708 1295 q 680 1189 708 1237 q 603 1113 651 1142 q 498 1085 556 1085 z "},"Ѝ":{"ha":997,"x_min":97,"x_max":900,"o":"m 97 0 l 97 1000 l 267 1000 l 267 295 l 731 1000 l 900 1000 l 900 0 l 731 0 l 731 705 l 267 0 l 97 0 m 451 1108 l 343 1365 l 470 1365 l 578 1108 l 451 1108 z "},"К":{"ha":899,"x_min":97,"x_max":899,"o":"m 97 0 l 97 1000 l 265 1000 l 265 536 l 664 1000 l 869 1000 l 440 510 l 899 0 l 686 0 l 265 467 l 265 0 l 97 0 z "},"Ќ":{"ha":899,"x_min":97,"x_max":899,"o":"m 97 0 l 97 1000 l 265 1000 l 265 536 l 664 1000 l 869 1000 l 440 510 l 899 0 l 686 0 l 265 467 l 265 0 l 97 0 m 520 1108 l 393 1108 l 500 1365 l 627 1365 l 520 1108 z "},"Л":{"ha":1003,"x_min":28,"x_max":906,"o":"m 28 0 l 28 140 q 84 145 61 138 q 123 174 107 153 q 150 234 138 195 q 173 333 162 274 q 200 511 189 419 q 218 694 210 604 q 230 863 226 784 q 237 1000 234 942 l 906 1000 l 906 0 l 739 0 l 739 843 l 392 843 q 384 731 388 797 q 372 589 379 665 q 354 431 365 513 q 328 269 343 349 q 294 140 314 197 q 243 45 275 83 q 159 -4 210 8 q 28 0 107 -17 z "},"М":{"ha":1188,"x_min":97,"x_max":1090,"o":"m 97 0 l 97 1000 l 248 1000 l 594 292 l 940 1000 l 1090 1000 l 1090 0 l 934 0 l 934 641 l 627 0 l 560 0 l 254 641 l 254 0 l 97 0 z "},"Н":{"ha":1002,"x_min":97,"x_max":905,"o":"m 97 0 l 97 1000 l 265 1000 l 265 579 l 738 579 l 738 1000 l 905 1000 l 905 0 l 738 0 l 738 422 l 265 422 l 265 0 l 97 0 z "},"О":{"ha":1041,"x_min":42,"x_max":999,"o":"m 520 -21 q 263 45 370 -21 q 99 228 156 110 q 42 500 42 345 q 99 772 42 655 q 263 955 156 890 q 520 1021 370 1021 q 777 955 670 1021 q 942 772 885 890 q 999 500 999 655 q 942 228 999 345 q 777 45 885 110 q 520 -21 670 -21 m 520 137 q 688 181 621 136 q 789 308 755 226 q 822 500 822 390 q 789 691 822 610 q 688 817 755 772 q 520 863 621 862 q 353 819 419 864 q 252 692 286 774 q 219 500 219 610 q 252 309 219 390 q 352 183 285 228 q 520 137 419 138 z "},"П":{"ha":1005,"x_min":97,"x_max":908,"o":"m 97 0 l 97 1000 l 908 1000 l 908 0 l 740 0 l 740 843 l 265 843 l 265 0 l 97 0 z "},"Р":{"ha":887,"x_min":97,"x_max":845,"o":"m 97 0 l 97 1000 l 510 1000 q 548 999 525 1000 q 590 994 571 998 q 734 937 677 981 q 818 825 790 892 q 845 674 845 757 q 817 525 845 592 q 733 413 790 457 q 590 355 676 368 q 548 351 571 352 q 510 349 524 349 l 265 349 l 265 0 l 97 0 m 265 506 l 503 506 q 535 507 517 506 q 567 513 552 508 q 632 549 608 523 q 666 609 656 576 q 676 674 676 642 q 666 740 676 706 q 632 800 656 774 q 567 837 608 826 q 535 842 552 841 q 503 843 517 843 l 265 843 l 265 506 z "},"С":{"ha":1026,"x_min":42,"x_max":970,"o":"m 520 -21 q 263 45 370 -21 q 99 228 156 110 q 42 500 42 345 q 99 772 42 655 q 263 955 156 890 q 520 1021 370 1021 q 808 934 693 1021 q 970 701 924 848 l 801 655 q 702 808 772 753 q 520 863 632 863 q 352 818 419 863 q 252 691 285 773 q 217 500 218 610 q 251 309 217 390 q 352 182 285 227 q 520 137 419 137 q 702 192 632 137 q 801 345 772 248 l 970 299 q 808 66 924 152 q 520 -21 693 -21 z "},"Т":{"ha":842,"x_min":14,"x_max":828,"o":"m 338 0 l 338 843 l 14 843 l 14 1000 l 828 1000 l 828 843 l 505 843 l 505 0 l 338 0 z "},"У":{"ha":884,"x_min":16,"x_max":878,"o":"m 229 0 l 361 269 l 16 1000 l 205 1000 l 449 446 l 700 1000 l 878 1000 l 408 0 l 229 0 z "},"Ў":{"ha":884,"x_min":16,"x_max":878,"o":"m 457 1085 q 351 1113 399 1085 q 275 1189 303 1142 q 247 1295 247 1237 l 377 1295 q 401 1239 377 1262 q 457 1215 424 1215 q 514 1239 490 1215 q 537 1295 537 1262 l 667 1295 q 639 1189 667 1237 q 563 1113 610 1142 q 457 1085 515 1085 m 229 0 l 361 269 l 16 1000 l 205 1000 l 449 446 l 700 1000 l 878 1000 l 408 0 l 229 0 z "},"Ф":{"ha":1026,"x_min":42,"x_max":984,"o":"m 429 0 l 429 142 q 282 149 352 129 q 158 218 213 168 q 73 345 104 267 q 42 528 42 424 q 73 713 42 633 q 158 842 104 792 q 282 913 213 893 q 429 920 352 933 l 429 1000 l 595 1000 l 595 920 q 742 913 672 933 q 867 842 813 893 q 952 713 921 792 q 984 528 984 633 q 952 345 984 424 q 867 218 921 267 q 742 149 813 168 q 595 142 672 129 l 595 0 l 429 0 m 429 296 l 429 769 q 327 761 369 779 q 259 708 285 744 q 223 625 234 672 q 212 528 212 578 q 223 433 212 479 q 259 353 234 388 q 327 303 285 319 q 429 296 369 287 m 595 296 q 698 303 656 287 q 765 353 740 319 q 802 432 791 388 q 814 524 814 476 q 802 618 814 571 q 765 703 791 666 q 698 760 740 740 q 595 769 656 779 l 595 296 z "},"Х":{"ha":910,"x_min":14,"x_max":897,"o":"m 14 0 l 353 506 l 24 1000 l 228 1000 l 456 648 l 682 1000 l 888 1000 l 559 506 l 897 0 l 692 0 l 456 363 l 220 0 l 14 0 z "},"Ч":{"ha":939,"x_min":97,"x_max":842,"o":"m 674 0 l 674 444 l 701 401 q 590 348 660 367 q 440 329 519 329 q 239 378 314 329 q 131 515 164 428 q 97 715 97 601 l 97 1000 l 267 1000 l 267 767 q 273 666 267 715 q 299 576 278 616 q 362 511 319 535 q 476 488 404 488 q 614 515 557 488 q 694 572 671 542 l 674 488 l 674 1000 l 842 1000 l 842 0 l 674 0 z "},"Ц":{"ha":1042,"x_min":97,"x_max":1028,"o":"m 860 -158 l 860 0 l 97 0 l 97 1000 l 265 1000 l 265 149 l 749 149 l 749 977 l 917 977 l 917 149 l 1028 149 l 1028 -158 l 860 -158 z "},"Ш":{"ha":1315,"x_min":97,"x_max":1217,"o":"m 97 0 l 97 1000 l 265 1000 l 265 157 l 574 157 l 574 1000 l 741 1000 l 741 157 l 1051 157 l 1051 1000 l 1217 1000 l 1217 0 l 97 0 z "},"Щ":{"ha":1342,"x_min":97,"x_max":1328,"o":"m 1161 -158 l 1161 0 l 1064 0 l 1064 149 l 1328 149 l 1328 -158 l 1161 -158 m 97 0 l 97 1000 l 265 1000 l 265 157 l 574 157 l 574 1000 l 741 1000 l 741 157 l 1051 157 l 1051 1000 l 1217 1000 l 1217 0 l 97 0 z "},"Џ":{"ha":1067,"x_min":97,"x_max":970,"o":"m 450 -167 l 450 0 l 97 0 l 97 1000 l 265 1000 l 265 157 l 803 157 l 803 1000 l 970 1000 l 970 0 l 617 0 l 617 -167 l 450 -167 z "},"Ь":{"ha":899,"x_min":96,"x_max":844,"o":"m 96 0 l 96 1000 l 263 1000 l 263 651 l 509 651 q 547 650 523 651 q 590 645 570 649 q 732 588 676 632 q 816 475 789 543 q 844 326 844 408 q 816 175 844 243 q 732 63 789 108 q 590 6 676 19 q 547 1 570 3 q 509 0 524 0 l 96 0 m 263 157 l 502 157 q 534 158 517 157 q 566 163 551 160 q 631 200 607 174 q 665 260 655 226 q 675 326 675 294 q 665 391 675 358 q 631 451 655 424 q 566 488 607 477 q 534 493 551 492 q 502 494 517 494 l 263 494 l 263 157 z "},"Ъ":{"ha":915,"x_min":-2,"x_max":882,"o":"m 134 0 l 134 869 l -2 869 l -2 1000 l 301 1000 l 301 651 l 547 651 q 585 650 561 651 q 628 645 608 649 q 770 588 714 632 q 855 475 827 543 q 882 326 882 408 q 855 175 882 243 q 770 63 827 108 q 628 6 714 19 q 585 1 608 3 q 547 0 562 0 l 134 0 m 301 157 l 540 157 q 572 158 555 157 q 604 163 589 160 q 669 200 645 174 q 703 260 693 226 q 713 326 713 294 q 703 391 713 358 q 669 451 693 424 q 604 488 645 477 q 572 493 589 492 q 540 494 555 494 l 301 494 l 301 157 z "},"Ы":{"ha":1208,"x_min":96,"x_max":1110,"o":"m 96 0 l 96 1000 l 263 1000 l 263 651 l 509 651 q 547 650 523 651 q 590 645 570 649 q 732 588 676 632 q 816 475 789 543 q 844 326 844 408 q 816 175 844 243 q 732 63 789 108 q 590 6 676 19 q 547 1 570 3 q 509 0 524 0 l 96 0 m 263 157 l 502 157 q 534 158 517 157 q 566 163 551 160 q 631 200 607 174 q 665 260 655 226 q 675 326 675 294 q 665 391 675 358 q 631 451 655 424 q 566 488 607 477 q 534 493 551 492 q 502 494 517 494 l 263 494 l 263 157 m 944 0 l 944 1000 l 1111 1000 l 1111 0 l 944 0 z "},"Љ":{"ha":1527,"x_min":14,"x_max":1472,"o":"m 724 0 l 724 1000 l 891 1000 l 891 651 l 1137 651 q 1174 650 1151 651 q 1217 645 1198 649 q 1360 588 1303 632 q 1444 475 1417 543 q 1472 326 1472 408 q 1444 175 1472 243 q 1360 63 1417 108 q 1217 6 1303 19 q 1175 1 1198 3 q 1137 0 1151 0 l 724 0 m 891 157 l 1130 157 q 1161 158 1144 157 q 1194 163 1178 160 q 1259 200 1235 174 q 1293 260 1283 226 q 1303 326 1303 294 q 1293 391 1303 358 q 1259 451 1283 424 q 1194 488 1235 477 q 1161 493 1178 492 q 1130 494 1144 494 l 891 494 l 891 157 m 14 0 l 14 140 q 70 145 47 138 q 109 174 93 153 q 136 234 124 195 q 159 333 148 274 q 186 511 175 419 q 204 694 197 604 q 216 863 212 784 q 223 1000 220 942 l 892 1000 l 892 0 l 725 0 l 725 843 l 378 843 q 370 731 374 797 q 358 589 365 665 q 340 431 351 513 q 314 269 329 349 q 281 140 300 197 q 229 45 261 83 q 145 -4 197 8 q 14 0 93 -17 z "},"Њ":{"ha":1531,"x_min":97,"x_max":1476,"o":"m 97 0 l 97 1000 l 265 1000 l 265 650 l 807 650 l 807 493 l 265 493 l 265 0 l 97 0 m 728 0 l 728 1000 l 894 1000 l 894 651 l 1141 651 q 1178 650 1155 651 q 1221 645 1201 649 q 1364 588 1307 632 q 1448 475 1420 543 q 1476 326 1476 408 q 1448 175 1476 243 q 1364 63 1421 108 q 1221 6 1308 19 q 1178 1 1201 3 q 1141 0 1156 0 l 728 0 m 894 157 l 1134 157 q 1165 158 1148 157 q 1197 163 1182 160 q 1263 200 1239 174 q 1296 260 1286 226 q 1306 326 1306 294 q 1296 391 1306 358 q 1263 451 1286 424 q 1197 488 1239 477 q 1165 493 1182 492 q 1134 494 1148 494 l 894 494 l 894 157 z "},"Ѕ":{"ha":913,"x_min":53,"x_max":860,"o":"m 467 -21 q 270 17 358 -21 q 125 127 182 56 q 53 296 69 198 l 227 322 q 318 185 249 233 q 478 136 388 136 q 578 153 531 136 q 655 201 626 169 q 685 280 685 233 q 678 318 685 301 q 657 350 671 336 q 623 375 644 364 q 574 395 601 387 l 315 472 q 243 498 282 481 q 170 543 205 514 q 114 616 136 572 q 92 727 92 661 q 141 889 92 824 q 273 988 190 955 q 458 1019 356 1020 q 641 984 560 1019 q 776 885 722 950 q 852 727 830 819 l 672 696 q 630 786 661 749 q 552 842 598 823 q 456 863 507 862 q 363 848 406 864 q 294 803 320 833 q 268 735 268 774 q 290 675 268 699 q 345 639 313 652 q 413 616 378 625 l 592 566 q 674 540 628 556 q 763 493 720 523 q 832 415 805 463 q 860 291 860 366 q 827 155 860 213 q 740 57 795 96 q 615 -1 685 18 q 467 -21 544 -21 z "},"Є":{"ha":1004,"x_min":46,"x_max":963,"o":"m 515 -21 q 262 49 367 -21 q 101 236 157 118 q 47 500 46 354 q 103 772 47 655 q 265 955 160 890 q 515 1021 369 1021 q 808 931 691 1021 q 963 677 925 842 l 794 653 q 698 806 769 749 q 525 863 628 862 q 376 828 438 864 q 276 728 313 792 q 227 579 238 664 l 582 579 l 582 422 l 228 422 q 249 328 233 374 q 294 243 264 283 q 395 164 333 190 q 525 137 456 138 q 694 192 624 136 q 792 336 765 247 l 956 295 q 864 120 925 190 q 714 14 803 49 q 515 -21 626 -21 z "},"Э":{"ha":999,"x_min":42,"x_max":958,"o":"m 490 -21 q 290 14 378 -21 q 140 120 201 49 q 49 295 79 190 l 213 336 q 310 192 240 247 q 479 137 381 136 q 609 164 548 138 q 710 243 671 190 q 756 328 741 283 q 776 422 770 374 l 422 422 l 422 579 l 777 579 q 728 728 766 664 q 628 828 691 792 q 479 863 565 864 q 306 806 376 862 q 209 653 235 749 l 42 677 q 196 931 79 842 q 490 1021 313 1021 q 739 955 635 1021 q 900 772 844 890 q 958 500 957 655 q 903 236 958 354 q 742 49 847 118 q 490 -21 637 -21 z "},"І":{"ha":390,"x_min":111,"x_max":278,"o":"m 111 0 l 111 1000 l 278 1000 l 278 0 l 111 0 z "},"Ї":{"ha":390,"x_min":-25,"x_max":415,"o":"m 262 1116 l 262 1269 l 415 1269 l 415 1116 l 262 1116 m -25 1116 l -25 1269 l 128 1269 l 128 1116 l -25 1116 m 111 0 l 111 1000 l 278 1000 l 278 0 l 111 0 z "},"Ј":{"ha":695,"x_min":0,"x_max":584,"o":"m 297 -21 q 107 39 183 -21 q 0 200 31 99 l 165 240 q 210 167 173 197 q 291 136 247 136 q 353 152 320 136 q 401 202 385 167 q 413 255 411 224 q 415 327 415 286 l 415 1000 l 584 1000 l 584 327 q 584 245 584 281 q 577 180 583 210 q 551 116 570 149 q 444 12 510 45 q 297 -21 378 -21 z "},"Ћ":{"ha":939,"x_min":0,"x_max":842,"o":"m 0 851 l 0 1000 l 479 1000 l 479 851 l 0 851 m 265 1000 l 265 556 l 239 599 q 350 652 280 633 q 499 671 420 671 q 700 622 625 671 q 809 485 776 572 q 842 285 842 399 l 842 0 l 672 0 l 672 233 q 666 334 672 285 q 640 424 660 384 q 578 489 620 465 q 463 513 536 513 q 325 486 382 513 q 244 428 269 459 l 265 512 l 265 0 l 97 0 l 97 1000 l 265 1000 z "},"Ю":{"ha":1315,"x_min":97,"x_max":1273,"o":"m 97 0 l 97 1000 l 265 1000 l 265 583 l 458 583 l 458 417 l 265 417 l 265 0 l 97 0 m 851 -21 q 674 16 752 -21 q 542 122 596 53 q 459 286 488 190 q 431 500 431 383 q 459 714 431 618 q 542 878 488 810 q 674 984 596 947 q 851 1021 752 1021 q 1029 984 951 1021 q 1162 878 1108 947 q 1244 714 1216 810 q 1273 500 1273 618 q 1244 285 1273 381 q 1162 121 1216 190 q 1029 16 1108 52 q 851 -21 951 -21 m 851 137 q 960 164 914 137 q 1035 239 1006 190 q 1081 355 1065 288 q 1096 500 1096 421 q 1081 645 1096 579 q 1036 760 1066 712 q 960 836 1006 809 q 851 863 914 863 q 744 836 790 863 q 668 760 698 809 q 623 645 638 712 q 608 500 608 579 q 623 355 608 421 q 667 239 638 288 q 743 164 697 190 q 851 137 790 137 z "},"Я":{"ha":917,"x_min":56,"x_max":819,"o":"m 819 0 l 653 0 l 653 349 l 394 349 l 323 356 q 133 464 195 376 q 72 674 72 552 q 99 825 72 757 q 183 937 127 892 q 326 994 240 981 q 369 999 347 998 q 406 1000 392 1000 l 819 1000 l 819 0 m 245 0 l 56 0 l 272 444 l 442 407 l 245 0 m 653 506 l 653 843 l 413 843 q 382 842 399 843 q 350 837 365 841 q 284 800 308 826 q 251 740 260 774 q 241 674 241 706 q 251 609 241 642 q 284 549 260 576 q 350 513 308 523 q 382 507 365 508 q 413 506 399 506 l 653 506 z "},"Ђ":{"ha":939,"x_min":0,"x_max":883,"o":"m 109 0 l 109 851 l 0 851 l 0 1000 l 479 1000 l 479 851 l 257 851 l 257 676 q 371 747 303 723 q 524 771 439 771 q 790 674 697 771 q 883 389 883 577 q 844 183 883 270 q 722 48 804 95 q 511 0 640 0 l 511 169 q 631 199 587 169 q 695 277 676 228 q 714 389 714 327 q 687 518 714 470 q 611 588 660 567 q 501 610 563 610 q 362 575 415 610 q 292 483 310 541 q 280 421 283 456 q 277 355 277 386 l 277 0 l 109 0 z "},"Ү":{"ha":849,"x_min":0,"x_max":849,"o":"m 340 0 l 340 410 l 0 1000 l 195 1000 l 425 601 l 654 1000 l 849 1000 l 510 410 l 510 0 l 340 0 z "},"Һ":{"ha":939,"x_min":97,"x_max":842,"o":"m 265 1000 l 265 556 l 239 599 q 350 652 280 633 q 499 671 420 671 q 700 622 625 671 q 809 485 776 572 q 842 285 842 399 l 842 0 l 672 0 l 672 233 q 666 334 672 285 q 640 424 660 384 q 578 489 620 465 q 463 513 536 513 q 325 486 382 513 q 244 428 269 459 l 265 512 l 265 0 l 97 0 l 97 1000 l 265 1000 z "},"Ө":{"ha":1069,"x_min":42,"x_max":999,"o":"m 183 417 l 183 583 l 875 583 l 875 417 l 183 417 m 520 -21 q 263 45 370 -21 q 99 228 156 110 q 42 500 42 345 q 99 772 42 655 q 263 955 156 890 q 520 1021 370 1021 q 777 955 670 1021 q 942 772 885 890 q 999 500 999 655 q 942 228 999 345 q 777 45 885 110 q 520 -21 670 -21 m 520 137 q 688 181 621 136 q 789 308 755 226 q 822 500 822 390 q 789 691 822 610 q 688 817 755 772 q 520 863 621 862 q 353 819 419 864 q 252 692 286 774 q 219 500 219 610 q 252 309 219 390 q 352 183 285 228 q 520 137 419 138 z "},"а":{"ha":800,"x_min":56,"x_max":717,"o":"m 307 -21 q 169 10 226 -21 q 84 92 113 41 q 56 206 56 144 q 74 303 56 260 q 129 378 92 347 q 226 430 167 410 q 332 456 272 444 q 464 478 393 468 q 613 500 535 488 l 553 466 q 519 581 554 544 q 399 617 483 617 q 301 594 349 617 q 235 513 254 570 l 83 560 q 189 713 110 656 q 399 771 267 771 q 575 738 499 771 q 688 631 651 706 q 713 550 708 592 q 717 460 717 509 l 717 0 l 570 0 l 570 163 l 594 136 q 476 17 544 55 q 307 -21 408 -21 m 340 113 q 438 133 397 113 q 502 182 478 153 q 534 237 526 211 q 549 310 547 269 q 551 377 551 351 l 602 362 q 472 341 526 350 q 379 324 418 332 q 310 306 340 316 q 261 282 281 296 q 230 250 241 268 q 219 208 219 232 q 233 159 219 180 q 274 125 247 138 q 340 113 301 113 z "},"б":{"ha":831,"x_min":54,"x_max":776,"o":"m 409 -22 q 227 26 302 -21 q 110 157 152 72 q 58 357 67 242 q 58 489 54 416 q 73 631 61 562 q 106 749 85 701 q 162 839 127 798 q 237 908 197 881 q 336 958 283 940 q 449 984 390 975 q 571 1001 508 994 q 694 1021 633 1009 l 710 873 q 620 858 671 863 q 514 847 569 853 q 410 828 460 840 q 325 794 361 817 q 249 706 275 763 q 217 586 222 649 q 325 676 260 650 q 455 702 389 702 q 627 655 555 702 q 737 527 699 608 q 776 347 776 446 q 729 152 776 235 q 600 23 683 69 q 409 -22 517 -23 m 417 135 q 554 191 508 135 q 600 340 600 247 q 552 490 600 435 q 417 544 505 544 q 282 490 328 544 q 235 340 235 435 q 283 189 235 242 q 417 135 330 135 z "},"в":{"ha":776,"x_min":96,"x_max":735,"o":"m 96 0 l 96 750 l 437 750 q 506 746 474 750 q 560 735 538 742 q 656 673 615 719 q 698 546 698 627 q 683 467 698 498 q 642 415 667 436 q 618 399 631 406 q 593 388 606 392 q 644 372 620 383 q 709 316 683 353 q 735 213 735 279 q 698 85 735 137 q 592 13 662 33 q 533 3 566 6 q 465 0 499 0 l 96 0 m 265 129 l 453 129 q 485 132 467 129 q 516 140 502 135 q 552 172 541 149 q 564 219 564 194 q 547 274 564 253 q 506 301 530 294 q 476 308 492 307 q 449 309 460 309 l 265 309 l 265 129 m 265 440 l 404 440 q 446 443 426 440 q 481 451 467 445 q 514 482 503 460 q 525 530 525 503 q 513 580 525 558 q 474 610 501 603 q 432 618 457 617 q 401 619 408 619 l 265 619 l 265 440 z "},"г":{"ha":667,"x_min":97,"x_max":632,"o":"m 97 0 l 97 750 l 632 750 l 632 593 l 265 593 l 265 0 l 97 0 z "},"ѓ":{"ha":667,"x_min":97,"x_max":632,"o":"m 392 858 l 265 858 l 372 1115 l 499 1115 l 392 858 m 97 0 l 97 750 l 632 750 l 632 593 l 265 593 l 265 0 l 97 0 z "},"ґ":{"ha":667,"x_min":97,"x_max":632,"o":"m 97 0 l 97 750 l 465 750 l 465 908 l 632 908 l 632 593 l 265 593 l 265 0 l 97 0 z "},"д":{"ha":880,"x_min":42,"x_max":838,"o":"m 42 -167 l 42 131 q 128 173 103 131 q 169 317 154 215 q 185 447 179 378 q 196 590 192 515 q 204 750 201 666 l 763 750 l 763 131 l 838 131 l 838 -167 l 680 -167 l 680 0 l 199 0 l 199 -167 l 42 -167 m 266 131 l 596 131 l 596 619 l 351 619 q 346 534 349 577 q 340 447 343 490 q 332 365 336 404 q 324 292 328 326 q 305 197 316 234 q 266 131 294 159 z "}}}
